<?xml version="1.0" encoding="utf-8"?>
<!-- Generator: Adobe Illustrator 24.2.3, SVG Export Plug-In . SVG Version: 6.00 Build 0)  -->
<svg version="1.1" id="OBJECTS" xmlns="http://www.w3.org/2000/svg" xmlns:xlink="http://www.w3.org/1999/xlink" x="0px" y="0px"
	 viewBox="0 0 66 54" enable-background="new 0 0 66 54" xml:space="preserve">
<g id="XMLID_6012_">
	<path id="XMLID_7300_" fill="#D4C196" d="M46.17,28.5c-0.54-0.36-0.54-0.36-0.31-1.03c-0.27-0.1-0.5,0.05-0.73,0.13
		c-0.34,0.12-0.66,0.13-1,0.02c-0.97-0.33-1.97-0.58-2.99-0.6c-0.34-0.01-0.65-0.24-1-0.11c-0.47-0.22-0.94,0.03-1.41,0
		c-0.45-0.03-0.9-0.03-1.35,0.09c-0.29,0.08-0.62,0.01-0.93,0c-0.1,0.11-0.1,0.23-0.01,0.35c0.58-0.15,1.16,0.05,1.75-0.04
		c0.55-0.09,1.13,0.02,1.69,0.02c0.8,0,1.56,0.25,2.34,0.37c0.76,0.12,1.47,0.4,2.21,0.58c0.4-0.31,0.65-0.19,0.76,0.32
		c-0.04,0.01-0.07,0.03-0.1,0.06c-0.09,0.17,0,0.3,0.11,0.41c0.06,0.04,0.13,0.05,0.2,0.04c0.09-0.05,0.15-0.13,0.19-0.22
		c0.05-0.08,0.12-0.15,0.21-0.18c0.1-0.02,0.2-0.05,0.29-0.11C46.13,28.56,46.15,28.53,46.17,28.5z"/>
	<path id="XMLID_7299_" fill="#D6C291" d="M20.92,27.57c-0.83-0.31-1.65-0.65-2.49-0.93c-0.86-0.28-1.74-0.55-2.62-0.73
		c-0.55-0.11-1.12-0.16-1.66-0.32c-0.29-0.09-0.61-0.13-0.84-0.39c-0.28-0.15-0.48,0.11-0.73,0.16c-0.07,0.03-0.13,0.08-0.18,0.14
		c-0.03,0.08-0.01,0.15,0.06,0.21c0.71-0.05,1.38,0.21,2.06,0.33c0.63,0.1,1.25,0.27,1.88,0.42c0.1,0.03,0.19,0.12,0.28,0.18
		c0.18,0.21,0.32,0.52,0.67,0.37c0.32-0.26,0.64-0.13,0.94,0.04c0.59,0.31,1.23,0.43,1.84,0.64c0.19,0.06,0.39,0.05,0.58,0.08
		C20.9,27.84,20.95,27.75,20.92,27.57z"/>
	<path id="XMLID_7298_" fill="#B6A27C" d="M63.62,20.13c-0.19-0.06-0.4-0.08-0.57-0.18c-0.42-0.26-0.88-0.32-1.32-0.25
		c-0.85,0.13-1.7,0.07-2.55,0.04c-0.05,0.06-0.06,0.12-0.03,0.19c0.06,0.08,0.15,0.12,0.23,0.16c0.05,0.03,0.1,0.06,0.15,0.1
		c0.02,0.03,0.04,0.06,0.05,0.09c0.01,0.07,0.02,0.13,0.02,0.2c0,0.07,0.02,0.13,0.07,0.17c0.76,0.07,1.51,0.15,2.26-0.07
		c0.22-0.06,0.44-0.06,0.67-0.01c0.28,0.06,0.56,0.05,0.84,0.07C63.65,20.54,63.77,20.4,63.62,20.13z"/>
	<path id="XMLID_7297_" fill="#D1BF99" d="M34.57,27.8c0.01,0.03,0.01,0.07,0.03,0.09c1.04,1.18,1.81,2.59,2.77,3.84
		c0.11,0.14,0.18,0.31,0.27,0.46c0.56,0.99,1.16,1.96,1.82,2.88c0.12,0.17,0.22,0.35,0.33,0.53c0.18-0.06,0.21-0.21,0.22-0.38
		c-1-1.41-1.99-2.83-2.8-4.37c-0.06-0.1-0.13-0.2-0.2-0.3c-0.75-1.03-1.51-2.07-2.26-3.1C34.62,27.52,34.57,27.65,34.57,27.8z"/>
	<path id="XMLID_7296_" fill="#EAD6AB" d="M28.82,11.54c-0.17,0.11-0.32,0.27-0.5,0.32c-0.94,0.29-1.7,0.9-2.46,1.51
		c-0.42,0.34-0.86,0.66-1.29,0.99c-0.73,0.56-1.33,1.28-1.95,1.97c-0.05,0.06-0.04,0.17-0.07,0.26c-0.09,0.07-0.08,0.14,0.01,0.21
		c0.64-0.62,1.29-1.25,1.93-1.87c0.58-0.56,1.21-1.04,1.88-1.48c0.81-0.54,1.69-0.94,2.46-1.53C28.93,11.8,28.94,11.67,28.82,11.54z
		"/>
	<path id="XMLID_7295_" fill="#827043" d="M37.36,45.41c0.29,0.38,0.29,0.38,0.57,0.16c0.11-0.09,0.21-0.2,0.34-0.27
		c0.07-0.04,0.17-0.04,0.24-0.03c0.1,0.02,0.13,0.11,0.08,0.21c-0.02,0.3,0.1,0.3,0.29,0.17c0.02-0.02,0.03-0.05,0.05-0.07
		c0.23-0.25,0.23-0.24,0.31,0.1c0.14,0.18,0.34-0.17,0.48,0.06c0.07,0.17,0.14,0.33,0.22,0.5c0.15,0.05,0.23,0.02,0.17-0.18
		c0-0.06-0.02-0.11-0.06-0.16c-0.24-0.35,0.31-0.42,0.22-0.72c-0.15-0.14-0.34-0.28-0.31-0.51c0.04-0.45-0.26-0.52-0.54-0.63
		c-0.1-0.12-0.2-0.13-0.29,0.01c-0.03,0.22,0.02,0.46-0.31,0.51c-0.43,0.06-0.85,0.2-1.27,0.3C37.38,45,37.16,45.13,37.36,45.41z"/>
	<path id="XMLID_7294_" fill="#806E45" d="M59.52,19.94c-0.11-0.02-0.21-0.03-0.32-0.05c-0.11-0.08-0.23-0.14-0.34-0.21
		c-0.05,0.01-0.1,0-0.14-0.04c0.04-0.03,0.11-0.01,0.15-0.07c0.21-0.66-0.17-0.85-0.66-0.96c-0.07,0.01-0.14,0.03-0.21,0.06
		c-0.18,0.12-0.29,0.33-0.46,0.47c-0.13,0.12-0.27,0.23-0.27,0.44c0.07,0.09-0.03-0.02,0.05,0.07c-0.02-0.02-0.03-0.05-0.05-0.07
		c-0.1-0.05-0.2-0.05-0.27,0.05c-0.11,0.18-0.09,0.37-0.01,0.55c0.17,0.15-0.14,0.59,0.31,0.58l0.01-0.01
		c0.04-0.05,0.08-0.1,0.12-0.16c0.05-0.12,0.1-0.24,0.17-0.35c0.05-0.07,0.1-0.15,0.13-0.23c0.08-0.08-0.09-0.08,0.02-0.06
		c0.1,0.02,0.01,0.13,0.06,0.18c0.13,0.35,0.39,0.62,0.47,0.99c0.15,0.2,0.35,0.13,0.54,0.1c0.31-0.14,0.19-0.78,0.7-0.7
		c0.11-0.11,0.27-0.2,0.19-0.42h0C59.63,20.06,59.57,20,59.52,19.94z"/>
	<path id="XMLID_7293_" fill="#CCB88C" d="M34.27,19.34c-0.71-0.09-1.4,0.1-2.1,0.17c-0.69,0.07-1.38,0.25-2.07,0.39
		c-0.77,0.16-1.56,0.21-2.34,0.26c-0.05,0.46,0.39,0.16,0.5,0.38c0.28,0.08,0.55-0.03,0.83-0.08c1.43-0.26,2.87-0.49,4.3-0.74
		c0.35-0.06,0.74,0.09,1.07-0.16C34.44,19.44,34.38,19.36,34.27,19.34z"/>
	<path id="XMLID_7292_" fill="#DBC79E" d="M49.12,19.25c0.06,0.01,0.12,0.01,0.17,0.02c0.23-0.12,0.46-0.11,0.68,0.03
		c0.06,0,0.12,0,0.17,0c0.23-0.11,0.46-0.11,0.68,0.04c1.57,0.41,3.18,0.28,4.77,0.41c0.1-0.1,0.11-0.21,0.03-0.34
		c-0.34-0.03-0.68-0.05-1.02-0.08c-1.4-0.13-2.81-0.24-4.21-0.4c-0.54-0.06-1.06-0.08-1.59-0.03
		C48.69,19.25,49.04,19.11,49.12,19.25z"/>
	<path id="XMLID_7291_" fill="#BAA581" d="M59.65,21.95c0.05,0.08,0.1,0.15,0.16,0.22c0.06,0.05,0.12,0.11,0.17,0.17l0,0
		c0.05,0.07,0.11,0.13,0.16,0.19l0,0c0.05,0.06,0.11,0.13,0.17,0.19l0,0c0.05,0.07,0.11,0.13,0.17,0.19l0,0
		c0.05,0.08,0.11,0.14,0.19,0.19c0.05,0.01,0.1,0.03,0.14,0.05c0.06,0.04,0.12,0.1,0.17,0.16l0,0c0.09,0.11,0.25,0.08,0.33,0.2
		c0.17,0.12,0.34,0.25,0.52,0.38c0.18-0.14,0.28-0.32,0.19-0.57c-0.42-0.31-0.89-0.54-1.23-0.92c0.37,0.18,0.72,0.49,1.17,0.56
		c0.08,0,0.16-0.01,0.23-0.04c0.17-0.09,0.36-0.16,0.37-0.42c-0.44-0.09-0.84-0.25-1.22-0.52c-0.41-0.3-0.84-0.58-1.32-0.76
		C59.85,21.43,59.72,21.68,59.65,21.95z"/>
	<path id="XMLID_7290_" fill="#C9B486" d="M42.94,18.61c-0.95-0.04-1.9-0.08-2.84-0.12c-0.5-0.02-1.01-0.03-1.51-0.05
		c-0.15-0.01-0.28,0.02-0.38,0.15c0.28,0.35,0.67,0.29,1.02,0.27c0.35-0.02,0.12,0.22,0.16,0.32c0.31,0.01,0.62,0.08,0.92,0.01
		c0.89-0.18,1.78-0.07,2.67-0.02c0.05-0.04,0.07-0.1,0.05-0.16c-0.02-0.05-0.05-0.09-0.1-0.1c0,0-0.06-0.02-0.06-0.02
		s0.05-0.04,0.06-0.04c0.06-0.02,0.1-0.06,0.11-0.12C43.04,18.66,43.01,18.61,42.94,18.61z"/>
	<path id="XMLID_7289_" fill="#B29D6A" d="M27.47,31.48c0.17,0.09,0.34,0.18,0.51,0.26c0.1,0.11,0.21,0.1,0.33,0.07
		c0.16-0.08,0.18-0.26,0.24-0.41c0.28-0.17-0.23-0.53,0.13-0.68c0.05-0.06,0.06-0.13,0.03-0.21c-0.23-0.3-0.71,0.09-0.87-0.39
		c-0.07-0.15-0.13-0.33-0.34-0.24c-0.34,0.06-0.66,0.24-1.02,0.16c-0.1,0.2-0.02,0.36,0.08,0.52c0.08,0.08,0.18,0.1,0.28,0.13
		c0.04,0.04,0.08,0.08,0.11,0.14c0.02,0.09,0.03,0.19,0.04,0.28c0.01,0.07,0.03,0.13,0.05,0.19c0.03,0.06,0.08,0.11,0.14,0.14
		C27.28,31.47,27.37,31.45,27.47,31.48z"/>
	<path id="XMLID_7288_" fill="#857552" d="M52.05,45.56c0.26-0.07,0.45-0.25,0.62-0.45c0.14-0.16,0.19-0.37,0.13-0.59
		c-0.03-0.14-0.19-0.25-0.32-0.23c-0.27,0.06-0.44,0.4-0.77,0.3c0,0-0.07,0-0.07,0c-0.05,0.02-0.1,0.02-0.15,0
		c-0.03-0.06-0.06-0.11-0.1-0.16c-0.11,0.09-0.25,0.15-0.32,0.26c-0.18,0.28-0.42,0.37-0.71,0.37c-0.44,0.11-0.12,0.27-0.01,0.41
		c0.16,0.06,0.33,0.12,0.49,0.18c0.06,0.06,0.13,0.09,0.21,0.08C51.37,45.65,51.71,45.64,52.05,45.56z"/>
	<path id="XMLID_7287_" fill="#EFDAB0" d="M31.86,7.28c0.08-0.61,0.19-1.21,0.34-1.81c0.12-0.51,0.31-0.96,0.6-1.37
		c0.17-0.24,0.33-0.48,0.35-0.8v0c-0.08,0.01-0.2,0-0.24,0.05c-0.37,0.54-0.96,0.93-1.11,1.63c-0.08,0.37-0.08,0.77-0.1,1.16
		c-0.03,0.69-0.24,1.36-0.2,2.05c0.32,0.12,0.19-0.28,0.34-0.35c0-0.06,0-0.13,0-0.19C31.73,7.51,31.75,7.39,31.86,7.28z"/>
	<path id="XMLID_7286_" fill="#CCB995" d="M44.3,40.4c-0.25-0.51-0.72-0.77-1.1-1.12c-0.28-0.26-0.54-0.53-0.75-0.86
		c-0.41-0.62-0.85-1.22-1.29-1.83c-0.35-0.11-0.71-0.25-0.82,0.33c0.56-0.08,0.9,0.3,1.16,0.74c0.32,0.55,0.73,1,1.13,1.47
		c0.46,0.54,0.93,1.06,1.5,1.46C44.29,40.62,44.37,40.59,44.3,40.4z"/>
	<path id="XMLID_7285_" fill="#CFBB8E" d="M32.92,12.63c-0.02-0.11-0.06-0.22-0.07-0.34c-0.01-0.08,0.01-0.18,0.12-0.18
		c0.27,0,0.53,0.02,0.8,0.03c0.18,0.08,0.21-0.01,0.17-0.17l0,0c-0.05-0.06-0.11-0.12-0.17-0.16c-0.31-0.07-0.62-0.12-0.82-0.43
		c-0.08-0.12-0.19-0.18-0.33-0.22c-0.17-0.04-0.34-0.05-0.52-0.06c-0.13-0.01-0.26-0.01-0.39,0c-0.21,0.04-0.46,0.02-0.49,0.35
		c0.35,0.02,0.63,0.12,0.84,0.5c0.24,0.45,0.56,0.84,0.85,1.26c0.04,0.07,0.09,0.12,0.15,0.18l0.01,0c0.15,0.04,0.23,0,0.19-0.19
		c-0.01-0.06-0.02-0.11-0.04-0.16c-0.04-0.06-0.09-0.13-0.15-0.18l0,0C33.01,12.78,32.95,12.72,32.92,12.63z"/>
	<path id="XMLID_7284_" fill="#C5B18A" d="M60.09,17.94c0.64-0.53,1.27-1.05,1.91-1.58c0.02-0.03,0.05-0.05,0.07-0.08
		c0-0.04,0-0.08,0-0.12c-0.04-0.15-0.1-0.29-0.24-0.37c-0.43,0.37-0.89,0.68-1.41,0.89c-0.34,0.14-0.66,0.31-0.88,0.64
		C59.48,17.78,59.71,17.94,60.09,17.94z"/>
	<path id="XMLID_7283_" fill="#BBA783" d="M60.09,17.94c-0.01-0.03-0.02-0.06-0.04-0.07c-0.24-0.11-0.37-0.33-0.5-0.55
		c-0.05,0.01-0.09,0.03-0.13,0.06c-0.06,0.04-0.11,0.09-0.15,0.15l-0.02,0.01c-0.06,0.05-0.11,0.1-0.16,0.16
		c-0.22,0.19-0.41,0.41-0.68,0.5c-0.07,0.02-0.17-0.01-0.24-0.05c-0.09-0.04-0.09-0.15-0.07-0.23c0.06-0.2,0.12-0.4,0.18-0.6
		c-0.07-0.09-0.15-0.11-0.25-0.06l0.01,0.01c-0.04,0.09-0.1,0.14-0.18,0.18l0,0c-0.04,0.08-0.08,0.16-0.1,0.24
		c-0.06,0.35-0.23,0.69-0.12,1.07c0.12,0.1,0.23,0.09,0.35-0.01l0.05,0.01c0.57-0.43,0.75,0.35,1.15,0.45
		c0.26-0.18,0.25-0.5,0.37-0.76C59.75,18.31,59.96,18.17,60.09,17.94z"/>
	<path id="XMLID_7282_" fill="#C8B58F" d="M59.56,18.46c-0.31,0.12-0.36,0.39-0.36,0.7c0.02,0.08,0.07,0.14,0.14,0.17
		c1.18-0.48,2.39-0.85,3.62-1.24c-0.17-0.02-0.34-0.05-0.51-0.05c-0.2-0.01-0.4,0-0.59,0.03c-0.56,0.09-1.1,0.22-1.63,0.45
		c-0.13,0.05-0.27,0.1-0.4,0.12C59.71,18.66,59.62,18.58,59.56,18.46z"/>
	<path id="XMLID_7281_" fill="#E9D6AC" d="M32.86,8.04c-0.07-0.71,0.25-1.3,0.46-1.92c0.27-0.81,0.73-1.49,1.31-2.08
		c0.08-0.08,0.14-0.19,0.21-0.28c0.11-0.14,0.1-0.27-0.02-0.4c-0.98,0.76-1.48,1.88-1.94,3.03c-0.21,0.53-0.43,1.06-0.36,1.67
		C32.64,8.16,32.75,8.15,32.86,8.04z"/>
	<path id="XMLID_7280_" fill="#978662" d="M51.87,51.05c-0.01,0.03-0.02,0.06-0.03,0.08c-0.37,0.57-0.36,0.68,0.08,1.01
		c0.42,0.31,0.83,0.25,1.11-0.17c0.08-0.13,0.13-0.3,0.04-0.43c-0.26-0.41-0.53-0.81-1.08-0.69c-0.03,0.01-0.06,0.01-0.08,0.01
		C51.83,50.91,51.82,50.97,51.87,51.05z"/>
	<path id="XMLID_7279_" fill="#D7C396" d="M48.51,9.87c0.23-0.66,0.32-1.35,0.39-2.04c0.01-0.08,0.01-0.21-0.12-0.19
		c-0.08,0.01-0.16,0.05-0.22,0.11c-0.1,0.11-0.12,0.25-0.13,0.42c-0.01,0.46-0.07,0.91-0.35,1.28c-0.03,0.04-0.1,0.06-0.15,0.05
		c-0.04-0.01-0.08-0.08-0.08-0.13c0-0.24,0-0.49,0.01-0.73c0.02-0.36-0.08-0.69-0.23-1.04c-0.05,0.08-0.08,0.1-0.08,0.12
		c0.15,0.76,0.1,1.52,0.09,2.27c0,0.22,0,0.43,0.14,0.61c0.19-0.09,0.14-0.36,0.31-0.46C48.27,10.1,48.4,9.99,48.51,9.87z"/>
	<path id="XMLID_7278_" fill="#988662" d="M63.62,20.13c-0.06,0.17-0.12,0.34-0.18,0.51c0.14,0.2,0.26,0.4,0.41,0.59
		c0.16,0.19,0.32,0.25,0.45-0.04c0.06-0.13,0.21-0.12,0.28-0.02c0.14,0.19,0.23,0.12,0.31-0.03c0.04-0.07,0.07-0.17,0.08-0.26
		c0.08-0.56-0.25-0.96-0.78-0.89C64,20.01,63.81,20.08,63.62,20.13z"/>
	<path id="XMLID_7277_" fill="#D8C496" d="M34.93,6.86c-0.43,0.4-0.88,0.78-1.3,1.19c-0.19,0.19-0.38,0.22-0.61,0.19
		c-0.09,0.2,0.05,0.28,0.17,0.38c0.19,0.11,0.31,0.32,0.5,0.41c0.45-0.62,1.07-1.09,1.48-1.75c0.06-0.09,0.16-0.15,0.25-0.23
		C35.39,6.6,35.14,6.81,34.93,6.86z"/>
	<path id="XMLID_7276_" fill="#FBE7C4" d="M44.87,32.87c0.12,0.06,0.23,0.12,0.35,0.18c0.25-0.68,0.5-1.36,0.5-2.12
		c-0.13-0.31-0.12-0.72-0.51-0.86c-0.75,0.46-0.57,1.25-0.59,1.98C44.68,32.33,44.6,32.67,44.87,32.87z"/>
	<path id="XMLID_7275_" fill="#E8D5AD" d="M49.02,29.18c0.14-0.02,0.28-0.03,0.41-0.08c0.3-0.1,0.55-0.05,0.76,0.21
		c0.11,0.14,0.23,0.27,0.41,0.3c0.05,0.01,0.12-0.01,0.15-0.04c0.02-0.02,0.02-0.12-0.01-0.15c-0.05-0.07-0.13-0.12-0.19-0.17
		c-0.09-0.07-0.21-0.12-0.17-0.29c0.23-0.13,0.48-0.02,0.72-0.05c0.09-0.13,0.08-0.25-0.03-0.37c-0.33-0.02-0.65,0.07-0.99-0.01
		c-0.43-0.1-0.88-0.11-1.33,0.03c-0.28,0.09-0.61,0.03-0.92,0.03C48.05,29.25,48.64,28.97,49.02,29.18z"/>
	<path id="XMLID_7274_" fill="#867241" d="M28.26,20.53c-0.09-0.24-0.4-0.15-0.5-0.38l0,0c-0.03-0.04-0.07-0.06-0.11-0.05
		c-0.04,0.01-0.06,0.02-0.06,0.03l-0.01,0c-0.12,0.11-0.23,0.1-0.34-0.02c-0.12-0.08-0.23-0.18-0.36-0.22
		c-0.2-0.06-0.43-0.04-0.47,0.22c-0.06,0.35-0.36,0.33-0.55,0.48c-0.1,0.36,0.24,0.23,0.35,0.35l-0.01,0.04
		c0.49,0.07,1.03,0.43,1.38-0.27C27.81,20.67,28.04,20.6,28.26,20.53z"/>
	<path id="XMLID_7273_" fill="#A5936F" d="M51.7,31.59c0.1,0.27,0.31,0.32,0.54,0.34c0.31,0.04,0.48-0.14,0.44-0.47
		c-0.02-0.15-0.07-0.29-0.08-0.44c-0.01-0.25-0.06-0.49-0.31-0.59c-0.3-0.12-0.57-0.01-0.79,0.28c-0.05,0.07-0.08,0.15-0.12,0.23
		C51.46,31.18,51.65,31.34,51.7,31.59z"/>
	<path id="XMLID_7272_" fill="#EAD7AD" d="M36.02,10.58c-0.33-0.23-0.7-0.2-1.06-0.22c-0.34-0.01-0.67,0-0.96-0.23
		c-0.31,0.12-0.46,0.34-0.38,0.71c0.9,0.04,1.81,0.09,2.71,0.13c0.2,0.01,0.4,0.03,0.55-0.15c-0.02-0.03-0.05-0.07-0.07-0.1
		c-0.21-0.14-0.45-0.1-0.67-0.13C36.1,10.59,36.06,10.59,36.02,10.58z"/>
	<path id="XMLID_7271_" fill="#AE9A6C" d="M26.22,20.97c-0.12-0.12-0.23-0.23-0.35-0.35c-0.43-0.07-0.84,0.05-1.25,0.19
		c-0.56,0.2-1.12,0.41-1.68,0.62c-0.11,0.09-0.26,0.06-0.38,0.12c-0.05-0.01-0.09,0-0.13,0.03c-0.02,0.36,0.19,0.26,0.37,0.22
		c0.7-0.2,1.4-0.39,2.09-0.61C25.34,21.05,25.77,20.96,26.22,20.97z"/>
	<path id="XMLID_7270_" fill="#EAD6AA" d="M27.51,29.88c0.13,0.08,0.17,0.21,0.17,0.36c0.11,0.14,0.23,0.14,0.34,0.02
		c0.17-0.33,0.47-0.44,0.77-0.47c0.61-0.08,1.22-0.23,1.84-0.13c0.11,0.02,0.23,0.03,0.34,0.01c0.11-0.02,0.31,0.1,0.3-0.16
		c-0.01-0.13-0.15-0.18-0.26-0.19c-0.62-0.04-1.23-0.15-1.84,0.07C28.63,29.59,28.02,29.55,27.51,29.88z"/>
	<path id="XMLID_7269_" fill="#9E8C6A" d="M56.05,47.56c-0.26-0.11-0.5-0.26-0.79-0.27c-0.22-0.01-0.42-0.11-0.6-0.26
		c0.17-0.17,0.45-0.03,0.6-0.25c-0.26-0.28-0.54-0.29-0.82-0.05c-0.09,0.26-0.37,0.08-0.52,0.27c0.46,0.8,1.23,0.91,1.98,1.09
		C56.3,48.03,56.21,47.81,56.05,47.56z"/>
	<path id="XMLID_7268_" fill="#A1906B" d="M58.83,46.72c0.22,0.07,0.43,0.15,0.65,0.21c0.26,0.07,0.5,0.01,0.72-0.15
		c0.14-0.09,0.19-0.23,0.11-0.38c-0.08-0.15-0.19-0.31-0.32-0.42c-0.2-0.18-0.57-0.18-0.76,0.01c-0.17,0.17-0.34,0.31-0.56,0.38
		c-0.02,0.03-0.05,0.07-0.07,0.1c0.01,0.04,0.02,0.08,0.03,0.12C58.7,46.64,58.76,46.68,58.83,46.72z"/>
	<path id="XMLID_7267_" fill="#E3CEA2" d="M31.32,34.47c-0.29-0.04-0.52-0.21-0.75-0.39c-0.64-0.49-1.28-0.98-1.93-1.46
		c-0.16-0.12-0.35-0.19-0.52-0.29c-0.16,0.12-0.4,0.19-0.33,0.5c0.32-0.01,0.62,0.12,0.88,0.29c0.84,0.55,1.65,1.15,2.47,1.72
		C31.25,34.76,31.42,34.69,31.32,34.47z"/>
	<path id="XMLID_7266_" fill="#CDBB93" d="M50.16,32.52c-0.72-0.62-1.44-1.24-2.01-2.03c0.06-0.06,0.08-0.13,0.05-0.21
		c-0.08-0.1-0.18-0.13-0.3-0.12c-0.22,0.06-0.14,0.32-0.26,0.44c0.09,0.3,0.31,0.5,0.52,0.69c0.53,0.48,1.06,0.97,1.59,1.46
		C49.94,32.75,50.09,32.71,50.16,32.52z"/>
	<path id="XMLID_7265_" fill="#63552D" d="M40.35,36.91c0.08-0.16,0.21-0.18,0.36-0.16c0.19,0.03,0.32-0.07,0.46-0.17
		c0.06-0.18,0.12-0.37,0.18-0.55c-0.11-0.24-0.35-0.36-0.46-0.59c-0.08-0.02-0.17-0.09-0.23-0.07c-0.24,0.09-0.43-0.04-0.64-0.14
		c-0.17,0.06-0.17,0.23-0.22,0.38c0.01,0.38-0.02,0.76,0.19,1.09c0.07,0.12,0.12,0.28,0.3,0.21L40.35,36.91z"/>
	<path id="XMLID_7264_" fill="#D7C49C" d="M38.87,45.65c-0.12-0.01-0.23-0.04-0.29-0.17c-0.44,0.34-0.59,0.89-0.69,1.4
		c-0.11,0.59-0.25,1.17-0.42,1.74c-0.04,0.14-0.03,0.3-0.04,0.45c0.11,0.11,0.23,0.14,0.34,0.02c0.11-0.56,0.22-1.11,0.33-1.67
		C38.23,46.77,38.62,46.25,38.87,45.65z"/>
	<path id="XMLID_7263_" fill="#7F6E3E" d="M26.67,30.57c0.02-0.21-0.12-0.36-0.18-0.54c-0.12-0.17-0.22-0.37-0.46-0.2
		c-0.11,0.08-0.24,0.14-0.37,0.18c-0.14,0.04-0.28,0.05-0.32,0.23c-0.05,0.23,0.01,0.43,0.18,0.57c0.23,0.19,0.47,0.33,0.77,0.28
		c0.17-0.05,0.33-0.11,0.42-0.3C26.72,30.71,26.71,30.64,26.67,30.57z"/>
	<path id="XMLID_7262_" fill="#AC986D" d="M52,12.61c0.19,0.51,0.37,0.64,0.71,0.5c0.15-0.06,0.22-0.23,0.16-0.43
		c-0.09-0.32-0.09-0.32,0.27-0.33c0.08,0,0.17,0.01,0.19-0.09c0.01-0.05-0.01-0.13-0.04-0.17c-0.24-0.39-0.38-0.44-0.77-0.27
		c-0.21,0.09-0.41,0.18-0.62,0.26C51.74,12.28,51.97,12.42,52,12.61z"/>
	<path id="XMLID_7261_" fill="#CEBB91" d="M49.71,10.3c0.54-0.1,0.95-0.5,1.47-0.65c0.27-0.08,0.52-0.23,0.77-0.34
		c-0.02-0.09-0.07-0.15-0.15-0.19c-0.13,0.04-0.27,0.11-0.4,0.11c-0.34,0.01-0.65,0.08-0.94,0.29c-0.13,0.1-0.31,0.12-0.47,0.16
		c-0.13,0.03-0.29,0.09-0.36-0.08c-0.07-0.16,0.07-0.27,0.11-0.41c0.05-0.17-0.02-0.23-0.17-0.2c-0.17,0.3-0.53,0.47-0.54,0.89
		C49.19,10.13,49.51,10.1,49.71,10.3z"/>
	<path id="XMLID_7260_" fill="#C8B591" d="M55.91,46.77c0.3-0.08,0.59-0.15,0.91-0.12c0.62,0.05,1.24,0.04,1.85,0.06
		c0.04-0.05,0.04-0.1-0.01-0.15l0,0c-0.09-0.12-0.26-0.08-0.34-0.21c-0.18,0.05-0.33,0.17-0.55,0.06c-0.75-0.38-1.54-0.45-2.35-0.35
		C55.41,46.43,55.77,46.51,55.91,46.77z"/>
	<path id="XMLID_7259_" fill="#EDDAB2" d="M17.72,31.68c0.16-0.76-0.06-1.51-0.14-2.26c-0.05-0.49-0.13-0.94,0.05-1.42
		c0.1-0.24,0.14-0.54-0.1-0.76c-0.2,0.11-0.23,0.35-0.36,0.51c0.02,0.09,0.08,0.19,0.06,0.26c-0.2,0.6,0.01,1.19,0.1,1.76
		c0.07,0.45,0.09,0.89,0.1,1.34c0.14,0.16,0.02,0.37,0.1,0.54c0.04,0.04,0.08,0.06,0.12,0.05C17.69,31.69,17.72,31.69,17.72,31.68z"
		/>
	<path id="XMLID_7258_" fill="#847453" d="M54.27,45.07c-0.25-0.04-0.49-0.06-0.72,0.1c-0.14,0.1-0.29,0.16-0.45,0.22
		c-0.13,0.05-0.27,0.09-0.33,0.24c-0.04,0.1,0.19,0.39,0.37,0.44c0.13,0.03,0.29,0.06,0.41,0.02c0.31-0.1,0.65-0.17,0.88-0.46
		C54.6,45.37,54.5,45.2,54.27,45.07z"/>
	<path id="XMLID_7257_" fill="#C1AD86" d="M45.58,30.88c0.06,0.32-0.1,0.58-0.2,0.85c-0.15,0.43-0.24,0.86-0.17,1.32
		c0.11,0,0.23,0,0.29-0.13c0.08-0.19,0.15-0.38,0.24-0.57c0.06-0.12,0.16-0.15,0.28-0.11c0.1,0.04,0.17-0.02,0.15-0.11
		c-0.12-0.49-0.26-0.98-0.39-1.46C45.67,30.69,45.64,30.81,45.58,30.88z"/>
	<path id="XMLID_7256_" fill="#E1CFA6" d="M52,12.61c0.06-0.2-0.07-0.36-0.1-0.54c-0.83,0.16-1.68,0.09-2.51,0.05
		c-0.26-0.01-0.5-0.05-0.72-0.21c-0.13-0.09-0.18-0.23-0.19-0.38c-0.08-0.06-0.16-0.06-0.23,0.02c-0.1,0.18-0.08,0.35,0.05,0.52
		c0.04,0.04,0.07,0.12,0.11,0.13c0.63,0.12,1.26,0.23,1.89,0.33c0.23,0.04,0.44-0.05,0.66-0.09C51.31,12.36,51.68,12.33,52,12.61z"
		/>
	<path id="XMLID_7255_" fill="#E1CEA5" d="M22.57,16.8c0-0.07-0.01-0.14-0.01-0.21c-0.95,0.67-1.54,1.66-2.12,2.67
		c0.02,0.11,0.08,0.19,0.18,0.21c0.63-0.83,1.26-1.67,1.89-2.5C22.55,16.93,22.55,16.86,22.57,16.8z"/>
	<path id="XMLID_7254_" fill="#857450" d="M39.39,19.18c0.07-0.04,0.14-0.1,0.22-0.13c0.13-0.04,0.33-0.05,0.32-0.21
		c-0.01-0.27-0.24-0.17-0.39-0.18c-0.45-0.03-0.89-0.05-1.34-0.08l0,0.01c-0.14,0.18-0.11,0.37-0.02,0.57
		c0,0.06,0.01,0.12,0.01,0.18c0,0.21-0.07,0.47,0.22,0.49c0.2,0.02,0.28-0.16,0.28-0.36c0.01-0.19,0.12-0.25,0.28-0.26
		C39.12,19.21,39.26,19.19,39.39,19.18z"/>
	<path id="XMLID_7253_" fill="#564D31" d="M53.48,41.53c0.24-0.16,0.46-0.13,0.72,0c0.2,0.1,0.39-0.09,0.37-0.33
		c-0.03-0.31-0.1-0.6-0.29-0.85c-0.09-0.12-0.31-0.18-0.37-0.07c-0.22,0.34-0.59,0.57-0.61,1.05
		C53.27,41.48,53.31,41.57,53.48,41.53z"/>
	<path id="XMLID_7252_" fill="#AE9B70" d="M48.35,11.53c0.04,0,0.08-0.01,0.12-0.01c0.04-0.04,0.08-0.12,0.11-0.11
		c0.45,0.12,0.84-0.12,1.25-0.22c0.12-0.08,0.13-0.2,0.09-0.34c-0.39-0.37-0.89,0.07-1.29-0.21c-0.14-0.29-0.32-0.53-0.62-0.63
		c-0.09-0.07-0.16-0.03-0.17,0.06c-0.03,0.17-0.03,0.34-0.04,0.51c0.01,0.11,0.02,0.22,0.03,0.33c0.09,0.13,0.02,0.32,0.14,0.43
		C48.11,11.36,48.3,11.25,48.35,11.53z"/>
	<path id="XMLID_7251_" fill="#756230" d="M12.47,25.56c0.04-0.01,0.08-0.03,0.12-0.05c0.16-0.16,0.17-0.34,0.03-0.53l0,0
		C12.42,24.9,12.21,25,12,24.95c-0.37-0.08-0.7-0.04-0.93,0.32c-0.13,0.11-0.25,0.23-0.38,0.34c-0.09,0.14-0.33,0.25-0.08,0.46
		c0.63,0.26,1.15-0.03,1.68-0.33l0,0C12.31,25.64,12.39,25.59,12.47,25.56z"/>
	<path id="XMLID_7250_" fill="#E3D0A6" d="M49.12,19.25c-0.11-0.12-0.22-0.24-0.32-0.35c-0.93-0.04-1.86-0.08-2.79-0.12
		c-0.04,0-0.12,0.04-0.13,0.08c-0.02,0.1,0.04,0.18,0.12,0.21c0.1,0.04,0.22,0.06,0.33,0.07C47.26,19.18,48.19,19.22,49.12,19.25z"
		/>
	<path id="XMLID_7249_" fill="#836F42" d="M17.61,23.77c0.17-0.01,0.34-0.02,0.51-0.03c0.11-0.01,0.25-0.01,0.29-0.14
		c0.12-0.38,0.48-0.37,0.74-0.53c0.04-0.38-0.24-0.22-0.39-0.28c-0.08-0.01-0.16-0.02-0.23-0.04c-0.23,0.06-0.42,0.02-0.53-0.24
		c-0.17,0.11-0.34,0.22-0.51,0.33c-0.19,0.17-0.13,0.44-0.2,0.66C17.17,23.84,17.39,23.83,17.61,23.77z"/>
	<path id="XMLID_7248_" fill="#847452" d="M51.38,44.44c-0.02,0.08-0.03,0.16-0.06,0.24c-0.02,0.08-0.05,0.17,0.04,0.2
		c0.09,0.03,0.14-0.05,0.17-0.13c0.06-0.05,0.11-0.12,0.18-0.17l-0.01,0.01c0.01-0.06,0-0.15,0.03-0.17
		c0.53-0.46,0.76-1.09,0.9-1.78c0.08-0.3,0.11-0.55-0.31-0.41c-0.12,0.34-0.25,0.67-0.36,1.01C51.82,43.66,51.62,44.06,51.38,44.44z
		"/>
	<path id="XMLID_7247_" fill="#7D6E4D" d="M61.99,16.19c0,0.06,0,0.11,0,0.17c0.28,0.02,0.57,0.06,0.85,0.07
		c0.15,0.01,0.29-0.04,0.37-0.18c0.04-0.07,0.09-0.21,0.07-0.24c-0.19-0.22-0.35-0.51-0.64-0.57c-0.32-0.06-0.62,0-0.8,0.35
		C61.85,15.94,61.82,16.11,61.99,16.19L61.99,16.19z"/>
	<path id="XMLID_7246_" fill="#91815C" d="M47.95,25.46c0.14,0.01,0.27,0.02,0.41,0.03c0.08,0,0.21-0.04,0.16-0.12
		c-0.15-0.25-0.03-0.34,0.12-0.5c0.15-0.15,0.08-0.47-0.07-0.66c-0.12-0.15-0.33-0.18-0.53-0.06c-0.1,0.06-0.19,0.13-0.27,0.2
		c-0.15,0.13-0.18,0.29-0.11,0.48c0.08,0.22,0.3,0.37,0.3,0.64L47.95,25.46z"/>
	<path id="XMLID_7245_" fill="#9A8760" d="M37.42,15.08c-0.07-0.09-0.14-0.18-0.2-0.27c-0.25-0.35-0.58-0.43-0.96-0.31
		c-0.16,0.05-0.32,0.1-0.48,0.15c-0.1,0.04-0.11,0.09-0.03,0.17c0.23,0.31,0.37,0.74,0.82,0.79c0.11-0.01,0.19-0.07,0.25-0.15
		c0.07-0.03-0.02-0.37,0.2-0.12C37.23,15.38,37.34,15.26,37.42,15.08z"/>
	<path id="XMLID_7244_" fill="#D8C498" d="M35.75,14.81c0.01-0.06,0.02-0.11,0.03-0.17c-0.92-0.32-1.8-0.72-2.52-1.45
		c-0.06,0.06-0.12,0.13-0.19,0.19c0.5,0.81,1.24,1.21,2.09,1.38C35.35,14.81,35.55,14.8,35.75,14.81z"/>
	<path id="XMLID_7243_" fill="#95845F" d="M59.65,21.95c0.45-0.28,0.45-0.28,0.37-0.74c-0.24-0.15-0.48-0.3-0.72-0.45
		c0.1-0.14,0.25-0.08,0.37-0.12c0-0.05,0.01-0.1,0.01-0.16c-0.04-0.06-0.07-0.08-0.11-0.07c-0.04,0.01-0.06,0.03-0.06,0.04
		c-0.5-0.04-0.63,0.31-0.69,0.74c-0.08,0.05-0.08,0.1,0,0.15C59.14,21.46,59.39,21.7,59.65,21.95z"/>
	<path id="XMLID_7242_" fill="#E3D0A3" d="M33.94,11.98c-0.06,0.06-0.11,0.11-0.17,0.17c0.53,0.36,1.15,0.49,1.74,0.6
		c0.43,0.08,0.85,0.37,1.31,0.22c0.01-0.16-0.11-0.21-0.2-0.24C35.73,12.47,34.83,12.22,33.94,11.98z"/>
	<path id="XMLID_7241_" fill="#A89675" d="M57.77,50.85c0.03-0.4-0.19-0.75-0.54-0.88c-0.16-0.06-0.31-0.13-0.46-0.18
		c-0.09-0.02-0.17,0.06-0.17,0.15c0.04,0.67,0.32,1.01,0.91,1.09C57.62,51.04,57.77,50.94,57.77,50.85z"/>
	<path id="XMLID_7240_" fill="#D3C091" d="M28.02,35.44c-0.32-0.58-0.57-1.19-0.61-1.88c-0.07-0.41,0.06-0.9-0.4-1.17
		c-0.22,0.03-0.17,0.27-0.25,0.39c0.25,0.61,0.47,1.21,0.48,1.9c0,0.36,0.14,0.7,0.45,0.92C27.83,35.62,27.94,35.56,28.02,35.44z"/>
	<path id="XMLID_7239_" fill="#8A7956" d="M55.91,46.77c0.05-0.27,0.05-0.51-0.28-0.58c-0.07-0.01-0.13-0.08-0.2-0.13
		c-0.3-0.05-0.6-0.08-0.9,0.04c-0.37,0.14-0.39,0.21-0.09,0.62c0.27,0.02,0.55,0.04,0.82,0.05C55.47,46.77,55.69,46.77,55.91,46.77z
		"/>
	<path id="XMLID_7238_" fill="#CCB995" d="M59.99,14.61c0.01-0.06,0.02-0.11,0.03-0.16c0.07-0.07,0.06-0.14-0.01-0.2
		c-0.06,0.01-0.11,0.01-0.17,0.02c-0.06,0.05-0.12,0.1-0.18,0.15c-0.14,0.18-0.3,0.36-0.42,0.56c-0.34,0.58-0.67,1.18-1,1.78
		c0.1,0.11,0.01,0.32,0.18,0.4c0.38-0.67,0.76-1.34,1.15-2c0.07-0.13,0.17-0.23,0.26-0.35C59.88,14.73,59.93,14.68,59.99,14.61z"/>
	<path id="XMLID_7237_" fill="#C3B18C" d="M57.71,24.08c-0.12-0.81-0.25-1.62-0.37-2.42c-0.04-0.24-0.05-0.48-0.07-0.72
		c-0.09-0.12-0.2-0.12-0.31-0.04c0.03,1.09,0.05,2.18,0.58,3.16c0.03,0.06,0.06,0.09,0.1,0.07C57.69,24.11,57.71,24.09,57.71,24.08z
		"/>
	<path id="XMLID_7236_" fill="#8E7B4C" d="M12.29,25.74c-0.29-0.11-0.55,0.04-0.81,0.12c-0.3,0.09-0.59,0.18-0.9,0.12
		c-0.08,0.05-0.08,0.11-0.01,0.17c0.25,0.53,0.66,0.46,1.08,0.36C12.03,26.42,12.34,26.25,12.29,25.74z"/>
	<path id="XMLID_7235_" fill="#B6A37B" d="M49.02,29.18c-0.11-0.28-0.32-0.38-0.58-0.38c-0.21-0.01-0.44,0.02-0.6-0.19
		c-0.16-0.01-0.31-0.03-0.47-0.04c-0.13-0.12-0.27-0.11-0.4,0c0.26,0.91,0.32,0.94,1.72,0.83c0.05-0.02,0.11-0.02,0.16-0.03
		C48.92,29.32,48.98,29.26,49.02,29.18L49.02,29.18z"/>
	<path id="XMLID_7234_" fill="#A08D64" d="M34.82,3.36c0.01,0.13,0.01,0.27,0.02,0.4c0.06,0.01,0.11,0.02,0.17,0.03
		c0.23,0.08,0.46,0.11,0.68,0.02c0.06-0.01,0.11-0.03,0.17-0.05c0.1-0.08,0.25-0.03,0.33-0.15L36.2,3.6
		c0.09-0.27-0.14-0.48-0.13-0.73l0,0C36,2.81,35.94,2.75,35.9,2.67l0,0c-0.12-0.1-0.25-0.09-0.37-0.03
		C35.24,2.81,35.14,3.21,34.82,3.36z"/>
	<path id="XMLID_7233_" fill="#E5D2A5" d="M34.93,6.86c0.18,0.02,0.38-0.02,0.5,0.2c0.37-0.33,0.74-0.66,1.1-0.99
		c0.24-0.22,0.52-0.36,0.84-0.4c0.05-0.21-0.03-0.33-0.22-0.38C36.39,5.78,35.58,6.2,34.93,6.86z"/>
	<path id="XMLID_7232_" fill="#C7B180" d="M33.63,10.84c0.13-0.24,0.25-0.47,0.38-0.71c0-0.12,0-0.24,0-0.36
		c-0.04-0.04-0.08-0.06-0.12-0.06c-0.05,0-0.07,0-0.07,0.01c-0.15,0.1-0.27,0.22-0.37,0.38c-0.03,0.19-0.13,0.31-0.32,0.31
		c-0.26,0.02-0.51-0.01-0.77-0.05c-0.41,0.06-0.93-0.43-1.2,0.28c0.01,0.13,0.07,0.23,0.15,0.32c0.12,0.14,0.32,0.18,0.43,0.34
		c0.13,0,0.26,0,0.38,0c0.06-0.2,0.21-0.24,0.38-0.22c0.07,0,0.14-0.01,0.21-0.02c0.21-0.04,0.42-0.06,0.6-0.2
		C33.42,10.86,33.52,10.85,33.63,10.84z"/>
	<path id="XMLID_7231_" fill="#BEAA7D" d="M15.68,24c-0.82,0.21-1.63,0.44-2.41,0.8c0.05,0.11,0.14,0.16,0.24,0.17
		c0.1-0.02,0.2-0.04,0.29,0.03c0.75-0.26,1.53-0.42,2.25-0.79C16.06,23.85,15.86,23.95,15.68,24z"/>
	<path id="XMLID_7230_" fill="#9D8C65" d="M51.8,9.13c0.05,0.06,0.1,0.12,0.15,0.19c0.14-0.02,0.28-0.03,0.41-0.06
		c0.39-0.09,0.53-0.41,0.58-0.79c0.02-0.19-0.15-0.34-0.33-0.3C52.14,8.29,51.84,8.57,51.8,9.13z"/>
	<path id="XMLID_7229_" fill="#8B7A5A" d="M49.83,51.17c0.2,0,0.42,0.03,0.51-0.22c0.08-0.22-0.03-0.42-0.29-0.57
		c-0.46-0.26-0.7-0.22-0.95,0.17c-0.11,0.16-0.06,0.37,0.09,0.47C49.39,51.14,49.61,51.15,49.83,51.17z"/>
	<path id="XMLID_7228_" fill="#B29F7D" d="M49.89,48.72c0.08-0.51,0.25-0.98,0.42-1.45c0.13-0.37,0.22-0.74,0.02-1.12
		c-0.06,0.03-0.1,0.07-0.14,0.13c-0.03,0.06-0.05,0.12-0.06,0.19c-0.01,0.06-0.03,0.13-0.05,0.18c-0.02,0.06-0.04,0.12-0.05,0.18
		l-0.02,0.09l-0.08-0.03c-0.18,0.18-0.17,0.44-0.17,0.67c0,0.26-0.11,0.44-0.28,0.62c-0.21,0.21-0.19,0.22,0.08,0.56
		C49.67,48.83,49.78,48.84,49.89,48.72z"/>
	<path id="XMLID_7227_" fill="#BCAB80" d="M28.02,35.44c-0.14-0.01-0.26,0.04-0.34,0.17l0.01,0c0.13,0.08,0.07,0.27,0.18,0.36
		c-0.01,0.12-0.02,0.23-0.03,0.34c0.27,0.36,0.02,0.56-0.19,0.78c0.05,0.16,0.16,0.26,0.3,0.3c0.27,0.07,0.55,0.12,0.81,0
		c0.09-0.24-0.17-0.31-0.19-0.48c-0.02-0.15,0.01-0.31-0.02-0.45C28.47,36.07,28.28,35.73,28.02,35.44z"/>
	<path id="XMLID_7226_" fill="#B5A376" d="M27.78,32.83c0.07-0.19,0.39-0.2,0.33-0.5c-0.15-0.1-0.28-0.23-0.47-0.25
		c-0.06-0.05-0.12-0.1-0.18-0.15l-0.03-0.02c-0.22-0.12-0.17-0.4-0.3-0.58l0,0c-0.16-0.05-0.24,0.04-0.3,0.18
		c-0.06,0.18-0.06,0.36,0.01,0.54c0.42,0.33,0.3,1.02,0.77,1.32c0.06,0.06,0.11,0.12,0.16,0.18c0.15,0.06,0.23,0.04,0.16-0.15
		C27.86,33.22,27.75,33.04,27.78,32.83z"/>
	<path id="XMLID_7225_" fill="#BDA87B" d="M48,10.01c0.18,0.26,0.35,0.52,0.53,0.79c0.42,0.2,0.69-0.13,0.99-0.33l-0.01-0.03
		c0.06-0.05,0.12-0.09,0.19-0.14l0,0c0.05-0.36,0.05-0.37-0.21-0.39c-0.16-0.01-0.32-0.02-0.48-0.03C48.98,9.93,48.93,9.96,48.9,10
		c-0.26,0.26-0.26,0.26-0.38-0.14C48.34,9.92,48.17,9.97,48,10.01z"/>
	<path id="XMLID_7224_" fill="#786B4E" d="M49.38,33.49c-0.04-0.05-0.09-0.16-0.16-0.25c-0.16-0.2-0.4-0.22-0.61-0.3
		c-0.2-0.07-0.3,0.12-0.4,0.25c-0.12,0.14-0.03,0.28,0.07,0.39c0.15,0.18,0.31,0.35,0.54,0.43C49.08,34.11,49.41,33.84,49.38,33.49z
		"/>
	<path id="XMLID_7223_" fill="#E5D3A5" d="M4.52,27.92c0.4,0.04,0.78-0.12,1.16-0.21c0.46-0.11,0.91-0.3,1.36-0.47
		c0.1-0.04,0.19-0.11,0.36-0.21c-0.39-0.12-0.7,0.02-0.97,0.1c-0.64,0.19-1.33,0.2-1.9,0.63C4.47,27.81,4.46,27.86,4.52,27.92z"/>
	<path id="XMLID_7222_" fill="#8C784A" d="M29.75,35.69c0.18,0.71,0.31,0.78,1.02,0.6c-0.06-0.25,0.24-0.35,0.21-0.58
		c-0.2-0.36-0.5-0.43-0.85-0.36C30.02,35.49,29.68,35.31,29.75,35.69z"/>
	<path id="XMLID_7221_" fill="#C3AF82" d="M33.7,9.04c-0.02-0.26-0.09-0.49-0.37-0.57c-0.33,0.17-0.81,0.12-0.85,0.69
		c-0.02,0.19,0,0.38,0.1,0.54c0.1,0.11,0.22,0.14,0.36,0.14c0.25-0.03,0.52-0.06,0.74-0.22c0.06-0.08,0.07-0.16,0.02-0.25
		C33.69,9.26,33.7,9.15,33.7,9.04z"/>
	<path id="XMLID_7220_" fill="#EAD7AA" d="M32.33,30.32c-0.24,0.12-0.42,0.26-0.76,0.17c-0.48-0.14-1-0.09-1.51-0.12
		c-0.06,0.06-0.06,0.12,0,0.19c0.18,0.1,0.35,0.2,0.55,0.2c0.48,0.01,0.95,0.03,1.41,0.23c0.17,0.07,0.33-0.01,0.42-0.2
		C32.51,30.6,32.43,30.46,32.33,30.32z"/>
	<path id="XMLID_7219_" fill="#E6D2A9" d="M48,11.34c-0.02-0.16-0.04-0.32-0.18-0.42c-0.03,0.08-0.05,0.19-0.1,0.23
		c-0.08,0.07-0.15-0.02-0.19-0.1c-0.07-0.13-0.12-0.28-0.19-0.41c-0.16-0.33-0.35-1.16-0.37-1.56c0-0.08-0.07-0.16-0.11-0.24
		c-0.22,0.12-0.03,0.42-0.2,0.56c-0.07,0.19-0.24,0.36-0.06,0.58c0.44,0.53,0.73,1.15,0.97,1.8c0.01,0.02,0.05,0.03,0.07,0.05
		C47.78,11.71,48.01,11.63,48,11.34z"/>
	<path id="XMLID_7218_" fill="#D6C294" d="M4.52,27.92c0-0.05,0-0.11,0-0.17c-0.17-0.01-0.33-0.02-0.5-0.03
		c-0.1,0.11-0.25,0.06-0.36,0.15c-0.35,0.08-0.7,0.18-1.07,0.17c-0.21-0.01-0.42,0.09-0.63,0.13c-0.09,0.1-0.28,0.14-0.18,0.35
		c0.38-0.06,0.75-0.18,1.14-0.12c0.28,0.05,0.54-0.04,0.8-0.16c0.14-0.07,0.31-0.1,0.47-0.15C4.27,27.99,4.43,28.03,4.52,27.92
		L4.52,27.92z"/>
	<path id="XMLID_7217_" fill="#655A40" d="M62.02,23.38c-0.11,0.15-0.28,0.26-0.2,0.5c0.23,0.16,0.47,0.32,0.71,0.47
		c0.1,0.06,0.22,0.07,0.3-0.05c0.06-0.08,0.01-0.14-0.03-0.22c-0.09-0.18-0.15-0.38-0.21-0.57c-0.09-0.28,0.1-0.28,0.26-0.32
		c-0.04-0.41-0.25-0.5-0.58-0.37c-0.04,0.01-0.09,0.01-0.13-0.01C62.05,22.99,62.05,23.19,62.02,23.38z"/>
	<path id="XMLID_7216_" fill="#B5A380" d="M45.59,29.97c0.03-0.08,0.03-0.19,0.09-0.23c0.09-0.08,0.14,0.04,0.17,0.1
		c0.18,0.37,0.42,0.69,0.74,0.93c0.16,0.05,0.24,0,0.2-0.2l0,0c-0.07-0.06-0.12-0.13-0.15-0.22c-0.07-0.36-0.29-0.63-0.48-0.92
		c-0.16-0.09-0.06-0.34-0.23-0.42c-0.23-0.04-0.39,0.1-0.56,0.24c-0.12,0.22-0.12,0.44-0.01,0.67C45.43,30,45.5,30.02,45.59,29.97z"
		/>
	<path id="XMLID_7215_" fill="#CAB894" d="M44.71,32.1c-0.01-0.54,0.02-1.08,0.21-1.6c0.07-0.17,0.16-0.31,0.34-0.36
		c0.06-0.05,0.09-0.12,0.09-0.2c-0.08-0.31-0.07-0.62-0.06-0.94c-0.06-0.12-0.12-0.23-0.17-0.35c-0.14,0.08-0.18,0.22-0.19,0.38
		c-0.01,0.18-0.02,0.36-0.02,0.55c-0.07,0.11-0.06,0.27-0.14,0.37c0.02,0.43-0.21,0.79-0.27,1.2c-0.05,0.34-0.02,0.64,0.02,0.96
		c0.04,0.05,0.09,0.07,0.13,0.05C44.69,32.14,44.71,32.12,44.71,32.1z"/>
	<path id="XMLID_7214_" fill="#AF9C6E" d="M32.66,9.15c0.02-0.15,0.06-0.3,0.23-0.33c0.21-0.03,0.37-0.13,0.45-0.35
		c-0.13-0.02-0.26-0.06-0.3-0.23c-0.06-0.07-0.12-0.13-0.17-0.2c-0.11,0-0.23,0.01-0.34,0.01c-0.07,0.15-0.15,0.29-0.2,0.45
		c-0.06,0.2-0.15,0.36-0.33,0.45c-0.07,0.05-0.11,0.11-0.11,0.2c0.01,0.04,0.02,0.08,0.02,0.12c0.04,0.07,0.1,0.13,0.17,0.16
		C32.35,9.52,32.52,9.37,32.66,9.15z"/>
	<path id="XMLID_7213_" fill="#958458" d="M18.5,22.85c0.05,0.01,0.11,0.01,0.16,0.01c0.07-0.05,0.08-0.11,0.01-0.18
		c0.31-0.53,0.63-1.07,0.94-1.6c0-0.17-0.07-0.25-0.23-0.21c-0.27,0.33-0.51,0.69-0.85,0.95c-0.13,0.1-0.25,0.23-0.24,0.43
		C18.33,22.47,18.28,22.71,18.5,22.85z"/>
	<path id="XMLID_7212_" fill="#BCAA8A" d="M51.87,51.05c0.01-0.06,0.02-0.13,0.03-0.19c-0.06-0.33-0.1-0.67-0.17-0.99
		c-0.1-0.44-0.15-0.91-0.46-1.26c-0.16,0.25-0.12,0.51-0.03,0.77c0.02,0.2,0.06,0.41,0.05,0.61C51.27,50.47,51.45,50.83,51.87,51.05
		z"/>
	<path id="XMLID_7211_" fill="#897749" d="M31.48,28.48c0.02,0.41,0.13,0.56,0.46,0.64c0.14,0.03,0.28,0.05,0.4-0.07
		c0.14-0.13,0.05-0.28,0.02-0.42c-0.06-0.28-0.14-0.53-0.47-0.55C31.59,28.06,31.47,28.17,31.48,28.48z"/>
	<path id="XMLID_7210_" fill="#9D8B67" d="M64.34,17.39c-0.15-0.26-0.39-0.4-0.63-0.56c-0.16-0.1-0.37,0-0.37,0.19
		c-0.01,0.32-0.09,0.66,0.11,0.95C63.97,18.15,64.31,18.04,64.34,17.39z"/>
	<path id="XMLID_7209_" fill="#E5D2A7" d="M29.75,35.69c0.13-0.11,0.25-0.22,0.38-0.34c-0.42-0.02-0.76-0.2-1.03-0.53
		c-0.39-0.47-0.78-0.95-1.17-1.42c-0.05,0.05-0.11,0.1-0.16,0.15c0.37,0.72,0.88,1.3,1.51,1.76C29.44,35.43,29.59,35.56,29.75,35.69
		z"/>
	<path id="XMLID_7208_" fill="#C3AF81" d="M15.68,24c0.14,0.03,0.29,0.05,0.37,0.21c0.08,0,0.17,0.03,0.24,0
		c0.44-0.14,0.88-0.3,1.32-0.45c-0.11-0.07-0.29-0.06-0.24-0.29c0.05-0.21,0.07-0.42,0.11-0.63c-0.05,0.03-0.13,0.04-0.14,0.08
		c-0.09,0.44-0.36,0.6-0.74,0.7C16.28,23.71,15.98,23.87,15.68,24z"/>
	<path id="XMLID_7207_" fill="#DCC89D" d="M47.91,26.93c0.01-0.49,0.03-0.99,0.04-1.48l0.01,0.01c-0.16-0.01-0.29,0.04-0.34,0.22
		c0.12,0.21-0.1,0.33-0.12,0.5c0,0.08,0.02,0.15,0.07,0.21c-0.01,0.36-0.01,0.72-0.02,1.09c-0.03,0.23-0.03,0.45,0.2,0.58
		c0.18-0.18,0.36-0.34,0.53-0.53c0.14-0.16,0.09-0.25-0.2-0.4C47.95,27.13,47.91,27.05,47.91,26.93z"/>
	<path id="XMLID_7206_" fill="#D1BF99" d="M55.95,19.93c0.11,0.46,0.22,0.93,0.34,1.39c0.02,0.07,0.11,0.12,0.17,0.17
		c0.03-0.08,0.09-0.16,0.08-0.22c-0.06-0.29-0.16-0.58-0.23-0.87c-0.05-0.21-0.09-0.42,0.09-0.58c0.07-0.07,0.09-0.15,0.02-0.22
		c-0.26-0.28-0.03-0.49,0.06-0.73c0.09-0.2,0.14-0.39-0.17-0.38c-0.11,0.19-0.23,0.37-0.34,0.55C55.91,19.34,56,19.64,55.95,19.93z"
		/>
	<path id="XMLID_7205_" fill="#8C7C5D" d="M54.79,51.9c0.25,0.42,0.65,0.4,1.02,0.39c0.2,0,0.38-0.44,0.29-0.65
		c-0.07-0.16-0.18-0.3-0.28-0.44C55.28,51.1,55.22,51.82,54.79,51.9z"/>
	<path id="XMLID_7204_" fill="#9C8A61" d="M38.56,8.01c-0.04,0.17,0.34,0.54,0.52,0.49c0.11-0.02,0.21-0.09,0.31-0.14
		c0.2-0.1,0.32-0.26,0.28-0.5c-0.04-0.27-0.28-0.27-0.46-0.32C39.02,7.48,38.61,7.81,38.56,8.01z"/>
	<path id="XMLID_7203_" fill="#907F57" d="M34.57,27.8c0.14-0.07,0.15-0.22,0.18-0.35c-0.02-0.05-0.01-0.11,0.01-0.16
		c0.09-0.13,0.09-0.25-0.01-0.38c-0.04-0.03-0.08-0.04-0.13-0.05c-0.04,0.01-0.07,0.02-0.11,0.03c-0.23,0.22-0.43,0.23-0.58-0.12
		c0-0.04,0-0.08-0.01-0.12c-0.06-0.06-0.12-0.13-0.18-0.19c-0.12-0.09-0.23-0.1-0.35,0.01c-0.02,0.41,0.02,0.77,0.34,1.07
		c0.2,0.18,0.35,0.27,0.59,0.16C34.4,27.68,34.49,27.77,34.57,27.8z"/>
	<path id="XMLID_7202_" fill="#E4D1A3" d="M28.83,31.4c0.46,0.06,0.89,0.3,1.37,0.27c0.21,0.06,0.46,0.28,0.52-0.17
		c-0.45-0.27-0.98-0.27-1.45-0.44c-0.17-0.07-0.3-0.16-0.37-0.34c-0.01-0.03-0.03-0.06-0.04-0.09c-0.06-0.03-0.12-0.02-0.17,0.04
		l0,0.01C28.51,30.96,28.69,31.18,28.83,31.4z"/>
	<path id="XMLID_7201_" fill="#AC9A72" d="M34.27,19.34c0.06,0.07,0.13,0.15,0.19,0.22c0.86-0.01,1.69-0.21,2.53-0.32
		c0.07-0.09,0.11-0.2,0.03-0.3c-0.1-0.13-0.22-0.13-0.35-0.04l0,0c-0.21,0.19-0.49-0.01-0.71,0.13c-0.39,0.06-0.78,0.12-1.17,0.18
		C34.64,19.33,34.42,19.19,34.27,19.34L34.27,19.34z"/>
	<path id="XMLID_7200_" fill="#EDDAB5" d="M27.9,21.44c0.08,0.3,0.36,0.38,0.55,0.55c0.59,0.53,1.19,1.05,1.79,1.57
		c0.07-0.05,0.17-0.07,0.18-0.18c-0.1-0.24-0.32-0.33-0.5-0.48c-0.43-0.35-0.85-0.71-1.27-1.06C28.43,21.65,28.19,21.48,27.9,21.44
		L27.9,21.44z"/>
	<path id="XMLID_7199_" fill="#D3C197" d="M33.41,26.48c0.12,0,0.23,0,0.35-0.01c-0.34-0.36-0.69-0.72-1.03-1.09
		c-0.26-0.28-0.48-0.61-0.81-0.81c-0.3-0.03-0.29,0.13-0.17,0.34C32.3,25.44,32.85,25.96,33.41,26.48z"/>
	<path id="XMLID_7198_" fill="#C8B382" d="M37.36,45.41c0.06-0.19,0.12-0.37,0.18-0.56c-0.22,0.05-0.45,0.17-0.65,0.14
		c-0.48-0.08-0.71,0.21-0.91,0.58c0.05,0.26,0.19,0.29,0.38,0.16C36.69,45.62,37.02,45.52,37.36,45.41z"/>
	<path id="XMLID_7197_" fill="#BCA87A" d="M26.96,31.52c0.06-0.06,0.12-0.12,0.18-0.18c-0.01-0.07-0.01-0.15-0.02-0.22
		c-0.11-0.23-0.28-0.36-0.52-0.37c-0.14,0.08-0.26,0.17-0.32,0.34c0.2,0.18,0.17,0.43,0.15,0.65c-0.04,0.41,0.09,0.74,0.33,1.05
		c0.14-0.07,0.17-0.21,0.19-0.36c0.06-0.06,0.07-0.12,0.04-0.2C26.82,32,26.81,31.76,26.96,31.52z"/>
	<path id="XMLID_7196_" fill="#D0B988" d="M32.66,9.15c-0.22,0.12-0.44,0.2-0.69,0.15l0,0.01c0-0.07-0.01-0.13-0.01-0.2
		c-0.68-0.2-0.25,0.57-0.53,0.72c-0.06,0.01-0.11,0.03-0.17,0.04c0.17,0.51,0.54,0.42,0.9,0.35c0.23-0.1,0.43-0.24,0.48-0.54
		C32.65,9.51,32.65,9.33,32.66,9.15z"/>
	<path id="XMLID_7195_" fill="#6C6043" d="M60.42,24.93c0.03,0.08,0.04,0.18,0.09,0.25c0.35,0.45,0.64,0.45,0.94,0.01
		c0.22-0.32,0.12-0.54-0.28-0.61c-0.08-0.01-0.17,0.01-0.25,0.02C60.76,24.7,60.51,24.68,60.42,24.93z"/>
	<path id="XMLID_7194_" fill="#E2CDA0" d="M17.07,36.93c-0.19,0.12-0.39,0.24-0.63,0.12c-0.14-0.07-0.2,0.04-0.25,0.15
		c-0.06,0.12-0.06,0.23,0.04,0.32c0.09,0.09,0.19,0.11,0.31,0.04c0.09-0.06,0.18-0.14,0.33-0.1c-0.05,0.31-0.1,0.63-0.16,0.94
		c0.08,0.14,0.15,0.3,0.34,0.18c-0.07-0.39,0.16-0.72,0.19-1.09C17.15,37.33,17.29,37.07,17.07,36.93z"/>
	<path id="XMLID_7193_" fill="#746645" d="M50.16,32.52c-0.15,0.04-0.32,0.04-0.4,0.22c0.08,0.41,0.38,0.58,0.7,0.74
		c0.09-0.1,0.26-0.06,0.34-0.19c0.17-0.35,0.15-0.42-0.02-0.59C50.6,32.52,50.38,32.56,50.16,32.52z"/>
	<path id="XMLID_7192_" fill="#B29D69" d="M32.13,10.06c-0.32,0.13-0.6,0.02-0.86-0.19c-0.36-0.06-0.5,0.25-0.69,0.47
		c0.12,0.2,0.31,0.3,0.48,0.43c0.07,0.02,0.14,0.01,0.19-0.04c0.03-0.15,0.05-0.37,0.23-0.29c0.27,0.14,0.56-0.01,0.82,0.15
		c0.05-0.05,0.08-0.12,0.08-0.2C32.36,10.23,32.26,10.13,32.13,10.06z"/>
	<path id="XMLID_7191_" fill="#A79368" d="M37.15,5.29c0.07,0.13,0.15,0.25,0.22,0.38c0.11-0.06,0.22-0.11,0.34-0.17
		c0.17-0.09,0.37,0,0.53-0.13l0.01,0c0.02-0.06,0.02-0.13-0.01-0.17c-0.09-0.13-0.54-0.13-0.14-0.44c-0.36-0.33-0.53-0.34-0.72-0.03
		C37.26,4.89,37.22,5.1,37.15,5.29z"/>
	<path id="XMLID_7190_" fill="#8E7F59" d="M32.75,2.34c-0.01,0.29,0.17,0.45,0.38,0.38c0.57-0.17,0.65-0.45,0.25-0.94
		c-0.16-0.2-0.46-0.16-0.53,0.08C32.79,2.03,32.77,2.21,32.75,2.34z"/>
	<path id="XMLID_7189_" fill="#9B8864" d="M54.79,51.9c0.11,0,0.22,0.01,0.33,0.01c0.11,0,0.23,0,0.25-0.15
		c0.03-0.31,0.25-0.43,0.46-0.56c-0.05-0.19-0.15-0.34-0.34-0.32c-0.21,0.02-0.42,0.09-0.63,0.13
		C54.72,51.31,54.82,51.61,54.79,51.9z"/>
	<path id="XMLID_7188_" fill="#AA966E" d="M47.82,30.25c0.11,0,0.22,0.01,0.33,0.02c0.06,0.06,0.11,0.12,0.18,0.17
		c0.06,0,0.11,0.01,0.17,0.01c0.14-0.25,0.23-0.49-0.16-0.57l0,0c-0.24,0.18-0.34-0.11-0.5-0.18l0.03-0.04
		c-0.26-0.23-0.5-0.49-0.87-0.49c-0.13,0.05-0.22,0.12-0.18,0.29c0.16,0.19,0.32,0.39,0.49,0.58
		C47.46,30.17,47.63,30.24,47.82,30.25z"/>
	<path id="XMLID_7187_" fill="#B9A579" d="M28.82,11.54c0,0.13,0.01,0.25,0.01,0.38c0.24,0.04,0.43-0.1,0.61-0.22
		c0.34-0.22,0.71-0.3,1.1-0.25c0.06-0.06,0.08-0.13,0.05-0.21c-0.1-0.17-0.22-0.33-0.42-0.39C29.68,10.97,29.29,11.35,28.82,11.54z"
		/>
	<path id="XMLID_7186_" fill="#CBB686" d="M18.67,22.68c0,0.06-0.01,0.12-0.01,0.18c0.17,0.05,0.38-0.01,0.49,0.2
		c0.62-0.11,1.18-0.39,1.77-0.61c-0.02-0.14-0.1-0.22-0.23-0.25c-0.4,0.12-0.8,0.24-1.2,0.37C19.22,22.66,18.95,22.72,18.67,22.68z"
		/>
	<path id="XMLID_7185_" fill="#BCA97B" d="M20.69,22.2c0.08,0.08,0.15,0.17,0.23,0.25c0.1-0.02,0.21-0.04,0.31-0.06
		c0.06-0.05,0.13-0.08,0.21-0.11c0.45-0.18,0.95-0.22,1.38-0.49c-0.14-0.04-0.29-0.05-0.37-0.22c-0.52,0.16-1.04,0.32-1.55,0.48
		c-0.06,0.05-0.11,0.13-0.19,0.15L20.69,22.2z"/>
	<path id="XMLID_7184_" fill="#716238" d="M27.66,37.09c0.11,0.01,0.22,0.03,0.33,0.02c0.25-0.03,0.34-0.13,0.36-0.37
		c0.02-0.26-0.11-0.37-0.34-0.39c-0.05,0-0.1-0.03-0.16-0.04c-0.08,0.01-0.18-0.01-0.25,0.03c-0.24,0.11-0.3,0.27-0.18,0.49
		C27.48,36.93,27.57,37,27.66,37.09z"/>
	<path id="XMLID_7183_" fill="#D1BF95" d="M19.38,20.87c0.08,0.07,0.15,0.14,0.23,0.21c0.34-0.54,0.68-1.07,1.01-1.61
		c-0.06-0.07-0.12-0.14-0.18-0.21c-0.25,0.15-0.44,0.37-0.58,0.64C19.71,20.23,19.55,20.55,19.38,20.87z"/>
	<path id="XMLID_7182_" fill="#B2A27F" d="M58.81,21.35c-0.01-0.05-0.01-0.1,0-0.15c-0.17-0.06-0.38-0.04-0.51-0.23
		c-0.18-0.16-0.36-0.19-0.53,0.01c0.25,0.61,0.69,1.09,1.01,1.65c0.16,0.06,0.23,0.01,0.19-0.18c-0.14-0.26-0.28-0.51-0.41-0.77
		C58.44,21.47,58.46,21.43,58.81,21.35z"/>
	<path id="XMLID_7181_" fill="#E8D4B2" d="M47,29.25c0.29,0.14,0.58,0.27,0.86,0.41c0.1-0.12,0.24-0.13,0.38-0.12
		c0.17,0,0.33,0.01,0.45-0.14c-0.11-0.01-0.22-0.04-0.33-0.02c-0.63,0.08-1.08-0.2-1.37-0.8c-0.05-0.1-0.14-0.16-0.24-0.2
		c-0.13-0.05-0.26-0.09-0.4-0.04c-0.01,0.07-0.02,0.14-0.03,0.2C46.32,29.03,46.68,29.11,47,29.25z"/>
	<path id="XMLID_7180_" fill="#D9C79D" d="M45.5,14.52c-0.51,0.65-1.02,1.29-1.28,2.11c0.04,0.06,0.08,0.09,0.13,0.08
		c0.05-0.01,0.08-0.02,0.08-0.04c0.04-0.04,0.1-0.07,0.12-0.12c0.33-0.65,0.68-1.28,1.13-1.83C45.73,14.54,45.65,14.49,45.5,14.52z"
		/>
	<path id="XMLID_7179_" fill="#A59678" d="M54.36,48.57c0,0.57,0.13,1.18,0.32,1.44c0.04,0.06,0.14,0.07,0.22,0.08
		c0.02,0,0.07-0.1,0.06-0.15c-0.06-0.47-0.14-0.93-0.06-1.4c0.01-0.05-0.1-0.13-0.16-0.19c-0.06,0-0.12,0.02-0.17,0.05
		C54.5,48.46,54.43,48.51,54.36,48.57z"/>
	<path id="XMLID_7178_" fill="#575036" d="M62.26,22.82c0.23,0.06,0.43,0.16,0.58,0.37c0.21,0.04,0.45,0.14,0.59-0.12
		c0.14-0.27-0.11-0.41-0.23-0.59c-0.23-0.32-0.43-0.1-0.64,0c-0.09,0.05-0.18,0.09-0.26,0.14C62.23,22.68,62.21,22.74,62.26,22.82z"
		/>
	<path id="XMLID_7177_" fill="#C4B183" d="M18.16,34.65c0.01,0.15-0.03,0.35,0.09,0.41c0.47,0.24,0.86,0.67,1.41,0.71
		c0.12-0.11,0.11-0.23,0.01-0.35c-0.37-0.21-0.72-0.49-1.16-0.44c0-0.04-0.01-0.11,0.01-0.13c0.04-0.03,0.1-0.04,0.16-0.05
		c0.05-0.06,0.06-0.13,0.03-0.2c-0.12-0.12-0.25-0.14-0.4-0.11C18.24,34.53,18.19,34.58,18.16,34.65z"/>
	<path id="XMLID_7176_" fill="#E3D0A6" d="M45.5,14.52c0.06,0.07,0.12,0.14,0.18,0.2c0.35-0.25,0.54-0.67,0.81-1.01
		c0.2-0.25,0.42-0.47,0.59-0.75c-0.03-0.2-0.14-0.28-0.32-0.27c-0.03,0.18-0.09,0.34-0.21,0.47C46.14,13.57,45.84,14.06,45.5,14.52z
		"/>
	<path id="XMLID_7175_" fill="#E5D2A8" d="M49.83,10.86c0,0.11-0.01,0.22-0.01,0.34c0.46-0.13,0.9-0.34,1.39-0.29
		c0.25,0.02,0.47-0.13,0.7-0.25c-0.38-0.13-0.76-0.17-1.13-0.06c-0.25,0.07-0.5,0.09-0.75,0.08C49.96,10.74,49.86,10.75,49.83,10.86
		z"/>
	<path id="XMLID_7174_" fill="#908261" d="M59.34,19.33c-0.05-0.06-0.09-0.11-0.14-0.17c-0.05-0.07-0.13-0.13-0.15-0.21
		c-0.07-0.32-0.25-0.45-0.55-0.43c-0.13,0.01-0.27-0.02-0.4,0.01c-0.03,0-0.04,0.15-0.06,0.23c0.16,0,0.33,0,0.47,0.12
		c0.28,0.22,0.32,0.38,0.16,0.82l0,0c0.17,0.09,0.32,0.22,0.52,0.19c-0.01-0.05-0.01-0.1-0.02-0.15c-0.15-0.08-0.15-0.16-0.01-0.24
		c0.07-0.02,0.13-0.07,0.16-0.15L59.34,19.33z"/>
	<path id="XMLID_7173_" fill="#AE9B73" d="M52.6,10.77c0.22,0.02,0.44,0.07,0.65-0.07c0.19-0.12,0.2-0.38,0.03-0.52
		c-0.17-0.13-0.36-0.17-0.56-0.15c-0.21,0.01-0.36,0.13-0.45,0.34c0.02,0.09,0.08,0.16,0.14,0.22l0,0
		C52.47,10.66,52.53,10.73,52.6,10.77z"/>
	<path id="XMLID_7172_" fill="#EBD8AB" d="M33.69,9.37l-0.01,0.08l0,0.08c0.04,0.09,0.1,0.13,0.19,0.13
		c0.16-0.01,0.33,0.06,0.48-0.07c0.16-0.05,0.35-0.06,0.47-0.15c0.27-0.21,0.72-0.05,0.89-0.47c-0.38-0.16-0.7,0.12-1.06,0.14
		C34.33,9.14,34.01,9.28,33.69,9.37z"/>
	<path id="XMLID_7171_" fill="#C5B188" d="M49.4,6.69c0.21-0.14,0.42-0.27,0.63-0.42c0.1-0.07,0.13-0.19,0.07-0.32
		c-0.07-0.15-0.19-0.24-0.34-0.21c-0.13,0.03-0.26,0.11-0.38,0.18c-0.23,0.15-0.25,0.26-0.1,0.6C49.3,6.58,49.35,6.62,49.4,6.69z"/>
	<path id="XMLID_7170_" fill="#A59165" d="M17.05,38.59c-0.11-0.06-0.23-0.12-0.34-0.18c-0.14,0.22-0.19,0.43-0.01,0.66
		c0.15,0.19,0.31,0.35,0.53,0.44c0.08,0.03,0.18,0.02,0.22-0.06c0.04-0.07,0.08-0.17,0.06-0.24c-0.03-0.11-0.09-0.22-0.16-0.31
		C17.26,38.79,17.15,38.69,17.05,38.59z"/>
	<path id="XMLID_7169_" fill="#F6E4BB" d="M38.14,8.2c-0.02-0.01-0.05-0.03-0.07-0.03c-0.54,0.14-1.08,0.29-1.62,0.43
		c-0.11,0.03-0.26,0.08-0.23,0.22c0.04,0.18,0.22,0.14,0.35,0.11c0.16-0.03,0.33-0.09,0.48-0.15c0.36-0.14,0.73-0.29,1.09-0.44
		c0.02-0.01,0.03-0.05,0.03-0.08C38.18,8.24,38.16,8.22,38.14,8.2z"/>
	<path id="XMLID_7168_" fill="#9B8B68" d="M58.01,25.18c-0.09,0.2-0.13,0.41-0.01,0.61c0.06,0.1,0.13,0.23,0.22,0.26
		c0.13,0.05,0.16-0.11,0.21-0.21c0.09-0.16,0.22-0.14,0.37-0.1c0.08,0.03,0.17,0.04,0.23-0.06c-0.15-0.4-0.51-0.52-0.84-0.67
		C58.09,25.02,58.07,25.12,58.01,25.18z"/>
	<path id="XMLID_7167_" fill="#BBA782" d="M46.91,31.17c0.03,0.21,0.04,0.42,0.09,0.63c0.08,0.34,0.16,0.38,0.72,0.47
		c-0.17-0.53-0.29-1.05-0.76-1.37C46.87,30.98,46.85,31.07,46.91,31.17z"/>
	<path id="XMLID_7166_" fill="#A49272" d="M47.42,34.42c0.08-0.04,0.14-0.11,0.13-0.21c-0.02-0.08-0.05-0.18-0.11-0.24
		c-0.16-0.17-0.33-0.34-0.51-0.49c-0.1-0.09-0.24-0.22-0.36-0.03c-0.08,0.13-0.09,0.3-0.02,0.44
		C46.68,34.12,47.17,34.41,47.42,34.42z"/>
	<path id="XMLID_7165_" fill="#7B6C41" d="M17.17,27.74c0.36-0.03,0.36-0.03,0.36-0.51c-0.06-0.07-0.12-0.15-0.18-0.22
		c-0.23-0.1-0.39-0.37-0.67-0.37c-0.25,0.4-0.27,0.46,0.03,0.62C16.92,27.37,17.07,27.52,17.17,27.74z"/>
	<path id="XMLID_7164_" fill="#A18E63" d="M44.04,18.67c-0.07-0.12-0.14-0.24-0.2-0.36c-0.13-0.09,0.04-0.46-0.29-0.37
		c-0.27,0.16-0.4,0.46-0.61,0.68c0.03,0.01,0.07,0.02,0.1,0.03c0.15,0.29,0.42,0.36,0.67,0.46c0.16,0.02,0.32,0.05,0.47-0.01
		C44.32,18.89,44.14,18.79,44.04,18.67z"/>
	<path id="XMLID_7163_" fill="#D3BC8B" d="M39.2,47.32c-0.09,0.66,0.02,1.28,0.24,1.9c0.13-0.02,0.21-0.1,0.23-0.24
		c-0.13-0.21-0.19-0.43-0.17-0.69c0.02-0.33,0.02-0.67,0.03-1c0-0.24,0.03-0.49-0.13-0.7C39.17,46.78,39.38,47.11,39.2,47.32z"/>
	<path id="XMLID_7162_" fill="#96814E" d="M30.18,10.84c0.02,0.24,0.13,0.41,0.37,0.45c0.31,0.16,0.46-0.04,0.58-0.29
		c0.02-0.09,0.01-0.17-0.03-0.25c-0.02-0.37-0.26-0.4-0.52-0.41C30.37,10.45,30.31,10.67,30.18,10.84z"/>
	<path id="XMLID_7161_" fill="#E3D0A7" d="M31.74,24.92c0-0.15,0.03-0.28,0.17-0.34c-0.41-0.39-0.89-0.67-1.26-1.11
		c-0.05-0.05-0.15-0.06-0.23-0.08c-0.06,0.06-0.12,0.12-0.18,0.18C30.81,23.93,31.22,24.5,31.74,24.92z"/>
	<path id="XMLID_7160_" fill="#897953" d="M42.28,47.86c0.08-0.01,0.2-0.01,0.3-0.04c0.16-0.04,0.2-0.18,0.18-0.34
		c-0.02-0.18-0.11-0.34-0.23-0.47c-0.09-0.1-0.22-0.13-0.3-0.06c-0.19,0.17-0.33,0.4-0.3,0.68C41.95,47.81,42.11,47.84,42.28,47.86z
		"/>
	<path id="XMLID_7159_" fill="#776944" d="M36.08,47.87c-0.01,0.28,0.19,0.44,0.45,0.36c0.16-0.06,0.33-0.13,0.38-0.32
		c0.06-0.21-0.25-0.65-0.47-0.66c-0.07-0.01-0.16,0.06-0.21,0.12C36.1,47.55,36.09,47.62,36.08,47.87z"/>
	<path id="XMLID_7158_" fill="#6E5D38" d="M57.76,20.99c0.18,0,0.35-0.01,0.53-0.01c0.02-0.02,0.06-0.05,0.06-0.06
		c-0.11-0.34-0.23-0.68-0.54-0.89l-0.08,0.02c-0.04,0.03-0.09,0.05-0.14,0.07c-0.05,0.01-0.09,0.04-0.13,0.08
		c-0.13,0.07-0.17,0.2-0.17,0.35c0.07,0.14,0.25,0.09,0.32,0.23C57.66,20.85,57.71,20.92,57.76,20.99z"/>
	<path id="XMLID_7157_" fill="#C6B388" d="M36.67,18.9c0.18,0.03,0.32,0.11,0.32,0.34c0.26,0.06,0.49-0.09,0.73-0.15
		c0.18-0.05,0.32-0.05,0.47,0.07c0.01-0.19,0.01-0.38,0.02-0.57C37.69,18.68,37.16,18.67,36.67,18.9z"/>
	<path id="XMLID_7156_" fill="#D4C19D" d="M49.68,44.67c-0.7-0.35-1.29-0.94-2.03-1.21c-0.07,0.07-0.07,0.14-0.01,0.22
		c0.57,0.48,1.22,0.82,1.86,1.18C49.56,44.8,49.66,44.78,49.68,44.67z"/>
	<path id="XMLID_7155_" fill="#A1916E" d="M52.29,48.31c-0.05-0.01-0.1-0.02-0.15-0.02c-0.1,0.11-0.1,0.24-0.02,0.37
		c0.17,0.13,0.34,0.26,0.51,0.39c0.16,0.14,0.34,0.13,0.52,0.07c0.1-0.04,0.24-0.04,0.26-0.17c0.03-0.17-0.07-0.3-0.2-0.35
		c-0.18-0.07-0.38-0.08-0.56-0.12C52.54,48.38,52.39,48.4,52.29,48.31z"/>
	<path id="XMLID_7154_" fill="#B6A16D" d="M18.69,34.63c0,0.06,0,0.11,0,0.17c0.25,0.03,0.49,0.1,0.75-0.03
		c-0.23-0.62-0.69-0.76-1.23-0.74c-0.05-0.05-0.09-0.07-0.13-0.04c-0.04,0.02-0.05,0.04-0.06,0.06C18,34.27,18,34.48,18.16,34.65
		c0.01-0.03,0.02-0.06,0.03-0.08C18.38,34.43,18.54,34.45,18.69,34.63z"/>
	<path id="XMLID_7153_" fill="#BBA782" d="M34.76,26.91c0,0.13,0.01,0.25,0.01,0.38c0.56,0.02,1.12,0.03,1.68,0.05
		c0-0.12,0.01-0.23,0.01-0.35C35.89,26.96,35.33,26.93,34.76,26.91z"/>
	<path id="XMLID_7152_" fill="#AE9E79" d="M51.25,28.94c0.31,0.38,0.62,0.04,0.92-0.01c0.09-0.02,0.08-0.15,0.06-0.23
		c-0.1-0.49-0.28-0.57-0.79-0.34C51.3,28.52,51.33,28.76,51.25,28.94z"/>
	<path id="XMLID_7151_" fill="#B2A075" d="M1.78,28.53c0.06-0.12,0.12-0.24,0.18-0.35c-0.45-0.05-0.9-0.09-1.34,0.09
		c-0.05,0.02-0.13,0.09-0.12,0.11c0.02,0.08,0.07,0.19,0.13,0.21c0.13,0.06,0.27,0.1,0.41,0.09C1.28,28.66,1.53,28.59,1.78,28.53z"
		/>
	<path id="XMLID_7150_" fill="#927F57" d="M58.45,48.55c-0.09,0.06-0.18,0.14-0.28,0.19c-0.2,0.09-0.32,0.26-0.25,0.49
		c0.07,0.25,0.25,0.38,0.5,0.28C58.99,49.22,59.03,48.9,58.45,48.55z"/>
	<path id="XMLID_7149_" fill="#DBCDA4" d="M18.75,38.15c0.03-0.21-0.01-0.42-0.07-0.63c-0.16-0.54-0.3-1.09-0.47-1.68
		c-0.12,0.42-0.12,0.78,0.04,1.11c0.18,0.37,0.18,0.76,0.16,1.15C18.53,38.22,18.63,38.24,18.75,38.15z"/>
	<path id="XMLID_7148_" fill="#9C8C68" d="M38.51,13.45c0.28,0.07,0.54-0.06,0.59-0.32c0.05-0.27-0.17-0.48-0.41-0.6
		c-0.05-0.03-0.1-0.04-0.15-0.06c-0.23-0.09-0.31-0.02-0.36,0.38c-0.04,0.05-0.06,0.11-0.07,0.17c0.02,0.06,0.05,0.1,0.11,0.13
		c0.05,0.01,0.11,0.02,0.16,0.02c0.05,0.03,0.08,0.07,0.07,0.13C38.45,13.35,38.47,13.41,38.51,13.45z"/>
	<path id="XMLID_7147_" fill="#4F4E33" d="M37.77,49.1c-0.11-0.01-0.23-0.01-0.34-0.02c-0.25,0.53-0.17,0.75,0.31,0.79
		c0.14,0.01,0.28,0,0.41-0.03c0.09-0.02,0.13-0.14,0.07-0.21C38.08,49.44,37.92,49.27,37.77,49.1z"/>
	<path id="XMLID_7146_" fill="#7A6C50" d="M56.03,43.69c0.14,0,0.28,0.02,0.42-0.01c0.34-0.05,0.46-0.33,0.27-0.65
		c-0.07-0.13-0.17-0.25-0.27-0.35c-0.17-0.18-0.3-0.07-0.41,0.08C56.03,43.07,56.06,43.38,56.03,43.69z"/>
	<path id="XMLID_7145_" fill="#91825D" d="M39.67,48.97c-0.12,0.04-0.18,0.13-0.23,0.24c0.02,0.12,0.01,0.25,0.05,0.35
		c0.16,0.36,0.34,0.42,0.67,0.23c0.16-0.09,0.16-0.22,0.1-0.37C40.15,49.14,39.88,49.1,39.67,48.97z"/>
	<path id="XMLID_7144_" fill="#98865D" d="M39.62,10.73c-0.29-0.04-0.18-0.39-0.35-0.53c-0.28,0.17-0.56,0.34-0.84,0.51
		c-0.09,0.06-0.09,0.11,0.01,0.16c0.2,0.11,0.4,0.28,0.65,0.2C39.22,10.88,39.67,11.25,39.62,10.73z"/>
	<path id="XMLID_7143_" fill="#887B5F" d="M54.17,43.21c0.44-0.01,0.62-0.32,0.42-0.73c-0.11-0.21-0.32-0.23-0.46-0.04
		c-0.07,0.09-0.14,0.19-0.21,0.28c-0.07,0.09-0.16,0.18-0.11,0.32C53.88,43.22,54.04,43.18,54.17,43.21z"/>
	<path id="XMLID_7142_" fill="#837350" d="M50.64,26.32c0.03-0.31-0.04-0.57-0.32-0.73c-0.11,0.07-0.22,0.01-0.33-0.01
		c-0.08,0.11-0.19,0.2-0.25,0.32c-0.16,0.29-0.14,0.32,0.24,0.55C50.18,26.31,50.45,26.52,50.64,26.32z"/>
	<path id="XMLID_7141_" fill="#A18E6A" d="M51,45.66c-0.06,0-0.12,0-0.18,0c-0.02,0.56-0.09,1.12,0.12,1.66
		c0.04,0.04,0.09,0.06,0.14,0.06c0.05-0.01,0.07-0.02,0.08-0.03c0.04-0.18,0.17-0.3,0.24-0.46c-0.02-0.22,0.05-0.45-0.08-0.66h-0.02
		C51.25,46.02,51.22,45.77,51,45.66z"/>
	<path id="XMLID_7140_" fill="#9F9068" d="M39.94,36.87c-0.29,0.56-0.35,1.19-0.39,1.82c-0.05,0.18,0.02,0.24,0.18,0.2
		c0.14-0.54,0.27-1.08,0.4-1.63C40.02,37.15,40.11,36.94,39.94,36.87z"/>
	<path id="XMLID_7139_" fill="#B0A078" d="M46.69,28.52c0.1,0.01,0.21,0.03,0.31,0.04c0.13,0,0.25,0,0.38,0
		c0.12-0.17,0.25-0.34,0.37-0.51c-0.04-0.2,0-0.44-0.2-0.58c-0.13,0.01-0.26,0.02-0.36,0.14C47.24,28.07,46.68,28.11,46.69,28.52z"
		/>
	<path id="XMLID_7138_" fill="#7C7050" d="M44.71,32.1c-0.06,0-0.13,0-0.19,0.01c-0.06,0.06-0.12,0.12-0.19,0.18
		c-0.15,0.11-0.23,0.23-0.13,0.45c0.21,0.45,0.2,0.45,0.67,0.14C44.85,32.61,44.87,32.34,44.71,32.1z"/>
	<path id="XMLID_7137_" fill="#C0B08B" d="M39.73,38.88c-0.06-0.07-0.12-0.13-0.18-0.2c-0.27,0.38-0.32,0.81-0.18,1.27
		c-0.16,0.22,0.01,0.54-0.18,0.76l-0.01,0.09l0.01,0.09c0.06,0.07,0.07,0.19,0.17,0.22c0.17-0.19,0.16-0.43,0.16-0.67
		C39.52,39.91,39.62,39.4,39.73,38.88z"/>
	<path id="XMLID_7136_" fill="#E8D2A4" d="M31.43,9.83c0.14-0.08,0.19-0.22,0.2-0.38c0.02-0.22,0.14-0.32,0.33-0.34
		c0.02-0.05,0.03-0.1,0.03-0.16c-0.18-0.36-0.16-0.74-0.16-1.12c-0.12,0.12-0.23,0.23-0.34,0.35C31.47,8.73,31.45,9.28,31.43,9.83z"
		/>
	<path id="XMLID_7135_" fill="#DECB9B" d="M20.92,27.57c-0.07,0.07-0.13,0.13-0.2,0.2c0.48,0.3,1,0.5,1.54,0.61
		c0.17,0.07,0.21-0.01,0.17-0.18C21.94,27.94,21.46,27.66,20.92,27.57z"/>
	<path id="XMLID_7134_" fill="#897A51" d="M18.75,38.15c-0.11-0.01-0.22-0.03-0.33-0.04c-0.22,0.05-0.36,0.17-0.33,0.43
		c0.04,0.25,0.3,0.52,0.51,0.52c0.16,0,0.25-0.16,0.25-0.3C18.86,38.56,18.79,38.35,18.75,38.15z"/>
	<path id="XMLID_7133_" fill="#C6B299" d="M51,45.66c0.01,0.25,0.1,0.45,0.31,0.57c0.07-0.23,0.43-0.05,0.44-0.29
		c0.01-0.25,0.22-0.23,0.29-0.38c-0.23-0.07-0.48-0.03-0.71-0.17C51.14,45.27,51.12,45.3,51,45.66z"/>
	<path id="XMLID_7132_" fill="#DFCCA5" d="M51.33,46.23c-0.01,0.24-0.02,0.48-0.03,0.72c-0.07,0.08-0.06,0.15,0.02,0.21
		c0.39,0.42,0.54,0.98,0.79,1.49c0.01-0.12,0.01-0.24,0.02-0.37c-0.02-0.12-0.02-0.25-0.07-0.35c-0.27-0.5-0.47-1.02-0.62-1.58
		C51.43,46.31,51.37,46.27,51.33,46.23z"/>
	<path id="XMLID_7131_" fill="#EAD7AD" d="M38.44,10.87c0-0.05,0-0.11-0.01-0.16c-0.41-0.04-0.81-0.07-1.22-0.19
		c-0.38-0.12-0.81-0.22-1.19,0.06l0.01,0.01c0.25,0.22,0.59-0.01,0.84,0.21l0.02,0.01C37.4,10.84,37.92,10.86,38.44,10.87z"/>
	<path id="XMLID_7130_" fill="#746540" d="M36.79,15.38c-0.07,0.07-0.14,0.15-0.22,0.22c0,0.24,0.07,0.4,0.33,0.37
		c0.21-0.02,0.35-0.14,0.47-0.31c0.12-0.18,0.14-0.38,0.05-0.58c-0.15,0.06-0.3,0.11-0.46,0.17C36.88,15.26,36.82,15.3,36.79,15.38z
		"/>
	<path id="XMLID_7129_" fill="#D2C094" d="M19.72,36.88c-0.17-0.41-0.37-0.8-0.83-0.93c-0.04-0.01-0.12,0.02-0.15,0.06
		c-0.03,0.04-0.04,0.13-0.02,0.16c0.29,0.28,0.58,0.56,0.88,0.83c0.01,0.01,0.05-0.01,0.07-0.02C19.69,36.96,19.7,36.93,19.72,36.88
		z"/>
	<path id="XMLID_7128_" fill="#B5A27B" d="M48.33,29.88c0.19,0.15,0.17,0.36,0.16,0.57c0.06,0,0.12,0.01,0.18,0.01
		c0.2-0.15,0.4,0.08,0.6,0.03c0.11,0.01,0.21,0,0.32-0.04c0.07-0.03,0.11-0.09,0.13-0.17c-0.29-0.17-0.57-0.36-0.86-0.5
		C48.68,29.7,48.48,29.69,48.33,29.88z"/>
	<path id="XMLID_7127_" fill="#94835E" d="M45.21,28.59c0.06-0.1,0.14-0.19,0.18-0.3c0.07-0.16,0.01-0.33-0.13-0.34
		c-0.22-0.03-0.45-0.07-0.67-0.06c-0.28,0.01-0.19,0.22-0.14,0.39C44.72,28.33,44.98,28.41,45.21,28.59z"/>
	<path id="XMLID_7126_" fill="#A08D64" d="M46.76,12.7c0.1,0.09,0.21,0.18,0.32,0.27c0.12-0.06,0.25-0.12,0.37-0.19
		c0.16-0.08,0.15-0.22,0.11-0.37c-0.05-0.17-0.18-0.23-0.32-0.22C46.96,12.23,46.78,12.38,46.76,12.7z"/>
	<path id="XMLID_7125_" fill="#7E7358" d="M58.45,48.55c0.04,0.08,0.07,0.16,0.12,0.24c0.19,0.32,0.19,0.32-0.05,0.58
		c-0.04,0.04-0.06,0.1-0.09,0.15c0.23,0.05,0.45,0.05,0.72-0.05c0.01-0.32-0.07-0.63-0.29-0.88C58.76,48.48,58.6,48.31,58.45,48.55z
		"/>
	<path id="XMLID_7124_" fill="#A7956F" d="M41.19,48.35c0.15,0.22,0.29,0.45,0.45,0.69c0.13-0.06,0.26-0.11,0.38-0.19
		c0.19-0.12,0.19-0.34,0.01-0.42c-0.26-0.11-0.54-0.19-0.8-0.28C41.15,48.21,41.14,48.27,41.19,48.35z"/>
	<path id="XMLID_7123_" fill="#EBD7B6" d="M56.05,47.56c0.02,0.2,0.04,0.4-0.15,0.53c0.09,0.13,0.21,0.19,0.36,0.19
		c0.28,0.01,0.55,0.03,0.83,0.04l0,0C56.86,47.86,56.42,47.76,56.05,47.56z"/>
	<path id="XMLID_7122_" fill="#B2A27F" d="M43.55,17.93c0.1,0.13,0.2,0.25,0.29,0.37c-0.02-0.31,0.09-0.58,0.25-0.83
		c0.16-0.24,0.31-0.5,0.32-0.81c-0.07-0.01-0.14-0.03-0.2-0.04C43.89,17,43.79,17.51,43.55,17.93z"/>
	<path id="XMLID_7121_" fill="#DCCA9F" d="M18.02,34.06c0.06-0.01,0.12-0.01,0.18-0.02c-0.16-0.53-0.4-1.04-0.35-1.62
		c0.01-0.07-0.07-0.15-0.11-0.23c-0.11,0-0.13,0.12-0.19,0.18C17.46,33.01,17.79,33.52,18.02,34.06z"/>
	<path id="XMLID_7120_" fill="#9D8C6B" d="M53.2,47.04c-0.13-0.5-0.44-0.81-0.83-0.84c-0.02,0-0.06,0.02-0.07,0.05
		c-0.02,0.05-0.06,0.13-0.04,0.15c0.24,0.29,0.49,0.57,0.73,0.85C53.11,47.23,53.14,47.11,53.2,47.04z"/>
	<path id="XMLID_7119_" fill="#CBB891" d="M47,29.25c-0.23-0.24-0.45-0.48-0.68-0.73c-0.05,0-0.1-0.01-0.15-0.03
		c-0.02,0.02-0.04,0.05-0.05,0.07c-0.12,0.13-0.25,0.27-0.15,0.48c0,0.16,0.03,0.31,0.2,0.38c0-0.17,0.05-0.28,0.23-0.19
		c0.14,0.07,0.28,0.15,0.42,0.23C46.87,29.4,46.94,29.33,47,29.25z"/>
	<path id="XMLID_7118_" fill="#D5C6A2" d="M58.97,22.46c-0.06,0.06-0.13,0.12-0.19,0.18c0.3,0.54,0.68,1,1.17,1.35
		c0.03,0.04,0.06,0.06,0.09,0.05c0.03-0.01,0.05-0.02,0.05-0.03C59.71,23.5,59.34,22.98,58.97,22.46z"/>
	<path id="XMLID_7117_" fill="#C1AB82" d="M57.53,44.29c-0.32-0.05-0.59,0.07-0.83,0.28c-0.03,0.03-0.05,0.11-0.04,0.15
		c0.01,0.04,0.08,0.08,0.12,0.09c0.36,0.03,0.72,0.04,1.07,0.06c0.05-0.07,0.06-0.14,0.03-0.22C57.75,44.54,57.51,44.56,57.53,44.29
		z"/>
	<path id="XMLID_7116_" fill="#524930" d="M56.03,43.69c0.3-0.38,0.3-0.44,0-0.93c-0.25,0.03-0.38,0.16-0.35,0.45
		c0.01,0.08-0.02,0.17-0.03,0.25c-0.03,0.34,0.16,0.3,0.36,0.25L56.03,43.69z"/>
	<path id="XMLID_7115_" fill="#A59473" d="M49.29,30.74c0.3,0.14,0.55,0.38,0.8,0.61c0.03,0.03,0.11,0.02,0.15,0
		c0.04-0.03,0.07-0.09,0.08-0.15c0.03-0.34-0.19-0.53-0.41-0.71c-0.03,0.01-0.07,0.01-0.1,0.01c-0.13,0.02-0.27,0.01-0.4,0.07
		C49.34,30.61,49.3,30.66,49.29,30.74z"/>
	<path id="XMLID_7114_" fill="#EDDCB7" d="M49.83,10.86c0.07-0.06,0.13-0.12,0.2-0.18c-0.18-0.03-0.39,0.02-0.5-0.21
		c-0.37-0.01-0.64,0.3-0.99,0.33c-0.01,0.15-0.04,0.37,0.17,0.3C49.07,10.97,49.43,10.8,49.83,10.86z"/>
	<path id="XMLID_7113_" fill="#998551" d="M11.07,25.27c0.33-0.19,0.69-0.14,1.04-0.13c0.11-0.2-0.1-0.27-0.14-0.42
		c-0.12-0.19-0.27-0.3-0.48-0.14C11.26,24.74,11.06,24.93,11.07,25.27z"/>
	<path id="XMLID_7112_" fill="#E1CFAB" d="M44.3,40.4c-0.06,0.06-0.11,0.12-0.17,0.18c0.07,0.09,0.12,0.21,0.21,0.27
		c0.35,0.23,0.7,0.46,1,0.78c0.07,0.07,0.2,0.08,0.3,0.11l0,0c-0.17-0.37-0.42-0.65-0.76-0.82C44.65,40.79,44.5,40.56,44.3,40.4z"/>
	<path id="XMLID_7111_" fill="#ECDCB2" d="M44.04,18.67c0.04,0.13,0.09,0.26,0.13,0.39c-0.07,0.05-0.08,0.1-0.02,0.16
		c0.4-0.19,0.87-0.12,1.38-0.48C44.94,18.71,44.49,18.69,44.04,18.67z"/>
	<path id="XMLID_7110_" fill="#9F936C" d="M21.78,37.77c-0.01-0.06,0.01-0.13-0.02-0.18c-0.08-0.16-0.16-0.32-0.26-0.47
		c-0.05-0.09-0.14-0.09-0.22-0.06c-0.17,0.09-0.23,0.36-0.14,0.55c0.12,0.24,0.39,0.34,0.57,0.21
		C21.74,37.81,21.76,37.79,21.78,37.77z"/>
	<path id="XMLID_7109_" fill="#8B7A4E" d="M32.18,33.22c-0.27-0.02-0.49,0.14-0.49,0.36c0,0.23,0.14,0.39,0.37,0.39
		c0.21,0.01,0.31-0.13,0.31-0.42C32.38,33.4,32.35,33.26,32.18,33.22z"/>
	<path id="XMLID_7108_" fill="#E4D1A3" d="M30.06,30.56c0-0.06,0-0.13,0-0.19c-0.22-0.06-0.43-0.13-0.65-0.17
		c-0.25-0.05-0.5-0.13-0.72,0.09c0.03,0.13,0.07,0.26,0.15,0.37l0.04,0.05c0.16-0.01,0.32-0.01,0.49-0.02
		C29.58,30.52,29.86,30.73,30.06,30.56L30.06,30.56z"/>
	<path id="XMLID_7107_" fill="#B5A06B" d="M13.65,24.85c-0.13-0.02-0.25-0.03-0.37-0.05c-0.23,0-0.44,0.08-0.65,0.18
		c-0.01,0.17-0.02,0.35-0.03,0.53c0.31,0.09,0.46-0.25,0.71-0.3l-0.01-0.02c0.1-0.09,0.25-0.05,0.35-0.15l0,0
		C13.7,24.97,13.7,24.91,13.65,24.85z"/>
	<path id="XMLID_6237_" fill="#C2AC82" d="M46.69,28.52c0.06-0.06,0.12-0.12,0.19-0.17c0.38-0.24,0.38-0.23,0.32-0.73
		c-0.33,0.17-0.65,0.34-0.84,0.7C46.46,28.39,46.58,28.45,46.69,28.52z"/>
	<path id="XMLID_6236_" fill="#998D70" d="M52.33,42.23c0.24,0.02,0.3,0.2,0.31,0.41c0.25-0.4,0.46-0.83,0.84-1.11
		c-0.06-0.07-0.12-0.13-0.19-0.2c-0.11,0.08-0.25,0.15-0.31,0.26C52.82,41.87,52.55,42.01,52.33,42.23z"/>
	<path id="XMLID_6235_" fill="#DDCA9F" d="M46.65,9.41c0.21-0.13,0.16-0.36,0.2-0.56c-0.02-0.24-0.04-0.48-0.08-0.72
		c0-0.03-0.09-0.08-0.13-0.07c-0.04,0-0.11,0.05-0.12,0.1C46.43,8.58,46.55,9,46.65,9.41z"/>
	<path id="XMLID_6234_" fill="#E8D5A9" d="M31.02,32.99c-0.06-0.18-0.18-0.29-0.35-0.37c-0.28-0.13-0.55-0.28-0.83-0.42
		c-0.06,0.06-0.17,0.07-0.19,0.18C30.05,32.75,30.48,33.01,31.02,32.99L31.02,32.99z"/>
	<path id="XMLID_6233_" fill="#83754F" d="M20.36,38.02c-0.05,0.01-0.12,0.01-0.16,0.04c-0.12,0.09-0.22,0.2-0.17,0.38
		c0.06,0.23,0.24,0.42,0.41,0.42c0.03,0,0.05-0.01,0.08-0.03c0.14-0.09,0.15-0.24,0.13-0.4C20.61,38.2,20.5,38.05,20.36,38.02z"/>
	<path id="XMLID_6232_" fill="#726547" d="M48,11.34c-0.06,0.05-0.12,0.13-0.18,0.14c-0.23,0.03-0.2,0.2-0.19,0.37
		c0.18,0.23,0.43,0.18,0.66,0.21c0.02-0.18,0.04-0.35,0.06-0.53C48.25,11.25,48.25,11.25,48,11.34z"/>
	<path id="XMLID_6231_" fill="#D8C294" d="M10.57,26.15c0.01-0.05,0.01-0.11,0.01-0.17c-0.06-0.16,0.1-0.24,0.11-0.37
		c-0.38-0.02-0.68,0.19-1,0.35C9.64,26,9.61,26.05,9.65,26.11c0.03,0.05,0.07,0.09,0.11,0.11c0.05,0.02,0.11,0,0.16-0.01
		C10.14,26.19,10.36,26.17,10.57,26.15z"/>
	<path id="XMLID_6230_" fill="#A29164" d="M31.32,34.47c-0.06,0.13-0.13,0.25-0.19,0.37c0.19,0.17,0.38,0.33,0.57,0.5
		C32.03,34.61,31.98,34.5,31.32,34.47z"/>
	<path id="XMLID_6229_" fill="#A79674" d="M54.74,48.34c-0.34-0.25-0.68-0.5-1.02-0.75c-0.13,0.02-0.21,0.09-0.24,0.23
		c0.21,0.3,0.49,0.47,0.83,0.57c0.12,0.11,0.24,0.11,0.37,0.02C54.7,48.39,54.72,48.37,54.74,48.34z"/>
	<path id="XMLID_6228_" fill="#A7956D" d="M57.69,18.76c0.17-0.35,0.17-0.73,0.18-1.11c-0.04-0.04-0.07-0.06-0.11-0.05
		c-0.04,0.01-0.06,0.03-0.06,0.04l0,0c-0.1,0.1-0.06,0.27-0.18,0.36c-0.14,0.21-0.19,0.45-0.2,0.71c0.04,0.22,0.06,0.47,0.36,0.43
		C57.76,19.01,57.77,18.89,57.69,18.76z"/>
	<path id="XMLID_6227_" fill="#A19064" d="M32.33,30.32c-0.07,0.19,0.02,0.33,0.12,0.46c0.08,0.01,0.17,0.04,0.25,0.03
		c0.29-0.05,0.46-0.21,0.4-0.35c-0.09-0.21-0.28-0.16-0.44-0.18C32.55,30.27,32.44,30.31,32.33,30.32z"/>
	<path id="XMLID_6226_" fill="#6D6647" d="M36.35,45.73c-0.14-0.01-0.29,0.02-0.38-0.16c-0.2-0.03-0.29,0.11-0.34,0.29
		c-0.04,0.15-0.02,0.29,0.09,0.41c0.05,0.06,0.11,0.13,0.21,0.07C36.13,46.19,36.33,46.03,36.35,45.73z"/>
	<path id="XMLID_6225_" fill="#CEB685" d="M39.36,41.11c-0.06-0.07-0.12-0.15-0.17-0.22c-0.01,0.49-0.03,0.99-0.04,1.48
		c0.15,0.07,0.23-0.02,0.28-0.15C39.5,41.84,39.52,41.47,39.36,41.11z"/>
	<path id="XMLID_6224_" fill="#E3D1A7" d="M49.56,9c0.06,0.07,0.11,0.13,0.17,0.2c0.35-0.21,0.45-0.6,0.61-0.94
		c-0.18-0.18-0.27-0.01-0.37,0.07C49.77,8.5,49.67,8.75,49.56,9z"/>
	<path id="XMLID_6223_" fill="#EDDAB5" d="M27.59,20.73c-0.37,0.32-0.37,0.32-0.79,0.29c-0.2-0.01-0.39-0.01-0.59-0.02
		c0.11,0.17,0.28,0.2,0.45,0.2c0.43,0,0.84,0.08,1.25,0.24l0,0C27.82,21.2,27.56,21.04,27.59,20.73z"/>
	<path id="XMLID_6222_" fill="#B6A37A" d="M51.41,6.43c-0.15,0.02-0.27,0.12-0.33,0.26c-0.07,0.18,0,0.35,0.12,0.5
		c0.02,0.02,0.05,0.04,0.08,0.04c0.19-0.02,0.32-0.12,0.38-0.31c0.05-0.15,0.03-0.3-0.09-0.42C51.52,6.46,51.46,6.45,51.41,6.43z"/>
	<path id="XMLID_6221_" fill="#8D7E5E" d="M40.26,45.18c-0.06,0.06-0.11,0.12-0.17,0.17c-0.22,0.21-0.22,0.2-0.05,0.55
		c0.04-0.15-0.01-0.41,0.28-0.23c0.14,0.09,0.29,0.17,0.44,0.25c0.05,0.03,0.09,0.06,0.13,0.04c0.08-0.05,0.05-0.12,0.02-0.19h0
		c-0.02-0.09-0.09-0.14-0.14-0.21C40.59,45.44,40.48,45.23,40.26,45.18z"/>
	<path id="XMLID_6220_" fill="#E7D6AF" d="M16.98,34.93c-0.35,0.41-0.44,0.92-0.59,1.65c0.43-0.54,0.48-1.07,0.75-1.45
		C17.22,34.93,17.13,34.9,16.98,34.93z"/>
	<path id="XMLID_6219_" fill="#A18F72" d="M56.01,43.71c-0.15-0.03-0.29-0.08-0.36-0.25c-0.24,0.2-0.31,0.49-0.34,0.8
		c-0.01,0.07,0.06,0.17,0.12,0.22c0.08,0.07,0.17,0.02,0.2-0.07C55.7,44.13,55.87,43.94,56.01,43.71z"/>
	<path id="XMLID_6218_" fill="#C4AB81" d="M51.13,47.33c-0.06,0-0.12-0.01-0.18-0.01c0.02,0.59-0.05,1.18,0.14,1.75
		c0.04,0.11,0.1,0.2,0.15,0.31c0.01-0.26,0.02-0.51,0.03-0.77l0,0.01c-0.17-0.24-0.04-0.51-0.07-0.77
		C51.19,47.67,51.26,47.48,51.13,47.33z"/>
	<path id="XMLID_6217_" fill="#8D8169" d="M64.34,17.39c-0.05,0.07-0.12,0.13-0.14,0.2c-0.07,0.29-0.22,0.37-0.48,0.26
		c-0.12-0.05-0.2,0.01-0.26,0.12c0.1,0.2,0.24,0.33,0.46,0.29c0.24-0.03,0.38-0.21,0.43-0.45C64.38,17.68,64.35,17.53,64.34,17.39z"
		/>
	<path id="XMLID_6216_" fill="#DFCBA7" d="M40.23,46.81c0.24,0.42,0.39,0.89,0.82,1.15l-0.01,0.01c-0.04-0.54-0.37-0.91-0.63-1.32
		C40.3,46.64,40.28,46.75,40.23,46.81z"/>
	<path id="XMLID_6215_" fill="#EFDCAF" d="M30.71,31.51c-0.13,0.21-0.33,0.15-0.52,0.17c0.34,0.29,0.78,0.21,1.16,0.36
		c0.02,0.01,0.09-0.06,0.1-0.11c0.01-0.04-0.02-0.13-0.05-0.15C31.18,31.68,30.94,31.6,30.71,31.51z"/>
	<path id="XMLID_6214_" fill="#E9D5B4" d="M47.64,43.67c0-0.07,0.01-0.14,0.01-0.22c-0.29-0.43-0.72-0.62-1.17-0.76l0,0
		C46.77,43.14,47.21,43.41,47.64,43.67z"/>
	<path id="XMLID_6213_" fill="#E4D1A3" d="M29.65,32.39c0.06-0.06,0.13-0.12,0.19-0.18c-0.05-0.01-0.1-0.02-0.15-0.02
		c-0.07-0.05-0.13-0.11-0.18-0.18c-0.05-0.01-0.1-0.02-0.15-0.02c-0.07-0.04-0.13-0.1-0.19-0.17c-0.16-0.08-0.31-0.23-0.5-0.21
		c-0.07,0.12-0.04,0.24-0.01,0.36c0.11,0.21,0.3,0.21,0.49,0.22c0.06,0.05,0.12,0.11,0.18,0.17C29.44,32.36,29.54,32.38,29.65,32.39
		z"/>
	<path id="XMLID_6212_" fill="#CCB280" d="M39.12,44.05c0.1,0,0.19,0,0.29-0.01c-0.06-0.49-0.03-0.97,0.02-1.45
		c-0.28-0.09-0.15,0.26-0.29,0.32C39.13,43.29,39.13,43.67,39.12,44.05z"/>
	<path id="XMLID_6211_" fill="#B5A273" d="M31.06,10.91c-0.16,0.14-0.25,0.39-0.51,0.39c0,0.05,0,0.1,0,0.15
		c0.23,0.07,0.46,0.04,0.68,0c0.14-0.19,0.33-0.13,0.51-0.14c0.01-0.24-0.1-0.35-0.32-0.37C31.3,10.93,31.18,10.93,31.06,10.91z"/>
	<path id="XMLID_6210_" fill="#CAB49D" d="M54.27,45.07c0.11,0.17,0.17,0.35,0.15,0.56c0.34-0.01,0.43-0.34,0.6-0.57
		c-0.1-0.2-0.26-0.01-0.38-0.06C54.51,44.94,54.36,44.9,54.27,45.07z"/>
	<path id="XMLID_6209_" fill="#877349" d="M57.65,19.12c-0.11-0.14-0.22-0.28-0.33-0.42c-0.21,0.27-0.31,0.58-0.32,0.93
		c0.1,0,0.21,0.01,0.31,0.01l0,0c0.08-0.18,0.2-0.3,0.38-0.37C57.73,19.21,57.72,19.16,57.65,19.12z"/>
	<path id="XMLID_6208_" fill="#BBA77A" d="M39.2,47.32c0.25-0.18,0.12-0.49,0.2-0.73c0.01-0.17,0.01-0.34,0.03-0.5
		c0.02-0.18,0.11-0.31,0.29-0.35c-0.03-0.17-0.11-0.25-0.27-0.17c-0.07,0.04-0.14,0.07-0.21,0.11
		C39.22,46.22,39.21,46.77,39.2,47.32z"/>
	<path id="XMLID_6207_" fill="#5E5B3B" d="M32.82,32.16c-0.02-0.07-0.03-0.14-0.07-0.17c-0.2-0.17-0.51-0.13-0.67,0.09
		c-0.03,0.03-0.03,0.13,0,0.16c0.12,0.15,0.46,0.23,0.61,0.13C32.75,32.32,32.78,32.22,32.82,32.16z"/>
	<path id="XMLID_6206_" fill="#EBD7B2" d="M19.68,35.42c0,0.11-0.01,0.23-0.01,0.35c0.12,0.11,0.26,0.21,0.37,0.34
		c0.18,0.21,0.4,0.29,0.65,0.27l0,0C20.44,35.96,20.03,35.73,19.68,35.42z"/>
	<path id="XMLID_6205_" fill="#B1A175" d="M40.88,35.44c0.02,0.55,0.02,0.55,0.46,0.59c0.2-0.14,0.13-0.3,0.01-0.46
		C41.22,35.42,41.05,35.42,40.88,35.44z"/>
	<path id="XMLID_6204_" fill="#ECD5AC" d="M26.94,32.25c0,0.06,0.01,0.12,0.01,0.18c0.21,0.19,0.16,0.5,0.28,0.74
		c0.06,0.13,0.06,0.29,0.18,0.39c0.07-0.06,0.13-0.13,0.2-0.19c-0.15-0.29-0.3-0.57-0.35-0.9c-0.03-0.19-0.15-0.32-0.31-0.39
		C26.88,32.14,26.88,32.19,26.94,32.25z"/>
	<path id="XMLID_6203_" fill="#605129" d="M18.5,22.85c-0.04-0.21,0-0.45-0.2-0.6l-0.02,0.02c-0.01,0.12-0.08,0.15-0.18,0.16
		c-0.05,0.01-0.09,0.03-0.11,0.08c-0.02,0.09-0.04,0.17-0.06,0.26c-0.05,0.14,0,0.22,0.14,0.25C18.23,23.04,18.39,23.02,18.5,22.85z
		"/>
	<path id="XMLID_6202_" fill="#B9A67F" d="M49.68,44.67c-0.06,0.06-0.12,0.12-0.18,0.18c0.29,0.17,0.57,0.34,0.51,0.77
		c0.11,0.1,0.22,0.11,0.33-0.01c0.01-0.05,0.01-0.1,0-0.14c0-0.14-0.17-0.28,0.01-0.41C50.17,44.83,49.89,44.83,49.68,44.67z"/>
	<path id="XMLID_6201_" fill="#6A5F4D" d="M57.83,44.71c0.02,0.05,0.02,0.1,0.01,0.16l0.03-0.01c0.17,0.15,0.35,0.12,0.53,0.05
		c0.05,0.02,0.09,0.01,0.13-0.03c0.11-0.11,0.1-0.23,0.01-0.35l0,0c-0.06-0.06-0.11-0.12-0.17-0.18l-0.01,0
		c-0.11-0.12-0.25-0.11-0.38-0.1C57.77,44.33,57.73,44.5,57.83,44.71z"/>
	<path id="XMLID_6200_" fill="#B9A780" d="M32.6,11.36c0.11,0.01,0.23,0.02,0.35,0.02c0.16,0,0.31-0.01,0.47-0.01
		c0.15-0.09,0.14-0.21,0.02-0.33c-0.05-0.01-0.09-0.03-0.13-0.05c-0.23-0.09-0.45-0.11-0.68-0.01l-0.04,0.05
		C32.5,11.14,32.5,11.25,32.6,11.36z"/>
	<path id="XMLID_6199_" fill="#E1CA9F" d="M47.57,26.39c0.01-0.06,0.01-0.12,0.01-0.18c0.11-0.14,0.13-0.28-0.03-0.41
		c-0.23,0.17-0.42,0.38-0.58,0.63c-0.02,0.03,0,0.12,0.02,0.16c0.03,0.03,0.11,0.05,0.14,0.03C47.27,26.52,47.37,26.36,47.57,26.39z
		"/>
	<path id="XMLID_6198_" fill="#D8C5A4" d="M49.89,48.72c-0.11,0-0.22,0-0.33,0c-0.03,0.18-0.05,0.36-0.1,0.53
		c-0.03,0.12-0.07,0.24,0.07,0.29c0.1,0.04,0.15-0.06,0.19-0.14C49.85,49.2,49.92,48.98,49.89,48.72z"/>
	<path id="XMLID_6197_" fill="#A99769" d="M21.63,35.64c-0.13-0.03-0.35,0.13-0.39,0.28c-0.04,0.14,0.06,0.3,0.2,0.33
		c0.16,0.03,0.27-0.05,0.28-0.23C21.73,35.88,21.79,35.72,21.63,35.64z"/>
	<path id="XMLID_6196_" fill="#B5A480" d="M45.27,29.94c-0.01,0.07-0.01,0.13-0.02,0.2c0.11,0.25,0.22,0.5,0.32,0.75
		c0.07-0.07,0.14-0.14,0.21-0.21c0-0.26-0.08-0.49-0.2-0.71c-0.06,0-0.11-0.01-0.17-0.01c-0.03-0.06-0.06-0.08-0.1-0.07
		C45.29,29.9,45.27,29.92,45.27,29.94z"/>
	<path id="XMLID_6195_" fill="#BAA777" d="M28.83,31.4c-0.05-0.24-0.1-0.49-0.15-0.74c-0.11,0-0.22-0.01-0.33,0
		c-0.08,0-0.17-0.01-0.2,0.09c-0.03,0.1,0.05,0.18,0.13,0.18c0.34,0.01,0.2,0.27,0.22,0.45c0.02,0.03,0.03,0.06,0.05,0.08
		c0.06,0.03,0.11,0.01,0.15-0.04C28.73,31.41,28.78,31.41,28.83,31.4z"/>
	<path id="XMLID_6194_" fill="#948562" d="M50.34,45.62c-0.11,0-0.22,0-0.33,0.01c-0.07,0.36-0.06,0.72-0.04,1.09
		c0.03,0.06,0.07,0.08,0.1,0.07c0.04-0.02,0.06-0.03,0.06-0.05l0-0.01c0.06-0.06,0.1-0.13,0.15-0.2c0-0.05,0-0.1,0-0.15
		c-0.06-0.14-0.09-0.27,0.07-0.36C50.52,45.88,50.39,45.75,50.34,45.62z"/>
	<path id="XMLID_6193_" fill="#88744D" d="M38.19,13.08c0-0.08-0.01-0.16-0.01-0.25c-0.18,0.04-0.43-0.04-0.47,0.25
		c-0.03,0.21,0.16,0.37,0.47,0.39c0.11,0.01,0.22-0.02,0.33-0.03c0.01-0.06,0.02-0.13,0.03-0.19l-0.03-0.06
		c-0.02-0.04-0.05-0.07-0.09-0.1l-0.06-0.02C38.31,13.08,38.25,13.08,38.19,13.08L38.19,13.08z"/>
	<path id="XMLID_6192_" fill="#E4D3AC" d="M58.01,25.18c0.06-0.06,0.12-0.11,0.18-0.17c-0.02-0.4-0.29-0.64-0.48-0.93
		c-0.06-0.01-0.11-0.02-0.17-0.03C57.7,24.43,57.86,24.8,58.01,25.18z"/>
	<path id="XMLID_6191_" fill="#E0CDA6" d="M59.89,13.33c-0.06,0.01-0.12-0.01-0.16,0.02c-0.06,0.04-0.14,0.11-0.15,0.17
		c-0.01,0.12,0.06,0.23,0.18,0.25c0.07,0.01,0.16-0.02,0.22-0.07c0.06-0.04,0.13-0.12,0.14-0.19
		C60.12,13.36,59.99,13.36,59.89,13.33z"/>
	<path id="XMLID_6190_" fill="#B8A37A" d="M55.95,19.93c0.24-0.29,0.22-0.58,0.02-0.88l-0.01,0c-0.12,0.07-0.08,0.26-0.22,0.31
		c-0.04,0.01-0.09,0.02-0.13,0.05c-0.01,0.11-0.02,0.23-0.03,0.34C55.73,19.78,55.86,19.81,55.95,19.93z"/>
	<path id="XMLID_6189_" fill="#EBD9B2" d="M22.42,28.2c-0.06,0.06-0.11,0.12-0.17,0.18c0.22,0.26,0.51,0.38,0.8,0.52
		c0.02,0.01,0.07-0.01,0.07-0.02c0.01-0.05,0.02-0.13,0-0.15C22.89,28.54,22.66,28.37,22.42,28.2z"/>
	<path id="XMLID_6188_" fill="#E3D1AB" d="M56.31,18.5c0.14,0.09,0.16,0.23,0.17,0.38c0.22-0.21,0.24-0.53,0.33-0.8
		c0.01-0.04-0.02-0.13-0.05-0.16c-0.03-0.02-0.12,0.01-0.15,0.05C56.51,18.14,56.41,18.32,56.31,18.5z"/>
	<path id="XMLID_6187_" fill="#B4A783" d="M30.98,35.71c-0.05,0.07-0.1,0.14-0.21,0.11c-0.12-0.03-0.23,0.01-0.25,0.15
		c-0.01,0.05,0.09,0.12,0.14,0.18c0.03,0.04,0.07,0.09,0.1,0.14c0.06-0.02,0.12-0.02,0.16-0.06C31.2,36.01,31.26,36.12,30.98,35.71z
		"/>
	<path id="XMLID_6186_" fill="#817455" d="M53.48,47.82c0.08-0.08,0.16-0.15,0.24-0.23l-0.01,0c-0.1-0.01-0.12-0.11-0.18-0.17
		c-0.11-0.13-0.22-0.26-0.33-0.39c-0.07,0.07-0.13,0.14-0.2,0.21C53.11,47.49,53.23,47.72,53.48,47.82z"/>
	<path id="XMLID_6185_" fill="#E9D5B4" d="M45.81,41.93c0,0.48,0.37,0.58,0.66,0.76l0,0C46.48,42.21,46.1,42.11,45.81,41.93
		L45.81,41.93z"/>
	<path id="XMLID_6184_" fill="#B4A988" d="M48.03,6.12c0.04,0.09,0.1,0.17,0.18,0.15c0.18-0.05,0.27-0.34,0.18-0.52
		c-0.02-0.04-0.1-0.07-0.13-0.06C48.1,5.78,48.02,5.93,48.03,6.12z"/>
	<path id="XMLID_6183_" fill="#BAA777" d="M28.85,30.67c0.02-0.16-0.03-0.28-0.15-0.37c-0.22-0.01-0.44-0.03-0.67-0.04
		c-0.11-0.01-0.23-0.01-0.34-0.02c0.1,0.23,0.3,0.21,0.49,0.23c0.19,0.01,0.38-0.01,0.51,0.19C28.73,30.67,28.79,30.67,28.85,30.67z
		"/>
	<path id="XMLID_6182_" fill="#C7B182" d="M17.07,36.93c0.02,0.2-0.02,0.42,0.17,0.57c0.07-0.16,0.15-0.33,0.22-0.49
		c0.07-0.15,0.09-0.3-0.02-0.45C17.32,36.69,17.19,36.81,17.07,36.93z"/>
	<path id="XMLID_6181_" fill="#B8A67D" d="M36.07,2.87c-0.26,0.3,0.06,0.49,0.13,0.73c0.19-0.08,0.2-0.25,0.12-0.42
		C36.27,3.06,36.16,2.97,36.07,2.87z"/>
	<path id="XMLID_6180_" fill="#B29E70" d="M21.81,34.85c-0.02-0.2-0.23-0.34-0.41-0.25c-0.06,0.03-0.08,0.07-0.05,0.14
		c0.06,0.15,0.17,0.24,0.3,0.29C21.73,35.05,21.8,34.99,21.81,34.85z"/>
	<path id="XMLID_6179_" fill="#C5AF7E" d="M44.16,19.22c0.01-0.05,0.02-0.11,0.02-0.16c-0.17-0.01-0.35-0.03-0.52-0.04
		c-0.23-0.1-0.46-0.23-0.67,0.03c0,0.04,0,0.09,0,0.13C43.37,19.19,43.76,19.2,44.16,19.22z"/>
	<path id="XMLID_6178_" fill="#B5A27B" d="M47.82,30.25c-0.12-0.23-0.33-0.2-0.52-0.2c0.12,0.18,0.24,0.37,0.36,0.55
		C47.92,30.56,47.92,30.56,47.82,30.25z"/>
	<path id="XMLID_6177_" fill="#937F5A" d="M57.83,44.71c0.01-0.17,0.04-0.33,0.2-0.41c0.08-0.03,0.08-0.08,0.02-0.13
		c-0.19-0.04-0.36,0.01-0.53,0.11C57.44,44.61,57.44,44.61,57.83,44.71z"/>
	<path id="XMLID_6176_" fill="#DBCDAB" d="M49.81,28.19c-0.01-0.17-0.28-0.42-0.41-0.38c-0.07,0.02-0.09,0.09-0.03,0.15
		c0.1,0.11,0.2,0.2,0.31,0.3c0.02,0.01,0.06,0.01,0.08,0C49.77,28.24,49.79,28.22,49.81,28.19z"/>
	<path id="XMLID_6175_" fill="#B5A06B" d="M11.97,24.72c0.05,0.14,0.09,0.28,0.14,0.42c0.19,0.01,0.35-0.07,0.51-0.15
		C12.47,24.69,12.2,24.77,11.97,24.72z"/>
	<path id="XMLID_6174_" fill="#B5A681" d="M39.62,10.73c-0.1,0.25-0.4,0.15-0.53,0.35c0.19,0,0.38,0.03,0.57,0.01
		c0.12-0.02,0.14-0.16,0.12-0.28C39.76,10.71,39.71,10.64,39.62,10.73z"/>
	<path id="XMLID_6173_" fill="#B09E73" d="M38.09,4.76c-0.03,0.05-0.06,0.11-0.1,0.14c-0.22,0.16-0.16,0.24,0.06,0.31
		c0.07,0.02,0.12,0.11,0.18,0.17c0.16-0.09,0.15-0.22,0.07-0.36C38.25,4.92,38.16,4.84,38.09,4.76z"/>
	<path id="XMLID_6172_" fill="#D8C79C" d="M17.62,36.06c0.18-0.11,0.26-0.3,0.31-0.5c0.01-0.04-0.04-0.11-0.08-0.13
		c-0.04-0.02-0.12,0-0.14,0.03C17.6,35.64,17.64,35.86,17.62,36.06L17.62,36.06z"/>
	<path id="XMLID_6171_" fill="#978660" d="M51.25,28.94c0.18-0.02,0.31-0.08,0.22-0.32c-0.03-0.08-0.02-0.17-0.03-0.26
		c-0.06,0.02-0.11,0.05-0.17,0.07c-0.06,0.02-0.12,0.06-0.15,0.13l-0.05-0.01c0.01,0.12,0.02,0.25,0.03,0.37
		C51.15,28.93,51.2,28.94,51.25,28.94z"/>
	<path id="XMLID_6170_" fill="#B0A47F" d="M40.23,46.81c0.06-0.05,0.12-0.11,0.18-0.17c-0.1-0.2-0.13-0.43-0.31-0.59
		c-0.06,0.06-0.11,0.12-0.17,0.18C39.93,46.49,40.14,46.62,40.23,46.81z"/>
	<path id="XMLID_6169_" fill="#A59473" d="M49.36,30.33c-0.24,0-0.5-0.11-0.69,0.13c0.04,0.02,0.08,0.03,0.13,0.03
		c0.08,0.04,0.14,0.1,0.2,0.17c0.1,0.03,0.2,0.05,0.29,0.08c0.03-0.03,0.06-0.06,0.08-0.09C49.45,30.54,49.44,30.43,49.36,30.33z"/>
	<path id="XMLID_6168_" fill="#DEC28B" d="M17.57,31.64c0-0.19,0.06-0.4-0.14-0.54c0.01,0.37-0.15,0.77,0.12,1.11
		C17.68,32.03,17.69,31.84,17.57,31.64z"/>
	<path id="XMLID_6167_" fill="#AE9D75" d="M39.14,42.9c0.1-0.11,0.2-0.21,0.29-0.32c0-0.12,0-0.25,0-0.37
		c-0.1,0.05-0.19,0.1-0.29,0.15C39.14,42.55,39.14,42.73,39.14,42.9z"/>
	<path id="XMLID_6166_" fill="#907F57" d="M34.63,26.86c-0.15-0.41-0.45-0.22-0.7-0.2l-0.04,0.06c0.13,0.44,0.4,0.32,0.67,0.2
		C34.58,26.9,34.6,26.88,34.63,26.86z"/>
	<path id="XMLID_6165_" fill="#BAA777" d="M28.66,31.95c0.18-0.11,0.01-0.24,0.01-0.36l0,0c-0.05-0.06-0.11-0.13-0.17-0.19
		l-0.02-0.02c-0.13,0.09-0.16,0.23-0.17,0.38c0.05,0.08,0.1,0.13,0.18,0.17C28.55,31.94,28.61,31.95,28.66,31.95z"/>
	<path id="XMLID_6164_" fill="#BCA87A" d="M27.14,31.34c-0.01,0.26-0.03,0.52,0.3,0.58c-0.03-0.15-0.18-0.31,0.03-0.43
		C27.38,31.36,27.26,31.35,27.14,31.34z"/>
	<path id="XMLID_6163_" fill="#EADBB4" d="M15.58,37.02c-0.11,0.04-0.18,0.12-0.14,0.25c0.01,0.04,0.08,0.09,0.11,0.08
		c0.13-0.02,0.16-0.12,0.13-0.25C15.68,37.08,15.62,37.05,15.58,37.02z"/>
	<path id="XMLID_6162_" fill="#EAD8B1" d="M16.98,34.93c0.06,0.06,0.11,0.13,0.16,0.19c0.19-0.12,0.25-0.35,0.36-0.54h0
		C17.25,34.57,17.08,34.69,16.98,34.93z"/>
	<path id="XMLID_6161_" fill="#CEC79E" d="M17.44,36.56c0.01,0.15,0.01,0.3,0.02,0.45c0.25-0.28,0.13-0.63,0.16-0.96l0.01,0.01
		C17.43,36.17,17.45,36.38,17.44,36.56z"/>
	<path id="XMLID_6160_" fill="#4D432A" d="M60.42,24.93c0.18-0.09,0.38-0.14,0.51-0.33c-0.05-0.02-0.1-0.04-0.16-0.06
		C60.4,24.46,60.38,24.48,60.42,24.93z"/>
	<path id="XMLID_6159_" fill="#BEA981" d="M58.41,17.15c-0.02-0.15-0.02-0.31-0.18-0.4c-0.09,0.16-0.2,0.31-0.21,0.52
		c0.08,0.02,0.16,0.04,0.25,0.06C58.32,17.26,58.37,17.2,58.41,17.15z"/>
	<path id="XMLID_6158_" fill="#877349" d="M56.96,20.89c0.1,0.02,0.21,0.03,0.31,0.04c0.02-0.06,0.02-0.11,0.01-0.17
		c-0.22-0.12-0.12-0.44-0.31-0.58C56.97,20.42,56.97,20.66,56.96,20.89z"/>
	<path id="XMLID_6157_" fill="#E6CFB3" d="M53.13,49.43c0,0.18,0.05,0.35,0.19,0.46c0.04,0.03,0.1,0.04,0.15,0.02
		c0.02-0.01,0.04-0.1,0.02-0.14C53.4,49.63,53.29,49.5,53.13,49.43L53.13,49.43z"/>
	<path id="XMLID_6156_" fill="#83BFBF" d="M51.13,47.33c0,0.18,0,0.36,0.01,0.54c0.04,0,0.07,0,0.11,0
		c0.03-0.24,0.06-0.48,0.09-0.71c-0.01-0.07-0.02-0.14-0.02-0.21C51.16,47.03,51.15,47.18,51.13,47.33z"/>
	<path id="XMLID_6155_" fill="#8E7E5C" d="M51.7,31.59c0.03-0.28-0.06-0.51-0.32-0.63c-0.14,0.13-0.07,0.25,0.02,0.36
		C51.49,31.42,51.6,31.5,51.7,31.59z"/>
	<path id="XMLID_6154_" fill="#B6A481" d="M47.91,26.93c-0.05,0.06-0.12,0.11-0.14,0.18c-0.03,0.13,0.04,0.24,0.15,0.25
		c0.14,0.02,0.13-0.13,0.15-0.23C48.02,27.07,47.96,27,47.91,26.93z"/>
	<path id="XMLID_6153_" fill="#DACFA9" d="M46.62,5.95c-0.04,0.03-0.12,0.06-0.12,0.09c0.01,0.14,0.1,0.21,0.22,0.2
		c0.04,0,0.11-0.06,0.11-0.09C46.85,5.98,46.73,5.96,46.62,5.95z"/>
	<path id="XMLID_6152_" fill="#C2B090" d="M46.91,31.17c0.02-0.09,0.04-0.18,0.05-0.27c-0.01-0.14-0.06-0.25-0.17-0.33
		c-0.07,0.07-0.13,0.13-0.2,0.2C46.7,30.9,46.8,31.04,46.91,31.17z"/>
	<path id="XMLID_6151_" fill="#D4C6A4" d="M60.01,14.25c0,0.07,0,0.14,0.01,0.2c0.08-0.07,0.17-0.13,0.24-0.21
		c0.06-0.06,0.09-0.16,0.02-0.22c-0.03-0.02-0.13,0.04-0.18,0.08C60.05,14.13,60.03,14.2,60.01,14.25z"/>
	<path id="XMLID_6150_" fill="#E9D7B2" d="M60.7,13.91c-0.14,0.08-0.19,0.22-0.17,0.38c0,0.05,0.04,0.1,0.06,0.16
		c0.03-0.03,0.09-0.05,0.09-0.09C60.69,14.22,60.69,14.06,60.7,13.91L60.7,13.91z"/>
	<path id="XMLID_6149_" fill="#B5A27B" d="M47.83,29.7c0.04,0.07,0.07,0.16,0.13,0.21c0.13,0.15,0.27,0.18,0.37-0.03
		C48.17,29.82,48,29.76,47.83,29.7z"/>
	<path id="XMLID_6148_" fill="#E3D0A6" d="M49.97,19.3c-0.22-0.26-0.45-0.27-0.68-0.03C49.52,19.28,49.75,19.29,49.97,19.3z"/>
	<path id="XMLID_6147_" fill="#E5D5AF" d="M32.63,10.97c0.23,0.01,0.45,0.01,0.68,0.01c0-0.04,0-0.08,0.01-0.12
		C33.08,10.86,32.82,10.72,32.63,10.97z"/>
	<path id="XMLID_6146_" fill="#E9D6AC" d="M35.69,3.8c-0.23-0.01-0.46-0.01-0.68-0.02C35.24,4,35.47,4,35.69,3.8z"/>
	<path id="XMLID_6145_" fill="#E3D0A6" d="M50.83,19.34c-0.22-0.26-0.44-0.27-0.68-0.04C50.37,19.32,50.6,19.33,50.83,19.34z"/>
	<path id="XMLID_6144_" fill="#5D5440" d="M50.64,26.32c-0.22,0.02-0.47-0.09-0.66,0.13c0.16,0.03,0.33,0.08,0.49,0.1
		C50.6,26.56,50.64,26.45,50.64,26.32z"/>
	<path id="XMLID_6143_" fill="#EAD7AA" d="M30.06,30.56c-0.24,0.01-0.5-0.11-0.69,0.14C29.61,30.69,29.87,30.81,30.06,30.56z"/>
	<path id="XMLID_6142_" fill="#C6B388" d="M35.96,19.03c0.25,0.02,0.51,0.13,0.71-0.13C36.42,18.87,36.17,18.85,35.96,19.03z"/>
	<path id="XMLID_6141_" fill="#BCAA8A" d="M51.24,47.87c-0.04,0-0.07,0-0.11,0c0,0.26-0.11,0.54,0.14,0.74
		C51.27,48.37,51.25,48.12,51.24,47.87z"/>
	<path id="XMLID_6140_" fill="#EBD7B2" d="M20.69,36.38c0.07,0.17,0.14,0.33,0.34,0.32c0.02,0,0.05-0.05,0.05-0.06
		C21.02,36.44,20.86,36.4,20.69,36.38L20.69,36.38z"/>
	<path id="XMLID_6139_" fill="#B09E73" d="M38.23,5.37c-0.19-0.02-0.39-0.08-0.53,0.13C38.03,5.69,38.04,5.69,38.23,5.37z"/>
	<path id="XMLID_6138_" fill="#E6CFB3" d="M53.15,49.1c-0.17-0.02-0.35-0.04-0.52-0.07c0.11,0.21,0.32,0.28,0.5,0.39l0,0
		C53.14,49.32,53.14,49.21,53.15,49.1z"/>
	<path id="XMLID_6137_" fill="#CEB685" d="M39.19,40.72c0.25-0.2,0.16-0.5,0.18-0.76C39.16,40.16,39.2,40.45,39.19,40.72z"/>
	<path id="XMLID_6136_" fill="#7C6A3F" d="M39.94,36.87c0.04,0.14,0.04,0.3,0.19,0.39c0.05-0.12,0.1-0.23,0.15-0.35
		c-0.1-0.07-0.2-0.14-0.3-0.21C39.96,36.75,39.94,36.81,39.94,36.87z"/>
	<path id="XMLID_6135_" fill="#F0DEB5" d="M23.79,29.22c-0.02,0.04-0.07,0.09-0.07,0.11c0.04,0.11,0.12,0.18,0.24,0.15
		c0.02,0,0.05-0.04,0.04-0.06C23.98,29.29,23.9,29.23,23.79,29.22z"/>
	<path id="XMLID_6134_" fill="#BBAF87" d="M17.57,31.64c-0.01,0.19-0.01,0.38-0.02,0.57c0,0.05,0.01,0.1,0.01,0.15
		c0.06-0.06,0.13-0.12,0.19-0.18c-0.01-0.17-0.02-0.34-0.03-0.51C17.67,31.66,17.62,31.65,17.57,31.64z"/>
	<path id="XMLID_6133_" fill="#91815C" d="M47.55,25.8c0.01,0.14,0.02,0.27,0.03,0.41c0.26-0.24,0.26-0.24,0.04-0.53
		C47.6,25.73,47.58,25.77,47.55,25.8z"/>
	<path id="XMLID_6132_" fill="#EAD7AD" d="M34.35,9.6c-0.17-0.01-0.35-0.01-0.52-0.02c-0.06,0.07-0.05,0.13,0.02,0.18
		c0.05,0.01,0.09,0.01,0.14,0.02C34.14,9.77,34.27,9.74,34.35,9.6z"/>
	<path id="XMLID_6131_" fill="#615434" d="M49.99,25.58c0.11,0.19,0.22,0.19,0.33,0.01C50.22,25.49,50.11,25.37,49.99,25.58z"/>
	<path id="XMLID_6130_" fill="#A99876" d="M50.13,46.73c-0.05,0-0.11-0.01-0.16-0.02c-0.02,0.05-0.03,0.1-0.02,0.16
		c0.03,0.08,0.06,0.22,0.09,0.22c0.09,0,0.08-0.11,0.09-0.19c0-0.03,0-0.06,0.01-0.09C50.13,46.79,50.13,46.76,50.13,46.73z"/>
	<path id="XMLID_6129_" fill="#6E5E41" d="M54.68,48.41c-0.12-0.01-0.25-0.01-0.37-0.02c0.02,0.06,0.03,0.12,0.05,0.18
		C54.65,48.72,54.66,48.71,54.68,48.41z"/>
	<path id="XMLID_6128_" fill="#766F54" d="M58.4,44.91c-0.18-0.01-0.35-0.03-0.53-0.05C58.04,45.09,58.22,45.05,58.4,44.91z"/>
	<path id="XMLID_6127_" fill="#EAD8B1" d="M17.5,34.58c0.07-0.04,0.14-0.08,0.2-0.14c0.02-0.02,0-0.09,0.01-0.14
		c-0.05,0.01-0.12,0.01-0.14,0.04C17.53,34.41,17.52,34.5,17.5,34.58L17.5,34.58z"/>
	<path id="XMLID_6126_" fill="#E4D1A3" d="M28.5,31.94c-0.06-0.06-0.12-0.12-0.18-0.17c-0.11-0.01-0.23-0.01-0.34-0.02
		C28.11,31.96,28.3,31.96,28.5,31.94z"/>
	<path id="XMLID_6125_" fill="#CCB88C" d="M34.27,19.34c0.19,0.02,0.38,0.05,0.52-0.13C34.6,19.18,34.41,19.13,34.27,19.34z"/>
	<path id="XMLID_6124_" fill="#D7C9A5" d="M40.9,45.77c-0.05,0.05-0.1,0.1-0.14,0.15c0.07,0.16,0.19,0.21,0.34,0.2l0,0
		C41.1,45.97,41.07,45.83,40.9,45.77z"/>
	<path id="XMLID_6123_" fill="#E5D3A5" d="M4.52,27.92c-0.14,0-0.26,0.03-0.34,0.18C4.32,28.11,4.45,28.07,4.52,27.92z"/>
	<path id="XMLID_6122_" fill="#B8A67D" d="M36.19,3.6c-0.13-0.01-0.25,0.03-0.33,0.15C36.01,3.79,36.13,3.76,36.19,3.6z"/>
	<path id="XMLID_6121_" fill="#A99876" d="M50.35,46.02c-0.23,0.07-0.19,0.21-0.07,0.36c0.02-0.08,0.04-0.15,0.05-0.23
		C50.35,46.1,50.35,46.06,50.35,46.02z"/>
	<path id="XMLID_6120_" fill="#345042" d="M50.81,33.3c-0.13,0.02-0.27,0.04-0.34,0.19C50.64,33.54,50.79,33.57,50.81,33.3z"/>
	<path id="XMLID_6119_" fill="#B6A57B" d="M13.64,25.03c-0.14-0.01-0.26,0.02-0.35,0.15C13.44,25.2,13.56,25.16,13.64,25.03z"/>
	<path id="XMLID_6118_" fill="#D3C091" d="M27.87,35.97c0.01-0.16-0.03-0.29-0.18-0.36C27.7,35.76,27.75,35.89,27.87,35.97z"/>
	<path id="XMLID_6117_" fill="#DFCCA5" d="M52.29,48.31c0.09,0.14,0.21,0.18,0.36,0.16C52.56,48.33,52.44,48.29,52.29,48.31z"/>
	<path id="XMLID_6116_" fill="#CCB88C" d="M27.25,20.13c0.11,0.17,0.22,0.19,0.34,0.02C27.48,20.14,27.37,20.13,27.25,20.13z"/>
	<path id="XMLID_6115_" fill="#D1BF99" d="M55.75,19.37c0.16-0.03,0.21-0.16,0.22-0.31C55.83,19.1,55.78,19.23,55.75,19.37z"/>
	<path id="XMLID_6114_" fill="#BEA981" d="M57.51,18c0.14-0.07,0.19-0.2,0.18-0.36C57.55,17.71,57.52,17.85,57.51,18z"/>
	<path id="XMLID_6113_" fill="#877349" d="M57.61,20.78c-0.05-0.17-0.18-0.21-0.32-0.23c0,0.07,0,0.14,0,0.21
		C57.4,20.76,57.51,20.77,57.61,20.78z"/>
	<path id="XMLID_6112_" fill="#EBD7B6" d="M57.42,48.52c-0.07-0.15-0.2-0.19-0.34-0.2l0,0C57.15,48.48,57.28,48.51,57.42,48.52
		L57.42,48.52z"/>
	<path id="XMLID_6111_" fill="#766F54" d="M58.05,44.18c0,0.05-0.01,0.09-0.02,0.13c0.11,0.01,0.22,0.02,0.33,0.03
		C58.3,44.21,58.2,44.13,58.05,44.18z"/>
	<path id="XMLID_6110_" fill="#766F54" d="M58.55,44.52c0,0.12-0.01,0.24-0.01,0.35C58.74,44.74,58.74,44.72,58.55,44.52z"/>
	<path id="XMLID_6109_" fill="#B6A27D" d="M58.32,46.35c0.07,0.16,0.2,0.2,0.34,0.21c0-0.06,0-0.13,0-0.19
		C58.55,46.36,58.44,46.35,58.32,46.35z"/>
	<path id="XMLID_6108_" fill="#BCA97B" d="M22.57,21.55c0.15,0.03,0.28,0.02,0.38-0.12C22.8,21.4,22.68,21.43,22.57,21.55z"/>
	<path id="XMLID_6107_" fill="#F4DCBA" d="M61.3,23.5c-0.07-0.17-0.19-0.19-0.33-0.2C61.04,23.45,61.16,23.5,61.3,23.5z"/>
	<path id="XMLID_6106_" fill="#D7C9A5" d="M41.25,46.51c0-0.15-0.02-0.29-0.16-0.38l0,0C41.09,46.28,41.12,46.42,41.25,46.51
		L41.25,46.51z"/>
	<path id="XMLID_6105_" fill="#DFCBA7" d="M41.19,48.35c0.01-0.06,0.02-0.12,0.03-0.19c-0.06-0.06-0.11-0.13-0.17-0.19l0.01-0.01
		C41.05,48.11,41.07,48.25,41.19,48.35z"/>
	<path id="XMLID_6104_" fill="#E8D2A4" d="M31.86,7.28c-0.18,0.11-0.19,0.23-0.02,0.36C31.84,7.52,31.85,7.4,31.86,7.28z"/>
	<path id="XMLID_6103_" fill="#E8D5A9" d="M31.02,32.98c0.03,0.04,0.06,0.1,0.1,0.13c0.06,0.04,0.11,0.02,0.12-0.05
		c0-0.01-0.04-0.04-0.06-0.05C31.12,33,31.07,33,31.02,32.98L31.02,32.98z"/>
	<path id="XMLID_6102_" fill="#E5D5AF" d="M33.44,11.04c-0.01,0.11-0.01,0.22-0.02,0.33C33.63,11.23,33.63,11.23,33.44,11.04z"/>
	<path id="XMLID_6101_" fill="#FBE7C4" d="M44.76,29.95c0.11-0.09,0.15-0.22,0.14-0.37C44.78,29.66,44.76,29.8,44.76,29.95z"/>
	<path id="XMLID_6100_" fill="#B8A67D" d="M35.53,2.64c0.12,0.01,0.25,0.02,0.37,0.03C35.79,2.47,35.66,2.49,35.53,2.64z"/>
	<path id="XMLID_6099_" fill="#E5D3A5" d="M3.66,27.88c0.14,0.02,0.27-0.01,0.36-0.15C3.87,27.71,3.75,27.75,3.66,27.88z"/>
	<path id="XMLID_6098_" fill="#E5D2A8" d="M52.6,10.77c-0.06-0.06-0.12-0.12-0.18-0.17C52.44,10.7,52.51,10.76,52.6,10.77z"/>
	<path id="XMLID_6097_" fill="#E5D2A8" d="M52.42,10.6c-0.05-0.08-0.09-0.15-0.14-0.22C52.28,10.48,52.33,10.55,52.42,10.6z"/>
	<path id="XMLID_6096_" fill="#AE9E79" d="M51.13,28.56c0.05-0.04,0.1-0.08,0.15-0.13C51.19,28.43,51.15,28.47,51.13,28.56z"/>
	<path id="XMLID_6095_" fill="#A59473" d="M49.9,30.49c-0.06-0.07-0.12-0.14-0.18-0.21c-0.01,0.03-0.03,0.06-0.04,0.09
		c0,0.09,0.04,0.16,0.13,0.18C49.84,30.54,49.87,30.52,49.9,30.49z"/>
	<path id="XMLID_6094_" fill="#CEBB91" d="M49.7,10.3c-0.06,0.05-0.12,0.09-0.19,0.14C49.61,10.44,49.67,10.39,49.7,10.3z"/>
	<path id="XMLID_6093_" fill="#B5A27B" d="M49,30.66c-0.07-0.06-0.13-0.11-0.2-0.17C48.84,30.58,48.91,30.65,49,30.66z"/>
	<path id="XMLID_6092_" fill="#E8D5AD" d="M49.03,29.19c-0.06,0.06-0.11,0.12-0.17,0.17C48.95,29.35,49.01,29.29,49.03,29.19z"/>
	<path id="XMLID_6091_" fill="#B5A27B" d="M48.32,30.44c-0.06-0.06-0.12-0.12-0.18-0.17c0,0.07,0.01,0.15,0.01,0.22
		C48.21,30.48,48.27,30.46,48.32,30.44z"/>
	<path id="XMLID_6090_" fill="#958458" d="M18.1,22.43c0.11,0.01,0.17-0.04,0.18-0.16C18.18,22.27,18.13,22.33,18.1,22.43z"/>
	<path id="XMLID_6089_" fill="#C2B090" d="M46.64,30.34c0.01,0.1,0.06,0.18,0.15,0.22C46.74,30.49,46.69,30.42,46.64,30.34z"/>
	<path id="XMLID_6088_" fill="#DDC3AD" d="M45.65,41.74c0.02,0.1,0.08,0.16,0.16,0.2l0,0C45.76,41.87,45.7,41.8,45.65,41.74
		L45.65,41.74z"/>
	<path id="XMLID_6087_" fill="#D6C59E" d="M41.59,46.89c0.02,0.03,0.05,0.06,0.08,0.09c0-0.02,0-0.04-0.01-0.05
		C41.64,46.9,41.61,46.9,41.59,46.89L41.59,46.89z"/>
	<path id="XMLID_6086_" fill="#D3C09D" d="M41.59,46.89c-0.02-0.1-0.08-0.16-0.17-0.19l0,0C41.44,46.79,41.5,46.86,41.59,46.89
		L41.59,46.89z"/>
	<path id="XMLID_6085_" fill="#D7C9A5" d="M41.26,46.5c0.02,0.1,0.08,0.16,0.16,0.19l0,0C41.4,46.6,41.34,46.53,41.26,46.5
		L41.26,46.5z"/>
	<path id="XMLID_6084_" fill="#D7C9A5" d="M40.76,45.57c0.01,0.1,0.05,0.18,0.14,0.21C40.9,45.67,40.85,45.6,40.76,45.57z"/>
	<path id="XMLID_6083_" fill="#CBB686" d="M20.7,22.21c0.06-0.05,0.13-0.1,0.19-0.15C20.8,22.06,20.73,22.11,20.7,22.21z"/>
	<path id="XMLID_6082_" fill="#B8A67D" d="M35.9,2.67c0.02,0.1,0.08,0.16,0.17,0.19C36.06,2.75,36,2.69,35.9,2.67z"/>
	<path id="XMLID_6081_" fill="#CBB686" d="M21.43,22.28c-0.09,0-0.16,0.03-0.21,0.11C21.29,22.36,21.36,22.32,21.43,22.28z"/>
	<path id="XMLID_6080_" fill="#E3D0A3" d="M33.77,11.81c0.06,0.05,0.12,0.11,0.17,0.16C33.92,11.88,33.86,11.82,33.77,11.81z"/>
	<path id="XMLID_6079_" fill="#D8C498" d="M33.07,12.86c0.05,0.06,0.1,0.12,0.15,0.18C33.17,12.98,33.12,12.92,33.07,12.86z"/>
	<path id="XMLID_6078_" fill="#D8C498" d="M33.06,13.39c-0.05-0.06-0.1-0.12-0.15-0.18C32.96,13.27,33.01,13.33,33.06,13.39z"/>
	<path id="XMLID_6077_" fill="#D8C498" d="M32.92,12.63c0.05,0.07,0.1,0.15,0.15,0.22C33.02,12.78,32.97,12.71,32.92,12.63z"/>
	<path id="XMLID_6076_" fill="#EFDAB0" d="M33.15,3.29c0.02-0.01,0.07-0.03,0.07-0.04C33.2,3.19,33.18,3.2,33.15,3.29L33.15,3.29z"
		/>
	<path id="XMLID_6075_" fill="#E8D5A9" d="M29.51,32c0.06,0.06,0.12,0.12,0.18,0.18C29.63,32.12,29.57,32.06,29.51,32z"/>
	<path id="XMLID_6074_" fill="#E8D5A9" d="M29.33,32.34c-0.06-0.06-0.12-0.11-0.18-0.17C29.21,32.23,29.27,32.29,29.33,32.34z"/>
	<path id="XMLID_6073_" fill="#E8D5A9" d="M29.17,31.81c0.06,0.06,0.13,0.12,0.19,0.17C29.3,31.92,29.24,31.86,29.17,31.81z"/>
	<path id="XMLID_6072_" fill="#E4D1A3" d="M28.5,31.4c0.02,0.1,0.07,0.16,0.17,0.19c0-0.05,0.01-0.11,0.01-0.16
		C28.62,31.42,28.56,31.41,28.5,31.4z"/>
	<path id="XMLID_6071_" fill="#BCA87A" d="M27.46,31.94c0.06,0.05,0.12,0.1,0.18,0.15C27.58,32.04,27.52,31.99,27.46,31.94z"/>
	<path id="XMLID_6070_" fill="#CCB88C" d="M27.6,20.14c0.05,0.04,0.1,0.04,0.16,0.01C27.71,20.02,27.66,19.99,27.6,20.14z"/>
	<path id="XMLID_6069_" fill="#F4DCBA" d="M60.97,23.3c-0.06-0.05-0.11-0.1-0.17-0.16C60.86,23.2,60.91,23.25,60.97,23.3z"/>
	<path id="XMLID_6068_" fill="#F4DCBA" d="M60.66,23.09c-0.06-0.06-0.13-0.13-0.19-0.19C60.5,23,60.56,23.07,60.66,23.09z"/>
	<path id="XMLID_6067_" fill="#E9D7B2" d="M60.7,13.91c0.02-0.01,0.07-0.03,0.07-0.04C60.75,13.81,60.73,13.82,60.7,13.91
		L60.7,13.91z"/>
	<path id="XMLID_6066_" fill="#F4DCBA" d="M60.48,22.91c-0.06-0.06-0.12-0.12-0.17-0.19C60.36,22.78,60.42,22.84,60.48,22.91z"/>
	<path id="XMLID_6065_" fill="#F4DCBA" d="M60.3,22.72c-0.06-0.06-0.11-0.13-0.17-0.19C60.19,22.59,60.25,22.66,60.3,22.72z"/>
	<path id="XMLID_6064_" fill="#AD9880" d="M60.08,24.01c-0.05,0-0.09-0.01-0.14-0.02c0.02,0.05,0.04,0.13,0.07,0.13
		C60.07,24.14,60.09,24.08,60.08,24.01z"/>
	<path id="XMLID_6063_" fill="#F4DCBA" d="M60.14,22.53c-0.02-0.1-0.08-0.16-0.16-0.19C60.03,22.4,60.08,22.46,60.14,22.53z"/>
	<path id="XMLID_6062_" fill="#8E7B4C" d="M12.47,25.56c-0.1,0.01-0.17,0.06-0.18,0.18c0.06,0.01,0.11,0.01,0.16-0.03
		C12.45,25.66,12.45,25.61,12.47,25.56z"/>
	<path id="XMLID_6061_" fill="#F4DCBA" d="M59.97,22.33c-0.02-0.1-0.08-0.15-0.17-0.17C59.86,22.22,59.92,22.28,59.97,22.33z"/>
	<path id="XMLID_6060_" fill="#D4C6A4" d="M59.99,14.61c-0.05,0.06-0.11,0.12-0.17,0.18C59.91,14.77,59.97,14.71,59.99,14.61z"/>
	<path id="XMLID_6059_" fill="#D4C6A4" d="M59.66,14.41c0.06-0.05,0.12-0.1,0.18-0.15C59.77,14.31,59.72,14.36,59.66,14.41z"/>
	<path id="XMLID_6058_" fill="#B6A27D" d="M58.66,46.55c0,0.05,0,0.1,0.01,0.15c0.05,0.02,0.11,0.02,0.16,0.01
		C58.78,46.66,58.72,46.61,58.66,46.55z"/>
	<path id="XMLID_6057_" fill="#C8B58F" d="M59.33,19.35c-0.05,0.05-0.11,0.1-0.16,0.15C59.27,19.51,59.32,19.46,59.33,19.35z"/>
	<path id="XMLID_6056_" fill="#C5B18A" d="M59.26,17.53c0.05-0.05,0.1-0.1,0.15-0.15C59.33,17.39,59.28,17.44,59.26,17.53z"/>
	<path id="XMLID_6055_" fill="#766F54" d="M58.38,44.35c0.06,0.06,0.11,0.12,0.17,0.18C58.53,44.42,58.48,44.36,58.38,44.35z"/>
	<path id="XMLID_6054_" fill="#C5B18A" d="M59.08,17.7c0.05-0.05,0.11-0.11,0.16-0.16C59.15,17.56,59.1,17.61,59.08,17.7z"/>
	<path id="XMLID_6053_" fill="#EBD7B6" d="M57.42,48.52c0.01,0.03,0.03,0.08,0.04,0.08C57.51,48.58,57.5,48.55,57.42,48.52
		L57.42,48.52z"/>
	<path id="XMLID_6052_" fill="#BEA981" d="M57.86,17.45c0.06-0.06,0.12-0.12,0.18-0.18C57.94,17.29,57.88,17.35,57.86,17.45z"/>
	<path id="XMLID_6051_" fill="#BEA981" d="M57.7,17.64c0.06,0,0.11,0.01,0.17,0.01c0-0.07,0-0.13-0.01-0.2
		C57.76,17.46,57.71,17.52,57.7,17.64z"/>
	<path id="XMLID_6050_" fill="#B6A57B" d="M13.65,24.85c0,0.06,0,0.12,0,0.18c0.06,0.01,0.11,0,0.16-0.03
		C13.75,24.95,13.7,24.9,13.65,24.85z"/>
	<path id="XMLID_6049_" fill="#A79674" d="M53.53,47.43c0.03,0.1,0.08,0.17,0.18,0.17C53.68,47.49,53.61,47.45,53.53,47.43z"/>
	<path id="XMLID_6048_" fill="#7C6A41" d="M45.96,29.05c0.11-0.14,0.22-0.28,0.15-0.48c-0.16-0.02-0.32-0.04-0.47-0.06
		c-0.05,0.05-0.11,0.11-0.15,0.17c-0.01,0.12-0.02,0.24-0.04,0.36c-0.06,0.06-0.05,0.12,0,0.18C45.66,29.29,45.8,29.13,45.96,29.05z
		"/>
	<path id="XMLID_6047_" fill="#8A7A54" d="M45.45,29.21c0.01-0.06,0-0.12,0-0.18c-0.06,0.01-0.11,0-0.16-0.04
		c-0.33,0.3-0.18,0.62-0.02,0.94c0.05,0.01,0.1,0.02,0.15,0.01C45.43,29.7,45.44,29.46,45.45,29.21z"/>
	<path id="XMLID_6046_" fill="#94835E" d="M45.49,28.68c0.05-0.06,0.1-0.11,0.15-0.17C45.54,28.51,45.49,28.56,45.49,28.68z"/>
	<path id="XMLID_6045_" fill="#8C7C55" d="M59.5,20.46c0.06,0.01,0.12,0.02,0.18,0.02c0.18-0.11,0.19-0.24,0.02-0.37
		C59.62,20.23,59.56,20.35,59.5,20.46z"/>
	<path id="XMLID_6044_" fill="#8C7C55" d="M59.52,19.94c0.06,0.06,0.12,0.11,0.17,0.17C59.66,20.02,59.61,19.96,59.52,19.94z"/>
	<path id="XMLID_6043_" fill="#D5BC8F" d="M57.65,19.12c0.01,0.05,0.02,0.1,0.04,0.15c0.18-0.13,0.25-0.32,0.31-0.53
		c-0.1,0-0.2,0.01-0.3,0.01C57.68,18.88,57.66,19,57.65,19.12z"/>
	<path id="XMLID_6042_" fill="#877349" d="M57.81,20.03c0.05-0.06,0.11-0.12,0.16-0.18c0.02-0.03,0.01-0.09,0.02-0.13
		c-0.05-0.01-0.11-0.03-0.15-0.02c-0.16,0.04-0.18,0.18-0.2,0.33c0.03,0.03,0.05,0.05,0.08,0.07
		C57.75,20.08,57.78,20.06,57.81,20.03L57.81,20.03z"/>
	<path id="XMLID_6041_" fill="#908261" d="M58.67,19.71c-0.02,0.01-0.07,0.03-0.07,0.04C58.62,19.8,58.64,19.79,58.67,19.71
		L58.67,19.71z"/>
	<path id="XMLID_6040_" fill="#877349" d="M57.46,20.2c0.06,0,0.11,0,0.17,0c0.06-0.06,0.06-0.11,0.01-0.17l0,0
		C57.58,20.08,57.52,20.14,57.46,20.2z"/>
	<path id="XMLID_6039_" fill="#877349" d="M57.31,19.65c0.01,0.03,0.03,0.08,0.04,0.07C57.4,19.71,57.39,19.68,57.31,19.65
		L57.31,19.65z"/>
	<path id="XMLID_6038_" fill="#F4DCBA" d="M62.02,23.38c0.35-0.18,0.36-0.2,0.12-0.57c-0.17,0.01-0.33-0.04-0.47-0.15
		c-0.41-0.33-0.91-0.41-1.36-0.63c-0.1,0.18,0.01,0.26,0.08,0.32c0.26,0.23,0.52,0.46,0.79,0.67C61.43,23.22,61.69,23.4,62.02,23.38
		z"/>
	<path id="XMLID_6037_" fill="#7E6B42" d="M42.98,19.05c0.22-0.01,0.45-0.02,0.67-0.03c-0.16-0.22-0.36-0.36-0.62-0.37
		c-0.07,0.06-0.14,0.11-0.21,0.17c-0.09,0.06-0.09,0.11,0,0.17C42.89,18.99,42.94,19.01,42.98,19.05z"/>
	<path id="XMLID_6036_" fill="#C5AF7E" d="M42.84,18.98c-0.02-0.06-0.02-0.11,0-0.17c-0.08,0-0.17-0.01-0.25,0
		c-0.05,0.01-0.09,0.05-0.14,0.08c0.05,0.03,0.09,0.07,0.14,0.08C42.67,18.98,42.75,18.98,42.84,18.98z"/>
	<path id="XMLID_6035_" fill="#E3CFAB" d="M26.6,30.75c0.13,0.19,0.33,0.28,0.52,0.37c0-0.1,0.01-0.2,0.01-0.3
		c-0.07-0.12-0.04-0.29-0.15-0.4c-0.1,0.05-0.21,0.1-0.31,0.16C26.65,30.63,26.62,30.69,26.6,30.75z"/>
	<path id="XMLID_6034_" fill="#BCA87A" d="M26.98,30.42c0.02,0.15,0.05,0.29,0.15,0.4C27.15,30.65,27.14,30.5,26.98,30.42z"/>
	<path id="XMLID_6033_" fill="#CAF6FF" d="M51.73,44.58c-0.06,0.06-0.12,0.11-0.18,0.17C51.61,44.69,51.66,44.64,51.73,44.58z"/>
	<path id="XMLID_6032_" fill="#9A885A" d="M32.6,11.36c0-0.11-0.01-0.22-0.02-0.33c-0.04-0.04-0.09-0.07-0.14-0.11
		c-0.12-0.1-0.25-0.18-0.38-0.07c-0.2,0.16-0.01,0.31,0.05,0.47C32.28,11.32,32.44,11.34,32.6,11.36z"/>
	<path id="XMLID_6031_" fill="#E1CC9E" d="M36.87,10.81c-0.23-0.31-0.55-0.16-0.84-0.21C36.26,10.9,36.59,10.76,36.87,10.81z"/>
	<path id="XMLID_6030_" fill="#6F5C2D" d="M40.54,36.44c-0.07-0.23-0.16-0.44-0.36-0.56c-0.08-0.05-0.15,0.06-0.16,0.15
		c-0.01,0.28,0.11,0.43,0.38,0.48C40.44,36.51,40.49,36.47,40.54,36.44z"/>
	<path id="XMLID_6029_" fill="#4C4630" d="M61.99,16.19c0.03-0.03,0.05-0.06,0.08-0.09C62.05,16.13,62.02,16.16,61.99,16.19
		L61.99,16.19z"/>
	<path id="XMLID_6028_" fill="#D9BF88" d="M36.79,15.38c0.06-0.05,0.12-0.09,0.18-0.14c-0.04-0.06-0.08-0.15-0.15-0.08
		C36.78,15.2,36.79,15.31,36.79,15.38z"/>
	<path id="XMLID_6027_" fill="#88754A" d="M33.86,9.75c-0.01-0.06-0.02-0.12-0.02-0.18c-0.05,0-0.1-0.02-0.15-0.04
		c-0.25,0.04-0.52-0.07-0.73,0.16c-0.26,0.41-0.21,0.66,0.3,0.68c0.12-0.04,0.17-0.16,0.25-0.24C33.72,10.11,33.81,9.95,33.86,9.75z
		"/>
	<path id="XMLID_6026_" fill="#88754A" d="M32.29,10.42l0,0.09l0,0.09c0.33,0.01,0.66,0.02,0.98,0.03c0.08-0.09,0.06-0.17-0.04-0.24
		C32.92,10.36,32.59,10.1,32.29,10.42z"/>
	<path id="XMLID_6025_" fill="#A3926C" d="M33.28,10.46l0,0.08l-0.01,0.08c0.31-0.14,0.31-0.14,0.24-0.49
		c-0.1,0.01-0.17,0.06-0.22,0.16C33.22,10.34,33.22,10.4,33.28,10.46z"/>
	<path id="XMLID_6024_" fill="#D9C492" d="M31.06,10.91c0.11,0.21,0.23,0.22,0.36,0.04c-0.06-0.07-0.12-0.14-0.18-0.2
		c-0.05,0-0.1,0.01-0.15,0.01C31.08,10.8,31.07,10.86,31.06,10.91z"/>
	<path id="XMLID_6023_" fill="#A99876" d="M50.28,46.52c-0.05,0.07-0.1,0.13-0.15,0.2C50.22,46.69,50.27,46.62,50.28,46.52z"/>
	<path id="XMLID_6022_" fill="#D4C196" d="M26.94,32.25c0.01-0.05,0.01-0.11,0.01-0.17c0.01-0.19,0.01-0.38,0.02-0.57
		C26.73,31.84,26.73,31.88,26.94,32.25z"/>
	<path id="XMLID_6021_" fill="#806C3B" d="M33.28,10.46c0.02-0.06,0.02-0.11,0.01-0.17c-0.05-0.01-0.11-0.01-0.16-0.03
		c-0.21-0.09-0.33-0.21-0.1-0.43c0.01,0-0.05-0.09-0.08-0.13c-0.11-0.01-0.21-0.01-0.32-0.01c-0.17,0.13-0.34,0.25-0.51,0.37
		c0.05,0.12,0.11,0.24,0.16,0.37C32.62,10.44,32.95,10.45,33.28,10.46z"/>
	<path id="XMLID_6020_" fill="#7B693F" d="M34.55,26.92c-0.22-0.07-0.48,0-0.67-0.2c-0.11-0.01-0.27-0.01-0.18,0.15
		c0.11,0.2,0.29,0.36,0.46,0.51c0.12,0.11,0.26,0.02,0.32-0.2C34.51,27.09,34.53,27.01,34.55,26.92z"/>
	<path id="XMLID_6019_" fill="#AF9C6E" d="M31.97,9.31c-0.02,0.01-0.07,0.03-0.07,0.03C31.91,9.41,31.94,9.39,31.97,9.31L31.97,9.31
		z"/>
	<path id="XMLID_6018_" fill="#A18D5B" d="M18.69,34.63c-0.02-0.18-0.05-0.34-0.26-0.35c-0.17,0-0.21,0.13-0.23,0.28
		C18.36,34.59,18.52,34.61,18.69,34.63z"/>
	<path id="XMLID_6017_" fill="#806E45" d="M57.64,20.03c0,0.06,0,0.12-0.01,0.17c0.06-0.06,0.12-0.11,0.17-0.16
		C57.75,20.03,57.69,20.03,57.64,20.03z"/>
	<path id="XMLID_6016_" fill="#C2AC80" d="M38.54,13.26c0.05-0.07,0.11-0.13,0.14-0.21c0.02-0.04,0-0.13-0.03-0.16
		c-0.07-0.08-0.14-0.02-0.2,0.04c-0.04,0.04-0.06,0.1-0.09,0.15l0,0C38.42,13.15,38.47,13.21,38.54,13.26L38.54,13.26z"/>
	<path id="XMLID_6015_" fill="#7F7048" d="M49.8,30.56c-0.04-0.06-0.09-0.12-0.13-0.18c-0.11-0.02-0.21-0.03-0.32-0.05
		c0.01,0.11,0.01,0.21,0.02,0.32C49.53,30.69,49.7,30.76,49.8,30.56z"/>
	<path id="XMLID_6014_" fill="#9C8C68" d="M38.53,13.27c-0.06-0.06-0.11-0.12-0.17-0.18C38.39,13.18,38.44,13.24,38.53,13.27z"/>
	<path id="XMLID_6013_" fill="#9C8C68" d="M38.19,13.08c-0.02,0.01-0.07,0.03-0.07,0.03C38.13,13.18,38.16,13.16,38.19,13.08
		L38.19,13.08z"/>
</g>
</svg>
