<?xml version="1.0" encoding="utf-8"?>
<!-- Generator: Adobe Illustrator 24.2.3, SVG Export Plug-In . SVG Version: 6.00 Build 0)  -->
<svg version="1.1" id="OBJECTS" xmlns="http://www.w3.org/2000/svg" xmlns:xlink="http://www.w3.org/1999/xlink" x="0px" y="0px"
	 viewBox="0 0 60 50" enable-background="new 0 0 60 50" xml:space="preserve">
<g id="XMLID_884_">
	<path id="XMLID_255_" fill-rule="evenodd" clip-rule="evenodd" fill="#D0BFB9" d="M26.18,32.69c-0.04-0.03-0.08-0.05-0.13-0.06
		c-0.07,0-0.13-0.02-0.19-0.05c-0.06-0.04-0.12-0.08-0.16-0.15c0.26-0.11,0.03-0.42,0.22-0.56c0.09-0.06,0.2-0.04,0.3-0.05l0,0
		c0.12-0.04,0.23,0.06,0.35,0.05c0.04,0.03,0.08,0.04,0.12,0.06c0.07-0.02,0.15-0.02,0.22-0.02c0.04,0.03,0.07,0.05,0.11,0.06
		c0.07-0.02,0.15-0.02,0.22-0.02c0.03,0.03,0.07,0.05,0.11,0.06c0.12-0.03,0.22,0.07,0.34,0.04l-0.01,0
		c0.12-0.04,0.23,0.06,0.34,0.03l0,0c0.12-0.03,0.22,0.07,0.34,0.03h0c0.12-0.02,0.22,0.07,0.34,0.04l0,0
		c0.12-0.03,0.22,0.07,0.34,0.04l0,0c0.12-0.03,0.22,0.06,0.34,0.04l-0.01,0c0.12-0.04,0.23,0.06,0.34,0.04l-0.01,0
		c0.12-0.04,0.23,0.06,0.35,0.04c0.04,0.03,0.08,0.05,0.13,0.06c0.11-0.02,0.21,0.08,0.33,0.05h0c0.12-0.03,0.23,0.07,0.34,0.05
		c0.04,0.03,0.09,0.05,0.13,0.06c0.12-0.01,0.21,0.08,0.33,0.06c0.04,0.03,0.08,0.05,0.13,0.07c0.12-0.02,0.22,0.08,0.34,0.05
		c0.04,0.03,0.08,0.05,0.12,0.07c0.12-0.02,0.22,0.08,0.34,0.05c0.04,0.03,0.08,0.05,0.12,0.07c0.12-0.03,0.23,0.07,0.35,0.06
		c0.04,0.03,0.08,0.05,0.12,0.06c0.17-0.04,0.28,0.18,0.46,0.12l0,0c0.12-0.02,0.22,0.07,0.34,0.05c0.04,0.03,0.08,0.05,0.13,0.06
		c0.11-0.03,0.21,0.08,0.32,0.04l0.01,0c0.07-0.01,0.14,0.01,0.2,0.04c0.75,0.42,1.54,0.56,2.39,0.43c0.15,0.03,0.29,0.09,0.43,0.16
		c0.07,0.04,0.13,0.08,0.2,0.12c0.26,0.17,0.52,0.33,0.78,0.5c0.19,0.12,0.37,0.26,0.58,0.35c0.07,0.03,0.14,0.06,0.22,0.08
		c0.08,0.02,0.15,0.06,0.22,0.1c0.22,0.19,0.51,0.38,0.06,0.64c-0.25-0.15-0.54-0.25-0.71-0.51c-0.34-0.22-0.69-0.44-1.03-0.66
		c-0.18,0.04-0.28-0.17-0.46-0.13l0,0c-0.3,0.11-0.6-0.04-0.9-0.03c-0.03-0.03-0.07-0.05-0.11-0.07c-0.18,0.05-0.29-0.17-0.47-0.12
		l0.01,0c-0.28-0.01-0.53-0.13-0.81-0.15h0c-0.18,0.02-0.37,0-0.55,0l0.01,0c-0.13,0.04-0.23-0.06-0.35-0.04
		c-0.03-0.03-0.07-0.05-0.11-0.06c-0.12,0.03-0.23-0.07-0.35-0.05c-0.04-0.03-0.07-0.05-0.12-0.06c-0.12,0.03-0.23-0.07-0.35-0.05
		c-0.04-0.03-0.08-0.04-0.13-0.06c-0.07,0-0.13-0.03-0.18-0.09c-0.64-0.53-1.46-0.41-2.1-0.57c0.48,0.23,1.19-0.03,1.72,0.42
		c0.01,0.08-0.03,0.13-0.1,0.16l-0.01,0c-0.07,0-0.14,0.03-0.21,0.03l0.01,0c-0.12,0.05-0.22-0.06-0.34-0.03h0
		c-0.12,0.04-0.23-0.06-0.34-0.04l0,0c-0.12,0.04-0.22-0.06-0.34-0.03h0c-0.12,0.04-0.22-0.06-0.34-0.03h0
		c-0.07,0.02-0.14,0.04-0.21,0.04h0c-0.07,0.02-0.14,0.04-0.21,0.04l0.01,0c-0.12,0.05-0.22-0.06-0.34-0.02l0,0
		c-0.08,0.02-0.15,0.03-0.23,0.03c-0.03-0.03-0.07-0.04-0.12-0.05c-0.11,0.03-0.21-0.08-0.33-0.03l-0.01,0
		c-0.07,0-0.13,0.02-0.19,0.05l-0.02,0.01c-0.24,0.06-0.48,0.16-0.71,0.24l0.01,0c-0.07,0.03-0.14,0.04-0.21,0.05l0,0
		c-0.26,0.14-0.54,0.18-0.84,0.19l0,0c-0.07,0.01-0.14,0.03-0.21,0.04l0.01,0c-0.07,0.02-0.14,0.04-0.22,0.04h0
		c-0.07,0.03-0.14,0.04-0.21,0.05h0c-0.23,0.1-0.48,0.17-0.72,0.26l0.01,0c-0.07,0.03-0.14,0.05-0.21,0.05l0.01,0
		c-0.15,0.01-0.29,0.04-0.43,0.09l0.01,0c-0.06,0.02-0.12,0.02-0.18,0.01c-0.06,0-0.12,0-0.19,0c-0.03-0.01-0.06-0.03-0.08-0.05
		c-0.21-0.32,0.01-0.47,0.24-0.61c0.05-0.05,0.1-0.08,0.17-0.09h-0.01c0.07-0.03,0.14-0.04,0.21-0.05l0,0
		c0.12-0.02,0.17-0.16,0.3-0.16l-0.01,0c0.07-0.03,0.14-0.04,0.21-0.05l-0.01,0c0.07-0.02,0.14-0.04,0.21-0.05l0,0
		c0.07-0.02,0.14-0.04,0.22-0.04l-0.01,0c0.12-0.04,0.22,0.06,0.34,0.03l0,0c0.07-0.01,0.14-0.03,0.21-0.05h0
		c0.12-0.02,0.17-0.15,0.29-0.17l0,0c0.07-0.03,0.14-0.05,0.2-0.09c0.12-0.06,0.32-0.08,0.3-0.25c-0.01-0.05-0.23-0.16-0.39-0.14
		l0.01,0c-0.12,0.04-0.23-0.06-0.34-0.03l0.01,0C26.63,32.75,26.41,32.66,26.18,32.69z"/>
	<path id="XMLID_254_" fill-rule="evenodd" clip-rule="evenodd" fill="#C6B0A9" d="M48.49,41.21c0.08,0.06,0.16,0.11,0.23,0.17
		c0.01,0.05,0.03,0.09,0.09,0.11c0.04,0.01,0.06,0.01,0.07,0c0.16,0.1,0.32,0.2,0.48,0.31c0.03,0.07,0.01,0.13-0.05,0.17
		c-0.32,0.29,0.07,0.3,0.17,0.39c0.48,0.4,1.13,0.58,1.5,1.13c0.02,0.08-0.02,0.13-0.09,0.16c-0.22-0.13-0.44-0.25-0.66-0.38
		c-0.52-0.21-0.98-0.52-1.4-0.89c-0.16-0.11-0.32-0.23-0.48-0.34c-1.06-0.86-2.27-1.48-3.38-2.25c-0.52-0.36-1.1-0.61-1.55-1.06
		c-0.16-0.11-0.33-0.22-0.49-0.34c-0.04-0.12-0.17-0.17-0.23-0.28c0.04-0.12,0.12-0.18,0.25-0.13c-0.01-0.04-0.05-0.04-0.08-0.06
		c-0.17-0.11-0.39-0.15-0.48-0.34c-0.09-0.2-0.19-0.45,0.22-0.36c0.64,0.43,1.32,0.81,1.94,1.27c-0.19,0.44-0.49-0.06-0.68,0.12
		c0.23,0,0.48,0.11,0.75,0.09c0.3,0.14,0.52,0.43,0.87,0.47c0.02,0.03,0.06,0.05,0.09,0.06c0.65,0.6,1.46,0.96,2.17,1.47
		C48.02,40.85,48.31,40.94,48.49,41.21z"/>
	<path id="XMLID_253_" fill-rule="evenodd" clip-rule="evenodd" fill="#CFBEB8" d="M12.35,20.24c-0.38-0.24-0.75-0.48-1.13-0.72
		c-0.01-0.05-0.04-0.08-0.08-0.09c-0.04-0.01-0.06-0.01-0.07,0c-0.63-0.41-1.26-0.81-1.9-1.21c-0.03-0.07-0.08-0.1-0.15-0.1
		C8.87,18,8.7,17.9,8.54,17.8c-0.31-0.44-0.9-0.51-1.21-0.95c-0.03-0.03-0.07-0.06-0.12-0.08c-0.24-0.3-0.55-0.48-0.91-0.59l0,0
		c-0.07,0.02-0.13,0.04-0.2,0.06l-0.02,0.01c-0.09,0-0.14-0.04-0.16-0.13c0.04-0.32,0.25-0.47,0.53-0.56
		c0.09-0.01,0.15,0.03,0.17,0.12c0.03,0.03,0.07,0.06,0.11,0.08c0.08,0.17,0.21,0.26,0.4,0.26c0.08,0.05,0.16,0.1,0.24,0.15
		c1.09,0.9,2.36,1.55,3.52,2.34c0.4,0.27,0.81,0.52,1.21,0.78c0.07,0.06,0.22,0.1,0.17,0.2c-0.12,0.3-0.36,0.1-0.55,0.09
		c0.28,0.21,0.79,0.06,0.9,0.57C12.57,20.28,12.45,20.23,12.35,20.24z"/>
	<path id="XMLID_252_" fill-rule="evenodd" clip-rule="evenodd" fill="#DDD1CD" d="M16.42,21.23c0.04,0.03,0.08,0.05,0.12,0.07
		c0.34-0.01,0.51,0.38,0.85,0.37c0.09,0.05,0.17,0.1,0.25,0.16c0.18-0.04,0.29,0.17,0.47,0.13c0.13,0.08,0.25,0.16,0.38,0.23
		c0.18-0.04,0.29,0.17,0.47,0.13c0.04,0.03,0.08,0.05,0.12,0.07c0.24-0.04,0.36,0.25,0.6,0.21c0.04,0.03,0.08,0.05,0.13,0.07
		c0.16-0.01,0.26,0.09,0.37,0.18c-0.21,0.36,0.22,0.51,0.27,0.78c0,0.07-0.04,0.12-0.09,0.16c-0.09,0.03-0.19,0.03-0.29,0.02
		c-0.06,0-0.12-0.01-0.19-0.02c-0.09-0.01-0.19-0.03-0.28-0.05c-0.06-0.02-0.12-0.05-0.17-0.09c-0.05-0.04-0.1-0.09-0.15-0.13
		c-0.23-0.15-0.3-0.49-0.64-0.5c-0.04-0.03-0.08-0.05-0.12-0.07c-0.29,0.02-0.43-0.32-0.73-0.29c-0.09-0.05-0.17-0.1-0.26-0.15
		c-0.23,0.03-0.36-0.25-0.59-0.21c-0.09-0.05-0.17-0.1-0.26-0.15c-0.28,0.01-0.43-0.32-0.72-0.29c-0.04-0.03-0.08-0.05-0.13-0.08
		c-0.12,0.02-0.2-0.04-0.27-0.12c-0.13-0.28-0.26-0.55-0.4-0.82c0-0.08,0.04-0.13,0.12-0.14c0.13,0.08,0.26,0.16,0.38,0.23
		C15.99,20.93,16.13,21.26,16.42,21.23z"/>
	<path id="XMLID_251_" fill-rule="evenodd" clip-rule="evenodd" fill="#D4C4BF" d="M25.99,31.88c-0.13,0.14,0.08,0.42-0.19,0.51
		c0.05,0.05,0.09,0.1,0.14,0.16c0,0.06-0.03,0.1-0.1,0.11c-0.04-0.03-0.08-0.05-0.13-0.06c-0.12,0.02-0.21-0.08-0.33-0.05l0,0
		c-0.12,0.03-0.22-0.06-0.34-0.04l0,0c-0.23-0.02-0.45-0.11-0.69-0.08c-0.04-0.03-0.08-0.05-0.12-0.07
		c-0.12,0.03-0.22-0.07-0.34-0.04h0c-0.18,0.06-0.29-0.16-0.47-0.11h0c-0.18,0.05-0.29-0.17-0.46-0.11l0,0
		c-0.18,0.04-0.29-0.17-0.47-0.13c-0.04-0.03-0.08-0.05-0.12-0.07c-0.12,0.04-0.22-0.07-0.35-0.04c-0.04-0.03-0.08-0.05-0.12-0.07
		c-0.18,0.04-0.29-0.17-0.47-0.13c-0.04-0.03-0.08-0.05-0.12-0.07c-0.15,0.02-0.25-0.09-0.36-0.16c-0.05-0.07-0.02-0.19,0.02-0.18
		c0.39,0.07,0.14-0.18,0.16-0.3c0.02-0.07,0.07-0.11,0.14-0.11c0.04,0.03,0.09,0.05,0.13,0.06c0.13-0.01,0.21,0.07,0.31,0.13
		c0.02,0,0,0.09,0.06,0.03c0.02-0.03,0.05-0.04,0.09-0.04c0.05,0.03,0.1,0.05,0.15,0.07c0.11-0.01,0.21,0.08,0.33,0.06
		c0.04,0.03,0.08,0.05,0.13,0.07c0.12-0.02,0.22,0.08,0.33,0.06c0.04,0.03,0.08,0.05,0.13,0.06c0.12-0.03,0.22,0.08,0.33,0.04
		c0.05,0.02,0.09,0.04,0.14,0.07c0.11-0.01,0.21,0.08,0.33,0.05h0c0.12-0.04,0.22,0.06,0.34,0.04l-0.01,0
		c0.12-0.04,0.23,0.06,0.35,0.05c0.04,0.03,0.07,0.05,0.12,0.06c0.12-0.03,0.22,0.07,0.34,0.04v0c0.12-0.03,0.22,0.07,0.34,0.04l0,0
		c0.12-0.04,0.22,0.06,0.34,0.04l0,0c0.12-0.04,0.22,0.06,0.34,0.04l-0.01,0c0.06-0.02,0.09-0.01,0.11,0.02
		C26,31.84,26,31.87,25.99,31.88z"/>
	<path id="XMLID_250_" fill-rule="evenodd" clip-rule="evenodd" fill="#C6AFA8" d="M25.35,23.87c0.03,0.04,0.07,0.07,0.11,0.09
		c0.1,0.27,0.47,0.27,0.57,0.54c0.03,0.04,0.06,0.06,0.1,0.08c0.03,0.07,0.02,0.13-0.04,0.17c-0.39,0.15-0.71-0.11-1.07-0.18
		c-0.03-0.01-0.06-0.02-0.09-0.03c-0.03-0.04-0.06-0.07-0.1-0.09c-0.11-0.27-0.47-0.27-0.57-0.54c-0.03-0.04-0.07-0.06-0.11-0.08
		c-0.11-0.27-0.46-0.27-0.58-0.53c-0.08-0.06-0.15-0.11-0.23-0.17c-0.11-0.27-0.48-0.26-0.58-0.55l0,0.01
		c-0.22-0.38-0.74-0.4-0.95-0.79c-0.08-0.05-0.16-0.1-0.23-0.15c-0.01-0.03-0.02-0.07-0.03-0.1c0.05-0.05,0.1-0.08,0.18-0.09
		c0.35,0.07,0.7,0.17,1.07,0.17c0.17,0.13,0.39,0.19,0.5,0.39c0.08,0.06,0.16,0.12,0.24,0.17c0.07,0.23,0.38,0.23,0.45,0.46
		c0.03,0.04,0.07,0.06,0.11,0.08c0.11,0.27,0.48,0.27,0.58,0.55c0.03,0.03,0.06,0.06,0.1,0.07C24.88,23.6,25.23,23.61,25.35,23.87z"
		/>
	<path id="XMLID_249_" fill-rule="evenodd" clip-rule="evenodd" fill="#C4ADA6" d="M28.86,26.84c0.12,0.08,0.24,0.16,0.36,0.24
		c0.27,0.4,0.82,0.46,1.09,0.87c0.08,0.05,0.16,0.11,0.24,0.16c0.19,0.34,0.64,0.36,0.83,0.7c0.08,0.05,0.15,0.11,0.23,0.17
		c0.01,0.03,0.02,0.06,0.04,0.09c-0.04,0.05-0.1,0.08-0.16,0.1c-0.22-0.02-0.42,0.14-0.65,0.1c-0.11-0.07-0.24-0.12-0.29-0.26
		c-0.03-0.04-0.07-0.07-0.11-0.09c-0.27-0.4-0.81-0.47-1.08-0.86c-0.12-0.08-0.25-0.17-0.37-0.25c-0.31-0.44-0.9-0.52-1.22-0.94
		l0.01-0.01c-0.15-0.27-0.47-0.31-0.68-0.5c-0.05-0.08-0.07-0.16-0.04-0.24c0.16-0.32,0.39-0.36,0.64-0.13
		c0.17,0.15,0.36,0.25,0.54,0.38C28.44,26.53,28.72,26.59,28.86,26.84z"/>
	<path id="XMLID_248_" fill-rule="evenodd" clip-rule="evenodd" fill="#C6B0A9" d="M36.65,33.83c-0.14,0.05-0.28,0.1-0.42,0.16
		c-0.15,0.06-0.28,0.07-0.43,0.01c-0.35-0.15-0.72-0.21-1.09-0.26c-0.23-0.03-0.44-0.11-0.46-0.4c0.2-0.51,0.56-0.12,0.84-0.15
		h-0.01c0.18-0.07,0.29,0.16,0.47,0.11l0,0c0.27-0.32-0.22-0.29-0.22-0.49c-0.08-0.06-0.16-0.12-0.24-0.18
		c-0.03-0.06-0.02-0.11,0.04-0.15c0.19-0.05,0.18-0.42,0.48-0.31c0.27,0.08,0.49,0.45,0.84,0.15c0.06-0.04,0.12-0.04,0.19-0.02
		c0.1,0.23,0.36,0.32,0.46,0.54l0,0c0.03,0.18,0.28,0.19,0.3,0.38l0-0.01c0.04,0.18,0.28,0.19,0.3,0.38l-0.01-0.01
		c0.02,0.07,0,0.13-0.07,0.16c-0.18,0.02-0.34-0.04-0.46-0.17c-0.12-0.13-0.13-0.02-0.16,0.06c-0.05,0.03-0.1,0.05-0.15,0.06
		C36.75,33.71,36.68,33.74,36.65,33.83z"/>
	<path id="XMLID_247_" fill-rule="evenodd" clip-rule="evenodd" fill="#B79C93" d="M34.38,32c-0.02-0.04-0.06-0.06-0.1-0.07
		c-0.28-0.4-0.82-0.46-1.1-0.87c-0.08-0.05-0.15-0.1-0.23-0.16c-0.32-0.43-0.92-0.51-1.23-0.96c-0.12-0.08-0.23-0.16-0.35-0.23
		c-0.05-0.05-0.05-0.1-0.01-0.16c0.11-0.12,0.04-0.31,0.17-0.42l0.03-0.03c1,0.42,1.68,1.29,2.58,1.85
		c0.12,0.08,0.24,0.16,0.35,0.25c0.15,0.31,0.57,0.31,0.71,0.63c0.08,0.05,0.15,0.1,0.23,0.16c0.04,0.07,0.02,0.13-0.05,0.16
		c-0.25-0.02-0.46,0.16-0.71,0.14C34.57,32.21,34.42,32.16,34.38,32z"/>
	<path id="XMLID_246_" fill-rule="evenodd" clip-rule="evenodd" fill="#BA9F96" d="M14.7,8.44c-0.02-0.04-0.05-0.07-0.09-0.1
		c-0.03-0.06-0.06-0.13-0.08-0.19c-0.02-0.04-0.06-0.08-0.09-0.11c-0.04-0.06-0.03-0.11,0.02-0.16c0.17-0.08,0.34-0.16,0.51-0.22
		c0.07,0,0.13,0.02,0.18,0.06c0.1,0.1,0.12,0.22,0.13,0.35l0-0.01c0.03,0.12,0.17,0.17,0.18,0.3l0-0.01
		c0.03,0.11,0.17,0.17,0.18,0.3l0-0.01c0.03,0.12,0.17,0.17,0.18,0.3l0-0.01c0.03,0.11,0.17,0.17,0.18,0.3l0-0.01
		c0.08,0.22,0.26,0.38,0.35,0.59l0-0.01c0.03,0.12,0.17,0.17,0.18,0.3l0-0.01c0.02,0.07,0.05,0.13,0.07,0.2
		c0.02,0.04,0.04,0.06,0.08,0.08c0.05,0.06,0.07,0.14,0.1,0.22v0c0.01,0.12,0.15,0.17,0.16,0.3l0,0c0.04,0.1,0.1,0.18,0.09,0.29
		c-0.34,0.66-0.55,0.14-0.78-0.09c-0.07-0.07-0.16-0.12-0.17-0.23l0,0.01c-0.02-0.06-0.04-0.13-0.07-0.19
		c-0.02-0.04-0.04-0.07-0.08-0.09c-0.05-0.06-0.07-0.14-0.09-0.22l0-0.01c-0.01-0.12-0.14-0.17-0.17-0.28l0-0.01
		c-0.01-0.12-0.15-0.17-0.16-0.29v0c-0.02-0.12-0.16-0.17-0.16-0.3l0,0.01c-0.02-0.06-0.04-0.12-0.07-0.19
		c-0.02-0.04-0.05-0.08-0.1-0.1c-0.02-0.06-0.05-0.13-0.08-0.19c-0.01-0.04-0.04-0.08-0.08-0.1c-0.04-0.06-0.06-0.13-0.09-0.2
		c-0.02-0.04-0.05-0.07-0.09-0.1C14.75,8.58,14.73,8.5,14.7,8.44z"/>
	<path id="XMLID_245_" fill-rule="evenodd" clip-rule="evenodd" fill="#BAA097" d="M14.31,14.09c0.04,0.03,0.08,0.06,0.12,0.1
		c0.04,0.11,0.12,0.21,0.04,0.34c-0.36,0.42-0.64,0.08-0.94-0.1c-0.15-0.13-0.38-0.16-0.44-0.38l0,0.01
		c-0.08-0.17-0.21-0.25-0.4-0.26l0.01,0c-0.76-0.2-1.26-0.87-2.01-1.1l0,0c-0.21,0.04-0.33-0.14-0.49-0.22
		c-0.05-0.06-0.05-0.13-0.01-0.2c0.27-0.21,0.61-0.17,0.91-0.25c0.07,0.02,0.12,0.06,0.16,0.12c0.07,0.5,0.48,0.66,0.86,0.85
		c0.08-0.04,0.27,0.42,0.25-0.06c-0.01-0.15,0.04-0.29,0.22-0.33c0.13,0.07,0.26,0.12,0.32,0.26c0.07,0.06,0.14,0.11,0.22,0.17
		c0.09,0.22,0.38,0.23,0.47,0.45c0.08,0.06,0.16,0.11,0.23,0.17C13.93,13.87,14.22,13.88,14.31,14.09z"/>
	<path id="XMLID_244_" fill-rule="evenodd" clip-rule="evenodd" fill="#DFD3CF" d="M25.03,33.95c-0.05,0.05-0.09,0.12-0.14,0.15
		c-0.19,0.12-0.16,0.27-0.06,0.42c0.03,0.08,0.01,0.12-0.08,0.13l0,0c-0.15,0-0.29,0.04-0.43,0.09c-0.04-0.02-0.08-0.05-0.12-0.06
		c-0.07,0.01-0.14,0.02-0.21,0.04h0c-0.07,0.02-0.15,0.03-0.22,0.04c-0.04-0.03-0.08-0.04-0.12-0.06c-0.07,0.01-0.14,0.02-0.2,0.04
		l0,0c-0.12,0.03-0.22-0.07-0.34-0.03l0,0c-0.07,0.01-0.14,0.03-0.22,0.04c-0.04-0.03-0.08-0.05-0.12-0.07
		c-0.07,0.02-0.14,0.02-0.22,0.03c-0.04-0.03-0.08-0.05-0.12-0.07c-0.05,0.01-0.09,0-0.12-0.02c-0.03-0.02-0.05-0.04-0.04-0.05
		c-0.63-0.34-1.38-0.27-2-0.62c-0.21-0.02-0.41-0.05-0.57-0.21c-0.07-0.08-0.11-0.17-0.11-0.28c0-0.07,0.02-0.13,0.06-0.19
		c0.08-0.08,0.19-0.05,0.28-0.04c0.08,0.05,0.17,0.1,0.25,0.16c0.24-0.05,0.36,0.25,0.59,0.2l0,0c0.18-0.05,0.29,0.17,0.46,0.12h0
		c0.18-0.04,0.29,0.17,0.47,0.12c0.04,0.03,0.08,0.05,0.12,0.08c0.12-0.03,0.22,0.07,0.34,0.04h0c0.29-0.04,0.43,0.31,0.72,0.28l0,0
		c0.07-0.02,0.15-0.03,0.22-0.03c0.04,0.03,0.08,0.05,0.12,0.07c0.07-0.01,0.14-0.03,0.21-0.04l0,0c0.07-0.02,0.14-0.03,0.21-0.05
		l0,0c0.07-0.02,0.15-0.03,0.22-0.04c0.04,0.03,0.08,0.05,0.12,0.06c0.07-0.01,0.13-0.02,0.19-0.04c0.03-0.03,0.06-0.07,0.09-0.11
		c0.07-0.02,0.14-0.05,0.22-0.05l0,0c0.07-0.02,0.14-0.04,0.21-0.05l0,0c0.07-0.02,0.14-0.03,0.21-0.05l0,0
		c0.05-0.01,0.08-0.01,0.1,0.02C25.03,33.92,25.04,33.94,25.03,33.95z"/>
	<path id="XMLID_243_" fill-rule="evenodd" clip-rule="evenodd" fill="#BFA7A0" d="M13.58,14.37c0.29,0.24,0.59,0.3,0.9,0.03
		c0.23,0.03,0.4,0.13,0.51,0.33c0.08,0.05,0.15,0.1,0.22,0.16c0.09,0.22,0.38,0.23,0.46,0.46c0.03,0.04,0.06,0.06,0.11,0.08
		c0.08,0.22,0.36,0.23,0.45,0.44c0.07,0.06,0.14,0.11,0.21,0.17c0.01,0.03,0.03,0.06,0.05,0.1c-0.02,0.03-0.04,0.06-0.05,0.09
		c-0.19,0.16-0.39,0.32-0.65,0.33c-0.1-0.03-0.2-0.08-0.22-0.2c-0.02-0.04-0.06-0.06-0.1-0.07c-0.08-0.23-0.39-0.23-0.46-0.47
		c-0.08-0.05-0.15-0.1-0.22-0.15c-0.06-0.17-0.29-0.2-0.34-0.38c-0.03-0.04-0.06-0.06-0.11-0.08c-0.11-0.27-0.46-0.27-0.58-0.53
		c-0.07-0.06-0.15-0.11-0.22-0.17C13.5,14.45,13.5,14.4,13.58,14.37z"/>
	<path id="XMLID_242_" fill-rule="evenodd" clip-rule="evenodd" fill="#B69C93" d="M39.27,35.65c0.06-0.16,0.05-0.29-0.11-0.39
		c-0.08-0.06-0.17-0.11-0.25-0.17c-0.2-0.21-0.42-0.39-0.68-0.53c-0.16-0.09-0.38-0.19-0.18-0.44c0.26-0.07,0.46-0.01,0.59,0.25
		c0.16,0.1,0.32,0.21,0.48,0.31c0.5,0.54,1.24,0.74,1.74,1.27c0.24,0.16,0.49,0.33,0.73,0.49c0.13,0.23,0.4,0.3,0.59,0.47
		c0.04,0.3-0.21,0.28-0.32,0.21c-0.23-0.14-0.35,0.07-0.52,0.09c-0.11-0.02-0.2-0.08-0.26-0.16c-0.07-0.4-0.51-0.37-0.73-0.61
		C39.99,36.17,39.53,36.04,39.27,35.65z"/>
	<path id="XMLID_241_" fill-rule="evenodd" clip-rule="evenodd" fill="#BBA29B" d="M12.56,20.21c0-0.1-0.03-0.2-0.15-0.22
		c-0.33-0.05-0.56-0.27-0.92-0.48c0.33-0.08,0.58,0.09,0.81-0.02c0.19-0.05,0.3,0.16,0.48,0.13c0.13,0.07,0.25,0.14,0.38,0.22
		c0.28,0.01,0.43,0.32,0.72,0.3c0.04,0.03,0.08,0.05,0.13,0.06c0.17-0.01,0.27,0.11,0.4,0.18c0.2,0.28,0.88,0.29,0.49,0.89
		c-0.11,0.04-0.22,0.01-0.34,0.01l0.01,0C13.89,20.94,13.11,20.79,12.56,20.21z"/>
	<path id="XMLID_240_" fill-rule="evenodd" clip-rule="evenodd" fill="#BA7C3B" d="M25.81,14.99c0.05-0.01,0.07-0.04,0.08-0.08
		c0.3-0.15,0.29-0.6,0.65-0.7l-0.02,0.01c0.17-0.16,0.34-0.32,0.58-0.38l-0.01,0c0.07-0.02,0.14-0.04,0.22-0.04l-0.02,0
		c0.22-0.05,0.34,0.15,0.52,0.21c0.35,0.17,0.31,0.38,0.01,0.54c-0.53,0.28-1,0.54-1.29,1.16c-0.22,0.48-0.67,0.28-0.92-0.16
		c-0.03-0.07-0.03-0.15,0-0.22c0.04-0.01,0.05-0.04,0.03-0.08C25.63,15.11,25.69,15.03,25.81,14.99z"/>
	<path id="XMLID_239_" fill-rule="evenodd" clip-rule="evenodd" fill="#BCA49C" d="M21.55,20.52c0.04,0.03,0.07,0.07,0.11,0.1
		c0.03,0.09,0.1,0.17,0.13,0.26c0.02,0.21,0.17,0.45-0.12,0.61l-0.03,0.02c-0.36-0.1-0.66-0.28-0.89-0.57
		c-0.12-0.08-0.23-0.16-0.35-0.24c-0.05-0.08-0.11-0.17-0.14-0.27c0-0.22-0.02-0.44-0.06-0.66c-0.01-0.11-0.02-0.23-0.07-0.34
		c-0.02-0.05-0.05-0.1-0.07-0.15c-0.03-0.05-0.06-0.1-0.08-0.15c-0.03-0.05-0.05-0.1-0.07-0.16c-0.01-0.06-0.01-0.12,0-0.18
		c0.01-0.03,0.03-0.05,0.04-0.08c0.15-0.11,0.29-0.06,0.42,0.05c0.04,0.05,0.07,0.1,0.11,0.15c0.05,0.07,0.11,0.14,0.16,0.21
		c0.04,0.04,0.07,0.09,0.11,0.13c0.03,0.11,0.08,0.21,0.19,0.27c0.04,0.04,0.07,0.08,0.09,0.14l0,0.01
		c0.01,0.12,0.14,0.17,0.17,0.29l0,0c0.01,0.12,0.15,0.17,0.16,0.3l0-0.01C21.39,20.36,21.5,20.41,21.55,20.52z"/>
	<path id="XMLID_238_" fill-rule="evenodd" clip-rule="evenodd" fill="#B1978D" d="M17.93,12.41c0.03-0.03,0.04-0.06,0.04-0.1
		c-0.03-0.12,0.07-0.22,0.04-0.34l0,0c-0.02-0.07-0.04-0.14-0.03-0.22l0,0.01c-0.09-0.18,0.16-0.29,0.09-0.46V11.3
		c-0.02-0.12,0.08-0.22,0.04-0.33v0c-0.01-0.07,0.01-0.12,0.07-0.16c0.19-0.06,0.38-0.05,0.58-0.03c0.06,0.03,0.1,0.07,0.1,0.14v0
		c0.04,0.12-0.06,0.23-0.04,0.34l0-0.01c0.05,0.12-0.05,0.23-0.03,0.35l0-0.01c0.05,0.12-0.06,0.23-0.03,0.34v0
		c0.04,0.12-0.06,0.23-0.05,0.34v-0.01c0.05,0.12-0.05,0.23-0.03,0.35v-0.01c0.05,0.12-0.05,0.23-0.04,0.35l0-0.01
		c0.07,0.18-0.15,0.3-0.12,0.47v-0.01c0.05,0.12-0.05,0.23-0.03,0.34l0,0c0.02,0.07,0.01,0.14-0.02,0.21
		c-0.63,0.44-0.43-0.24-0.59-0.44c-0.03-0.16-0.07-0.32-0.06-0.49c0.02-0.12,0.15-0.21,0.09-0.35v-0.01
		C17.93,12.57,17.91,12.49,17.93,12.41z"/>
	<path id="XMLID_237_" fill-rule="evenodd" clip-rule="evenodd" fill="#C7B1AA" d="M17.37,18.05c-0.03-0.03-0.06-0.06-0.11-0.08
		c-0.03-0.07-0.02-0.13,0.04-0.17c0.34-0.08,0.66-0.03,0.98,0.09c0.07,0.01,0.13,0.04,0.19,0.07c0.13,0.1,0.32,0.14,0.37,0.32
		c0.03,0.04,0.07,0.06,0.11,0.08c0.15,0.27,0.44,0.34,0.67,0.5c0.04,0.06,0.07,0.12,0.07,0.19c-0.08,0.28,0.18,0.43,0.26,0.64
		c0.08,0.21,0.37,0.42,0.04,0.66c-0.12-0.07-0.27-0.12-0.31-0.27c-0.08-0.05-0.16-0.11-0.24-0.16c-0.1-0.27-0.48-0.26-0.57-0.55
		l0,0.01c-0.14-0.31-0.56-0.31-0.69-0.62c-0.08-0.05-0.16-0.1-0.24-0.15C17.84,18.32,17.47,18.32,17.37,18.05z"/>
	<path id="XMLID_236_" fill-rule="evenodd" clip-rule="evenodd" fill="#C48F57" d="M5.25,20.38c0.05-0.06,0.1-0.13,0.15-0.19
		c0.07-0.07,0.15-0.12,0.23-0.17C5.8,19.92,5.98,19.9,6.17,20c0.07,0.07,0.1,0.15,0.11,0.24c0.06,0.23,0.13-0.07,0.19,0
		c0.34-0.09,0.62,0.01,0.87,0.23c0.21,0.25,0.44,0.49,0.39,0.86c-0.15,0.14-0.32,0.11-0.49,0.03c-0.05-0.04-0.09-0.09-0.12-0.15
		C7.08,21.09,7,21,6.9,20.93c-0.06-0.03-0.11-0.05-0.16-0.07c-0.16-0.06-0.29,0.02-0.42,0.09C6.26,20.97,6.2,20.99,6.15,21
		c-0.11,0.01-0.22,0-0.32,0.06c-0.04,0.03-0.09,0.06-0.13,0.09c-0.09,0.07-0.17,0.14-0.23,0.25C5.32,21.58,5.52,21.94,5.2,22
		c-0.22,0.05-0.34-0.13-0.4-0.34c-0.01-0.1,0.02-0.21,0.01-0.31l0,0C4.77,20.95,4.91,20.62,5.25,20.38z"/>
	<path id="XMLID_235_" fill-rule="evenodd" clip-rule="evenodd" fill="#C8AC96" d="M21.18,30.93c0.07,0.13,0.13,0.25,0.21,0.38
		c-0.17,0.05-0.31-0.08-0.45,0.01c-0.71-0.23-1.27-0.71-1.87-1.12c-0.38-0.25-0.62-0.21-0.89,0.08l0.01,0
		c-0.1,0-0.15-0.05-0.16-0.15c0-0.23,0.12-0.41,0.25-0.59c0.09-0.11,0.19-0.19,0.33-0.24c0.72,0.3,1.37,0.72,1.95,1.24
		c0.09,0.05,0.18,0.1,0.27,0.15C20.98,30.7,21.11,30.77,21.18,30.93z"/>
	<path id="XMLID_234_" fill-rule="evenodd" clip-rule="evenodd" fill="#C0A9A1" d="M34.21,26.64c0.01,0.04,0.04,0.07,0.07,0.09
		c0.06,0.07,0.08,0.15,0.09,0.23l0,0c0.02,0.07,0.03,0.14,0.06,0.21l0,0.01c0.01,0.07,0.02,0.13,0.05,0.2l0,0.01
		c0,0.07,0.02,0.13,0.05,0.19l0.01,0.02c0.03,0.14,0.1,0.28-0.03,0.41c-0.36,0.19-0.49-0.16-0.71-0.29
		c-0.29-0.21-0.33-0.55-0.48-0.84c-0.03-0.05-0.05-0.11-0.07-0.17c-0.02-0.05-0.04-0.11-0.05-0.17c-0.01-0.03-0.01-0.05-0.02-0.08
		c-0.01-0.05-0.03-0.1-0.04-0.16c-0.01-0.02-0.02-0.05-0.02-0.07c-0.02-0.05-0.04-0.1-0.06-0.14c-0.02-0.05-0.04-0.09-0.06-0.14
		c-0.01-0.05-0.02-0.1-0.04-0.15l-0.02-0.07c-0.01-0.05-0.03-0.1-0.05-0.14c-0.03-0.04-0.06-0.08-0.09-0.12l0.04-0.04
		c-0.03-0.05-0.07-0.1-0.1-0.15c-0.01-0.03-0.02-0.06-0.03-0.09c-0.01-0.06-0.02-0.12-0.02-0.18c0.01-0.03,0.02-0.06,0.03-0.09
		c0.05-0.04,0.11-0.06,0.17-0.05c0.16,0.05,0.25,0.18,0.33,0.31c0.06,0.1,0.12,0.2,0.17,0.31c0.04,0.07,0.06,0.15,0.07,0.23
		c0.02,0.07,0.03,0.14,0.09,0.2c0.06,0.04,0.13,0.06,0.2,0.08c0.05,0.02,0.09,0.04,0.13,0.09c0.03,0.07,0.06,0.15,0.12,0.21
		c0.07,0.05,0.13,0.11,0.13,0.19l0-0.01C34.16,26.52,34.18,26.58,34.21,26.64z"/>
	<path id="XMLID_233_" fill-rule="evenodd" clip-rule="evenodd" fill="#D4C4BF" d="M50.89,43.63c0.03-0.03,0.05-0.06,0.08-0.1
		c0.08-0.08,0.18-0.11,0.29-0.08c0.26,0.21,0.52,0.42,0.87,0.19c0.2,0.17,0.49,0.23,0.62,0.48c0.04,0.03,0.08,0.06,0.12,0.08
		c0.4,0.49,1.06,0.64,1.49,1.1c0.02,0.21-0.07,0.35-0.27,0.43c-0.34-0.13-0.66-0.31-0.9-0.59c-0.13-0.12-0.25-0.24-0.38-0.36
		c-0.09-0.08-0.18-0.19-0.29-0.22C51.9,44.37,51.42,43.97,50.89,43.63z"/>
	<path id="XMLID_232_" fill-rule="evenodd" clip-rule="evenodd" fill="#D3AA80" d="M4.59,12.77c0.03,0.03,0.07,0.04,0.11,0.04
		c0.23-0.01,0.35,0.25,0.59,0.22l-0.01,0c0.19-0.02,0.32,0.06,0.38,0.24l0-0.01c0.03,0.12,0.17,0.17,0.17,0.31L5.8,13.55
		c0.05,0.11,0.02,0.21-0.04,0.31c-0.46,0.37-1.05,0.13-1.54,0.33c-0.17,0.01-0.35-0.04-0.52-0.02c-0.23-0.02-0.42,0.36-0.68,0.08
		c0.18-0.42,0.37-0.83,0.76-1.11l-0.01,0.01c0.07-0.03,0.13-0.02,0.18,0.04c0.19,0.28,0.46,0.22,0.65,0.05
		c0.18-0.16-0.19-0.21-0.15-0.38C4.46,12.77,4.51,12.75,4.59,12.77z"/>
	<path id="XMLID_231_" fill-rule="evenodd" clip-rule="evenodd" fill="#CFBEB8" d="M20.43,18.92c-0.16-0.08-0.31-0.21-0.5-0.11
		c-0.12,0-0.21-0.04-0.23-0.17l0,0c-0.01-0.12-0.15-0.17-0.17-0.29l0,0c-0.02-0.12-0.16-0.17-0.17-0.3l0,0.01
		c-0.03-0.12-0.16-0.17-0.18-0.3l0,0c-0.03-0.12-0.16-0.17-0.18-0.29l0,0c-0.01-0.06-0.03-0.13-0.06-0.19
		c-0.03-0.04-0.06-0.07-0.1-0.1c-0.03-0.07-0.05-0.14-0.07-0.21l0,0c-0.01-0.12-0.14-0.17-0.17-0.28c-0.03-0.03-0.07-0.06-0.11-0.09
		c-0.01-0.04-0.01-0.08-0.01-0.11c0.03-0.03,0.05-0.05,0.08-0.08c0.14-0.08,0.28-0.11,0.44-0.08c0.1,0.04,0.21,0.09,0.23,0.22
		l0-0.01c0.02,0.06,0.04,0.13,0.06,0.19c0.03,0.04,0.06,0.07,0.1,0.1c0.03,0.07,0.06,0.14,0.07,0.21c0.03,0.03,0.06,0.06,0.1,0.08
		c0.04,0.07,0.05,0.14,0.08,0.21l0,0.01c0.01,0.12,0.14,0.17,0.17,0.27c0.03,0.04,0.06,0.07,0.1,0.09c0.03,0.07,0.05,0.14,0.07,0.22
		l0,0c0.02,0.12,0.15,0.17,0.18,0.29l0,0c0.01,0.12,0.15,0.17,0.17,0.29l0,0c0.02,0.12,0.15,0.17,0.18,0.29l0,0
		C20.52,18.86,20.5,18.9,20.43,18.92z"/>
	<path id="XMLID_230_" fill-rule="evenodd" clip-rule="evenodd" fill="#C1A9A2" d="M11.67,22.52c0.03,0.03,0.07,0.04,0.12,0.04
		c0.07-0.01,0.13-0.02,0.2-0.03l-0.01,0c0.11-0.04,0.22,0.07,0.33,0.02l0.01,0c0.07,0,0.14-0.02,0.21-0.03l-0.01,0
		c0.12-0.04,0.22,0.06,0.34,0.03l-0.01,0c0.1-0.03,0.17,0.01,0.25,0.07c0.04,0.05,0.08,0.09,0.12,0.14
		c0.14,0.12,0.32,0.21,0.35,0.42c-0.01,0.07-0.06,0.1-0.13,0.09c-0.04-0.03-0.08-0.04-0.13-0.05c-0.07,0.01-0.13,0.01-0.2,0.02
		l0.01,0c-0.08,0.03-0.16,0.04-0.24,0.02c-0.03-0.02-0.07-0.04-0.11-0.04c-0.07,0.01-0.13,0.02-0.2,0.03l0.01,0
		c-0.12,0.04-0.22-0.06-0.34-0.03l0,0c-0.12,0.03-0.22-0.06-0.34-0.04l0.01,0c-0.24,0.06-0.36-0.24-0.6-0.19l0,0
		c-0.18,0.05-0.29-0.17-0.47-0.12h0c-0.21-0.02-0.42-0.08-0.37-0.33c0.06-0.3,0.32-0.09,0.48-0.12h0c0.13-0.03,0.23,0.06,0.36,0.06
		c0.03,0.03,0.07,0.04,0.12,0.05C11.52,22.52,11.59,22.51,11.67,22.52z"/>
	<path id="XMLID_229_" fill-rule="evenodd" clip-rule="evenodd" fill="#CFBEB8" d="M23.85,25.07c-0.08-0.05-0.16-0.1-0.24-0.15
		c-0.2,0.02-0.31-0.13-0.46-0.21c-0.15-0.12-0.29-0.26-0.49-0.31c-0.24-0.24-0.54-0.37-0.82-0.55c-0.07-0.08-0.11-0.17-0.12-0.28
		c0.02-0.08,0.06-0.12,0.14-0.12c0.04,0.03,0.07,0.05,0.12,0.07c0.16-0.02,0.26,0.09,0.38,0.16c0.17,0.13,0.36,0.21,0.57,0.24
		c0.07,0.01,0.13,0.04,0.18,0.09c0.27,0.22,0.63,0.24,0.93,0.4c0.26,0.1,0.44,0.4,0.78,0.32c0.17,0.01,0.29,0.09,0.38,0.23
		c0.15,0.68-0.37,0.4-0.65,0.45C24.29,25.34,24.13,25.07,23.85,25.07z"/>
	<path id="XMLID_228_" fill-rule="evenodd" clip-rule="evenodd" fill="#C7B1AB" d="M31.1,20.52c0.02,0.04,0.05,0.06,0.09,0.09
		c0.04,0.07,0.06,0.14,0.08,0.21l0,0.01c0.01,0.12,0.15,0.17,0.17,0.29l0,0c0.01,0.12,0.15,0.17,0.16,0.3l0-0.01
		c0.02,0.07,0.04,0.13,0.06,0.2l0.01,0.01c0.01,0.09,0.07,0.17,0.06,0.26c-0.07,0.15-0.2,0.22-0.35,0.28
		c-0.06,0.01-0.12,0-0.17-0.03c-0.04-0.05-0.06-0.09-0.08-0.15c-0.01-0.05-0.02-0.1-0.03-0.15c-0.02-0.05,0.08-0.13-0.04-0.16
		c-0.05-0.02-0.08-0.05-0.11-0.09c-0.03-0.06-0.05-0.13-0.08-0.19c-0.03-0.03-0.06-0.08-0.07-0.12c-0.02-0.04-0.06-0.06-0.09-0.08
		c-0.04-0.07-0.06-0.14-0.08-0.21l0-0.01c0-0.12-0.15-0.17-0.15-0.3l0,0.01c-0.03-0.07-0.04-0.14-0.06-0.21h0
		c-0.02-0.12-0.16-0.17-0.17-0.3l0,0.01c-0.03-0.08-0.09-0.16-0.11-0.24c-0.02-0.06-0.03-0.12-0.04-0.18c0-0.03-0.01-0.06-0.01-0.09
		c-0.02-0.21-0.02-0.39,0.27-0.35c0.08,0.09,0.12,0.22,0.23,0.28c0.05,0.04,0.08,0.09,0.1,0.15l0,0c0.02,0.12,0.15,0.17,0.18,0.29
		l0,0.01c0.01,0.12,0.15,0.17,0.16,0.3l0-0.01C31.06,20.39,31.08,20.45,31.1,20.52z"/>
	<path id="XMLID_227_" fill-rule="evenodd" clip-rule="evenodd" fill="#B69A91" d="M13.56,23.2c-0.15-0.15-0.41-0.19-0.44-0.45
		c0.09-0.08,0.21,0.02,0.3-0.03c0.08-0.01,0.16,0.01,0.24-0.01v0c0.07-0.01,0.14-0.03,0.22-0.04l-0.01,0
		c0.07-0.03,0.14-0.05,0.22-0.04l-0.01,0c0.12-0.06,0.23,0.05,0.35,0.03l-0.01,0c0.13-0.04,0.23,0.05,0.36,0.05
		c0.04,0.03,0.08,0.04,0.13,0.04c0.07,0,0.14-0.01,0.21,0c0.04,0.03,0.08,0.04,0.12,0.04c0.06,0.01,0.12,0.01,0.17,0.02
		c0.06,0,0.12,0,0.18,0c0.06,0.02,0.11,0.04,0.16,0.08c0.13,0.21,0,0.35-0.13,0.49c-0.11,0.07-0.24-0.02-0.35,0.02
		c-0.09,0.02-0.17,0-0.26,0l0.01,0c-0.19,0.04-0.37,0.01-0.56,0.02l0.01,0c-0.07,0.03-0.14,0.04-0.22,0.04l0.01,0
		c-0.13,0.05-0.24-0.04-0.37-0.05c-0.03-0.03-0.06-0.04-0.1-0.04C13.68,23.36,13.6,23.31,13.56,23.2z"/>
	<path id="XMLID_226_" fill-rule="evenodd" clip-rule="evenodd" fill="#CC9D6B" d="M14.82,27.95c0.16-0.11,0.22-0.29,0.31-0.45
		c0.06-0.08,0.12-0.07,0.17,0.01c0.05,0.24-0.09,0.43-0.17,0.63c-0.36,0.89-0.26,1.19,0.55,1.73c0.13,0.06,0.26,0.02,0.38-0.02
		c0.35-0.13,0.7-0.23,0.99,0.12c0.07,0.1,0.09,0.2,0.07,0.31c-0.08,0.19-0.24,0.26-0.42,0.3l0.02,0c-0.06,0.04-0.14,0.05-0.21,0.07
		l0,0c-0.07,0.01-0.14,0.04-0.22,0.03l0.02,0c-0.63-0.23-1.19-0.57-1.66-1.06l0,0.02c-0.04-0.07-0.05-0.14-0.06-0.22l0,0.01
		c-0.08-0.16-0.26-0.28-0.23-0.5v0c-0.02-0.24,0.24-0.39,0.24-0.62c0.04-0.02,0.05-0.05,0.05-0.09
		C14.63,28.07,14.69,27.99,14.82,27.95z"/>
	<path id="XMLID_225_" fill-rule="evenodd" clip-rule="evenodd" fill="#B3978E" d="M18.3,17.96c-0.34,0.02-0.67-0.02-1-0.12
		c-0.15,0.01-0.25-0.09-0.35-0.17c-0.08-0.17-0.1-0.39-0.35-0.42c-0.06-0.02-0.11-0.07-0.14-0.12c-0.06-0.24-0.29-0.29-0.45-0.41
		c-0.08-0.06-0.18-0.1-0.17-0.22c0.14-0.18,0.32-0.3,0.55-0.32c0.25,0.11,0.39,0.37,0.64,0.49c0.15,0.12,0.36,0.16,0.44,0.37
		c0.02,0.04,0.06,0.06,0.1,0.08c0.06,0.18,0.26,0.22,0.37,0.35C18.02,17.66,18.26,17.73,18.3,17.96z"/>
	<path id="XMLID_224_" fill-rule="evenodd" clip-rule="evenodd" fill="#AC9187" d="M33.83,27.51c0.15,0.09,0.27,0.19,0.37,0.33
		c0.08,0.12,0.19,0.11,0.31,0.04c0.23,0.15,0.2,0.42,0.3,0.63l0-0.02c0.05,0.33,0.25,0.61,0.32,0.93l0-0.01
		c0.05,0.1,0.11,0.18,0.09,0.3c-0.11,0.22-0.26,0.22-0.43,0.09c-0.06-0.04-0.11-0.09-0.14-0.15c-0.01-0.04-0.04-0.07-0.08-0.09
		c-0.06-0.11-0.18-0.17-0.21-0.3v0c-0.02-0.12-0.16-0.17-0.17-0.3l0,0.01c-0.07-0.17-0.17-0.33-0.22-0.51l0,0.01
		c-0.08-0.14-0.13-0.29-0.19-0.44C33.74,27.85,33.6,27.66,33.83,27.51z"/>
	<path id="XMLID_223_" fill-rule="evenodd" clip-rule="evenodd" fill="#E0D4D1" d="M24.58,25.36c0.09-0.01,0.19-0.03,0.28-0.02
		c0.23,0.02,0.28-0.13,0.29-0.31c0.29-0.09,0.51,0.11,0.77,0.16c0.18,0.06,0.35,0.15,0.51,0.25c0.22,0.15,0.41,0.32,0.53,0.56
		c0.03,0.07,0.04,0.14,0.05,0.21c0.04,0.24-0.07,0.34-0.3,0.33c-0.09-0.05-0.17-0.11-0.26-0.16c-0.56-0.13-0.92-0.66-1.49-0.78
		c-0.09-0.05-0.17-0.1-0.26-0.15c-0.06,0.01-0.09,0-0.11-0.03C24.57,25.39,24.57,25.37,24.58,25.36z"/>
	<path id="XMLID_222_" fill-rule="evenodd" clip-rule="evenodd" fill="#C99763" d="M15.52,27.13c0.05-0.07,0.1-0.14,0.15-0.21
		c0.17-0.06,0.19-0.32,0.41-0.32l-0.02,0.01c0.1-0.06,0.16-0.18,0.3-0.19l-0.01,0.01c1.07,0.12,1.71,0.58,1.94,1.42l-0.01-0.01
		c0.04,0.07,0.02,0.13-0.05,0.17c-0.07,0-0.14-0.01-0.21-0.04c-0.06-0.04-0.12-0.08-0.17-0.13c-0.32-0.44-0.89-0.44-1.28-0.75
		c-0.05-0.01,0.03-0.13-0.08-0.1c0.03,0.11-0.02,0.19-0.1,0.25c-0.2,0.1-0.36,0.25-0.57,0.32c-0.07,0-0.14-0.01-0.2-0.04
		c-0.1-0.05-0.17-0.13-0.21-0.23C15.4,27.21,15.44,27.15,15.52,27.13z"/>
	<path id="XMLID_221_" fill-rule="evenodd" clip-rule="evenodd" fill="#D4AC83" d="M28.81,14.04c0.03,0.03,0.06,0.05,0.11,0.05
		c0.84,0.38,1.03,0.76,0.77,1.59l0-0.01c0.03,0.14-0.04,0.22-0.15,0.29c-0.6-0.55-1.04-1.21-1.53-1.85
		c-0.03-0.09,0.01-0.14,0.11-0.15l-0.02,0C28.35,13.88,28.58,13.99,28.81,14.04z"/>
	<path id="XMLID_220_" fill-rule="evenodd" clip-rule="evenodd" fill="#C9B5AF" d="M34.73,29.73c0.17,0.09,0.32,0.1,0.43-0.08
		c0.06-0.03,0.1-0.03,0.12,0.01c0.03,0.03,0.03,0.05,0.02,0.07l0,0c0.03,0.12,0.16,0.17,0.17,0.3l0-0.01
		c0.03,0.07,0.04,0.14,0.06,0.21h0c0.01,0.12,0.15,0.17,0.16,0.3l0,0c0.03,0.12,0.16,0.17,0.17,0.3l0-0.01
		c0.03,0.07,0.04,0.14,0.06,0.21h0c0.01,0.12,0.15,0.17,0.17,0.28c0.03,0.03,0.06,0.06,0.1,0.08c0.04,0.07,0.06,0.14,0.08,0.21l0,0
		c0.01,0.12,0.15,0.17,0.17,0.29c0.02,0.03,0.06,0.06,0.1,0.08c0.04,0.07,0.06,0.14,0.08,0.22v0c0.03,0.08,0,0.13-0.09,0.13l0.01,0
		c-0.18,0.06-0.37,0.17-0.46-0.12h0c-0.03-0.12-0.16-0.17-0.17-0.3l0,0.01c-0.03-0.11-0.16-0.17-0.18-0.3l0,0
		c-0.03-0.12-0.16-0.17-0.17-0.3l0,0.01c-0.02-0.07-0.04-0.14-0.06-0.2c-0.03-0.03-0.06-0.06-0.1-0.08
		c-0.04-0.06-0.06-0.13-0.08-0.21c-0.02-0.04-0.05-0.06-0.09-0.09c-0.04-0.07-0.06-0.14-0.08-0.22l0,0
		c-0.02-0.12-0.15-0.17-0.18-0.28c-0.03-0.03-0.06-0.06-0.1-0.08c-0.03-0.06-0.06-0.13-0.08-0.19c-0.03-0.04-0.06-0.07-0.11-0.1
		C34.67,29.8,34.69,29.76,34.73,29.73z"/>
	<path id="XMLID_219_" fill-rule="evenodd" clip-rule="evenodd" fill="#D1C0BA" d="M19.44,23.51c0.05,0.04,0.09,0.07,0.14,0.11
		c0.05,0.11,0.11,0.23,0.03,0.35c-0.04,0.05-0.1,0.08-0.16,0.09l0.01,0c-0.12,0.04-0.23-0.06-0.35-0.05
		c-0.04-0.03-0.08-0.05-0.12-0.06c-0.18,0.04-0.28-0.17-0.46-0.13h0c-0.12,0.03-0.23-0.06-0.35-0.05c-0.04-0.03-0.07-0.05-0.12-0.06
		c-0.12,0.03-0.23-0.07-0.35-0.06c-0.04-0.03-0.08-0.05-0.12-0.06c-0.07,0.01-0.13-0.01-0.19-0.05c-0.16-0.14-0.3-0.28-0.22-0.52
		c0.09-0.07,0.19-0.05,0.29-0.04c0.04,0.03,0.07,0.05,0.12,0.06c0.12-0.03,0.23,0.07,0.35,0.06c0.04,0.03,0.08,0.05,0.12,0.06
		c0.12-0.03,0.23,0.07,0.35,0.05c0.03,0.03,0.07,0.05,0.12,0.07c0.12-0.03,0.22,0.07,0.34,0.04v0
		C19.09,23.29,19.31,23.26,19.44,23.51z"/>
	<path id="XMLID_218_" fill-rule="evenodd" clip-rule="evenodd" fill="#D2C1BC" d="M17.24,23.03c0.01,0.19,0.14,0.33,0.23,0.49
		c0.01,0.07-0.02,0.11-0.1,0.11c-0.03-0.03-0.07-0.05-0.11-0.06c-0.07,0.02-0.14,0.03-0.21,0.04l0.01,0
		c-0.12,0.04-0.23-0.06-0.34-0.03h0c-0.12,0.03-0.22-0.06-0.34-0.03l0,0c-0.12,0.04-0.22-0.07-0.33-0.03h-0.01
		c-0.07,0.01-0.15,0.03-0.22,0.02c-0.04-0.02-0.08-0.04-0.12-0.06c-0.04,0-0.08,0-0.12-0.01c0-0.04-0.01-0.08-0.01-0.12
		c0.02-0.07,0.02-0.16,0.06-0.21c0.14-0.14,0.05-0.21-0.06-0.29c-0.02-0.09,0.01-0.13,0.1-0.11c0.04,0.02,0.07,0.04,0.12,0.05
		c0.12-0.02,0.21,0.08,0.33,0.05l0,0c0.12-0.03,0.22,0.07,0.34,0.03v0c0.12-0.03,0.22,0.07,0.34,0.04l0,0
		c0.12-0.04,0.22,0.06,0.34,0.03l0,0c0.05-0.02,0.09-0.01,0.11,0.02C17.25,23,17.25,23.02,17.24,23.03z"/>
	<path id="XMLID_217_" fill-rule="evenodd" clip-rule="evenodd" fill="#D2C2BC" d="M31.32,22.14c0.09-0.15,0.25-0.22,0.39-0.32
		c0.05-0.01,0.08,0,0.11,0.02c0.02,0.03,0.03,0.05,0.02,0.06l0,0c0.01,0.12,0.15,0.18,0.17,0.29v0c0.01,0.07,0.03,0.13,0.05,0.19
		c0.03,0.04,0.06,0.07,0.1,0.09c0.03,0.07,0.06,0.14,0.06,0.22l0,0c0.02,0.07,0.04,0.13,0.06,0.2c0.03,0.03,0.06,0.06,0.09,0.08
		c0.03,0.06,0.02,0.12-0.02,0.17c-0.15,0.17,0,0.48-0.27,0.59c-0.1-0.03-0.19-0.08-0.21-0.2l0,0c-0.03-0.12-0.16-0.17-0.17-0.3l0,0
		c-0.03-0.12-0.16-0.17-0.17-0.3v0.01c-0.02-0.07-0.03-0.14-0.06-0.21l0,0c-0.01-0.12-0.15-0.17-0.16-0.3l0,0.01
		c-0.02-0.07-0.04-0.14-0.06-0.21l0,0C31.22,22.18,31.24,22.14,31.32,22.14z"/>
	<path id="XMLID_216_" fill-rule="evenodd" clip-rule="evenodd" fill="#CEBCB6" d="M21.76,23.55c0.02,0.07,0.04,0.15,0.06,0.22
		c-0.02,0.03-0.05,0.05-0.07,0.07c-0.46,0.12-0.92,0.14-1.36-0.09c0-0.13-0.09-0.21-0.18-0.3c-0.27-0.22-0.26-0.22,0-0.53
		c0.13-0.06,0.23,0.07,0.36,0.04c0.08,0.05,0.16,0.09,0.24,0.14c0.18-0.03,0.29,0.17,0.47,0.14c0.03,0.03,0.07,0.05,0.11,0.07
		C21.56,23.31,21.68,23.4,21.76,23.55z"/>
	<path id="XMLID_215_" fill-rule="evenodd" clip-rule="evenodd" fill="#D4C4BF" d="M56.55,46.91c0.04,0.03,0.08,0.06,0.12,0.08
		c0.04,0.18,0.28,0.19,0.31,0.38v0c-0.15,0.25-0.29,0.07-0.42-0.01c-0.5-0.31-1-0.63-1.5-0.96c-0.21-0.34-0.76-0.47-0.6-1.03
		c0.22,0.05,0.4,0.14,0.51,0.35c0.25,0.16,0.5,0.33,0.75,0.49C55.9,46.55,56.36,46.57,56.55,46.91z"/>
	<path id="XMLID_214_" fill-rule="evenodd" clip-rule="evenodd" fill="#DACCC8" d="M30.38,19.37c-0.28,0-0.18,0.24-0.23,0.38
		c-0.05,0.02-0.08,0.02-0.11-0.01c-0.02-0.03-0.03-0.05-0.02-0.06c-0.03-0.04-0.07-0.06-0.11-0.09c-0.02-0.07-0.04-0.14-0.06-0.21
		l0,0c-0.01-0.13-0.15-0.17-0.16-0.3l0,0c-0.02-0.06-0.03-0.13-0.06-0.19c-0.03-0.04-0.07-0.07-0.11-0.1
		c-0.01-0.07-0.04-0.14-0.06-0.21c-0.03-0.03-0.07-0.06-0.1-0.08c-0.03-0.07-0.05-0.14-0.07-0.21l0,0c-0.02-0.06-0.02-0.11,0-0.17
		c0.02-0.18-0.12-0.37,0.07-0.53c0.05-0.01,0.09,0,0.12,0.03c0.03,0.03,0.04,0.05,0.03,0.06c0.03,0.04,0.07,0.07,0.11,0.1
		c0.02,0.12,0.16,0.17,0.18,0.3l0,0c0.02,0.12,0.16,0.17,0.17,0.29v0c0.02,0.07,0.03,0.14,0.05,0.21l0,0
		c0.01,0.12,0.15,0.17,0.17,0.29v0c0.02,0.12,0.15,0.17,0.18,0.29c0.04,0.03,0.07,0.06,0.11,0.08c0.01,0.04,0.01,0.07,0.02,0.11
		C30.45,19.35,30.42,19.36,30.38,19.37z"/>
	<path id="XMLID_213_" fill-rule="evenodd" clip-rule="evenodd" fill="#CEB6A3" d="M8.84,22.31c-0.03-0.03-0.07-0.05-0.11-0.05
		c-0.26-0.06-0.53-0.24-0.76,0.05l0.01,0c-0.14,0.02-0.17,0.23-0.34,0.19c-0.25-0.38,0.15-0.54,0.27-0.8
		c0.05-0.05,0.11-0.08,0.18-0.1c0.2,0.05,0.32,0.27,0.56,0.24h0c0.18-0.05,0.29,0.16,0.47,0.12l-0.01,0
		c0.36,0.08,0.7,0.23,1.07,0.32l-0.01,0c0.19-0.02,0.28,0.07,0.25,0.25c-0.02,0.15-0.14,0.19-0.28,0.15
		c-0.11-0.03-0.21-0.13-0.34-0.11l0,0c-0.18,0.04-0.29-0.17-0.47-0.12l0.01,0C9.14,22.49,9.02,22.29,8.84,22.31z"/>
	<path id="XMLID_212_" fill-rule="evenodd" clip-rule="evenodd" fill="#C9AF9B" d="M20.27,33.78c0.07,0,0.17-0.04,0.22,0
		c0.55,0.33,1.15,0.42,1.78,0.44c0.09,0,0.21,0.04,0.19,0.17c-0.01,0.06-0.1,0.1-0.15,0.15c-0.05,0.08-0.14,0.04-0.21,0.05h0
		c-0.12,0.04-0.22-0.06-0.34-0.03l0.01,0c-0.13,0.03-0.24-0.06-0.36-0.06c-0.03-0.03-0.07-0.04-0.11-0.05
		c-0.18,0.04-0.29-0.17-0.46-0.12l0,0c-0.12,0.03-0.2-0.03-0.28-0.11C20.46,34.07,20.27,33.98,20.27,33.78z"/>
	<path id="XMLID_211_" fill-rule="evenodd" clip-rule="evenodd" fill="#C0AAA3" d="M32.11,23.72c0.06-0.17-0.02-0.34-0.02-0.51
		c-0.01-0.21,0.11-0.15,0.23-0.1c0.06-0.02,0.09-0.01,0.11,0.02c0.02,0.03,0.02,0.06,0.01,0.07l0-0.01
		c0.03,0.07,0.04,0.14,0.06,0.21l0,0c0.03,0.09,0.09,0.18,0.1,0.28c0.1,0.3,0.24,0.57,0.44,0.82c0.18,0.23,0.06,0.35-0.2,0.36
		c-0.03,0.04-0.07,0.09-0.1,0.13c-0.05,0.01-0.08,0-0.1-0.03c-0.02-0.03-0.03-0.05-0.02-0.06l0,0c0-0.06-0.02-0.12-0.05-0.17
		c-0.02-0.04-0.05-0.08-0.08-0.11c-0.04-0.07-0.06-0.14-0.08-0.22l0,0c-0.01-0.12-0.15-0.17-0.17-0.3l0,0.01
		c-0.03-0.12-0.17-0.17-0.17-0.3l0.01,0.01C32.01,23.77,32.03,23.73,32.11,23.72z"/>
	<path id="XMLID_210_" fill-rule="evenodd" clip-rule="evenodd" fill="#CEBCB7" d="M14.78,21.26c0.07-0.08,0.24-0.14,0.11-0.29
		c-0.16-0.19-0.34-0.36-0.51-0.54c0-0.07,0.04-0.09,0.1-0.08c0.08,0.05,0.17,0.1,0.25,0.14c0.22,0.02,0.39,0.13,0.5,0.32
		c0.33,0.17,0.52,0.4,0.4,0.79c-0.12,0.07-0.22-0.07-0.34-0.03c-0.04-0.02-0.09-0.05-0.13-0.07C14.98,21.5,14.85,21.42,14.78,21.26z
		"/>
	<path id="XMLID_209_" fill-rule="evenodd" clip-rule="evenodd" fill="#B59990" d="M21.67,21.49c0.01-0.1,0.04-0.2,0.02-0.29
		c-0.04-0.13-0.04-0.24,0.02-0.36c0.28,0.02,0.48,0.18,0.65,0.39c0.02,0.04,0.06,0.07,0.1,0.09c0.03,0.12,0.18,0.16,0.2,0.29
		c-0.31,0.25-0.31,0.25-0.6,0.08C21.93,21.62,21.8,21.55,21.67,21.49z"/>
	<path id="XMLID_208_" fill-rule="evenodd" clip-rule="evenodd" fill="#C7B3AD" d="M32.82,24.88c0.08-0.08,0.25-0.16,0.1-0.28
		c-0.31-0.25-0.44-0.56-0.4-0.96c0.06-0.03,0.09-0.04,0.12-0.01c0.02,0.03,0.03,0.06,0.02,0.07l0-0.01c0.03,0.12,0.16,0.17,0.18,0.3
		l0,0c0.02,0.12,0.16,0.17,0.18,0.3l0,0c0.02,0.12,0.15,0.17,0.18,0.28c0.02,0.04,0.05,0.06,0.09,0.08
		c0.04,0.07,0.06,0.14,0.08,0.22l0,0c0.02,0.12,0.15,0.17,0.17,0.29l0,0c0.01,0.03,0.01,0.06,0.02,0.09
		c-0.04,0.05-0.1,0.08-0.17,0.08c-0.09-0.02-0.16-0.1-0.27-0.08C33.02,25.12,32.92,25,32.82,24.88z"/>
	<path id="XMLID_207_" fill-rule="evenodd" clip-rule="evenodd" fill="#CEBCB6" d="M21.81,23.78c0.38,0.06,0.75,0.15,0.89,0.58
		c0.03,0.06,0.01,0.11-0.04,0.15c-0.09,0.03-0.18,0.01-0.27,0c-0.04-0.03-0.08-0.04-0.12-0.06c-0.08,0.01-0.14-0.03-0.18-0.09
		C21.99,24.17,21.59,24.13,21.81,23.78L21.81,23.78z"/>
	<path id="XMLID_206_" fill-rule="evenodd" clip-rule="evenodd" fill="#D3C4BF" d="M26.59,25.02c0.12,0.08,0.25,0.17,0.37,0.25
		c0.03,0.09,0.11,0.18,0.07,0.29c-0.02,0.03-0.04,0.05-0.06,0.08c-0.03,0.01-0.06,0.03-0.09,0.05c-0.18,0.02-0.34-0.03-0.45-0.17
		c-0.11-0.24-0.71-0.38-0.17-0.76C26.39,24.82,26.53,24.88,26.59,25.02z"/>
	<path id="XMLID_205_" fill-rule="evenodd" clip-rule="evenodd" fill="#C7B3AD" d="M33.83,27.51c0.01,0.18,0.02,0.36,0.02,0.55
		c-0.14,0.02-0.22-0.03-0.25-0.17l0,0.01c-0.03-0.07-0.04-0.14-0.06-0.21c-0.03-0.03-0.06-0.06-0.09-0.08
		c-0.04-0.07-0.06-0.15-0.07-0.22v0.01c-0.02-0.07-0.04-0.14-0.05-0.21l0,0c-0.04-0.18-0.24-0.35-0.03-0.54
		c0.17,0.09,0.23,0.25,0.27,0.43C33.61,27.24,33.67,27.4,33.83,27.51z"/>
	<path id="XMLID_204_" fill-rule="evenodd" clip-rule="evenodd" fill="#D2A87B" d="M12.91,2.75c0.04-0.02,0.08-0.05,0.11-0.07
		c0.03,0.03,0.06,0.04,0.1,0.04C13.48,2.83,13.8,2.98,14,3.31L13.99,3.3c0.05,0.11,0.18,0.16,0.18,0.3l-0.01-0.02
		c0.04,0.07,0.02,0.13-0.05,0.17c-0.19,0.04-0.35,0-0.5-0.12c-0.13-0.16-0.24-0.34-0.42-0.45C13.07,3.06,12.92,2.95,12.91,2.75z"/>
	<path id="XMLID_203_" fill-rule="evenodd" clip-rule="evenodd" fill="#C7B3AD" d="M33.35,25.75c-0.02-0.07-0.03-0.14-0.05-0.21
		c-0.03-0.13,0.02-0.21,0.14-0.25l0.03-0.01c0.12,0,0.21,0.05,0.23,0.18l0-0.01c0.03,0.07,0.04,0.14,0.05,0.21l0,0
		c0.02,0.07,0.03,0.13,0.06,0.2c0.02,0.03,0.05,0.06,0.08,0.08c0.05,0.07,0.04,0.12-0.06,0.14c-0.16,0.02-0.36,0.16-0.45-0.12
		C33.37,25.89,33.36,25.82,33.35,25.75z"/>
	<path id="XMLID_202_" fill-rule="evenodd" clip-rule="evenodd" fill="#E0D4D1" d="M28.24,26.43c-0.19-0.11-0.38-0.23-0.57-0.34
		c-0.29-0.17-0.29-0.17-0.59,0.16c-0.05,0.02-0.08,0.02-0.1,0c-0.02-0.03-0.03-0.05-0.02-0.06l-0.01-0.04
		c-0.02-0.25,0.08-0.43,0.32-0.52c0.22,0.05,0.41,0.15,0.53,0.35c0.17,0.11,0.33,0.22,0.5,0.33C28.33,26.37,28.31,26.41,28.24,26.43
		z"/>
	<path id="XMLID_201_" fill-rule="evenodd" clip-rule="evenodd" fill="#D7C8C3" d="M17.69,15.03c-0.03-0.03-0.07-0.07-0.11-0.09
		c-0.02-0.09,0-0.15,0.08-0.2c0.19-0.07,0.41-0.14,0.52,0.06c0.13,0.23,0.08,0.47-0.18,0.62c-0.13-0.01-0.22-0.07-0.26-0.2v0
		C17.73,15.16,17.71,15.09,17.69,15.03z"/>
	<path id="XMLID_200_" fill-rule="evenodd" clip-rule="evenodd" fill="#E0D4D1" d="M23.93,24.43c-0.31,0.04-0.54-0.16-0.81-0.25
		c-0.03-0.01-0.03-0.09-0.04-0.13c0.06-0.07,0.14-0.02,0.21-0.04c0.04,0.03,0.08,0.05,0.13,0.08c0.21-0.01,0.33,0.14,0.48,0.24
		C23.91,24.36,23.92,24.39,23.93,24.43z"/>
	<path id="XMLID_199_" fill-rule="evenodd" clip-rule="evenodd" fill="#C3ADA6" d="M41.11,36.99c-0.05-0.02-0.1-0.04-0.15-0.06
		c-0.16-0.11-0.33-0.22-0.49-0.33c0.01-0.04,0.02-0.09,0.04-0.13c0.16,0.06,0.31,0.13,0.47,0.18
		C41.17,36.72,41.16,36.84,41.11,36.99z"/>
	<path id="XMLID_198_" fill-rule="evenodd" clip-rule="evenodd" fill="#BFA7A0" d="M16.07,16.68c0.09,0.02,0.2,0.08,0.27,0.05
		c0.19-0.06,0.2,0.04,0.19,0.17c0,0.07-0.01,0.14-0.01,0.22c-0.2,0.03-0.32-0.06-0.39-0.24c-0.02-0.04-0.05-0.06-0.09-0.07
		C15.98,16.76,15.99,16.71,16.07,16.68z"/>
	<path id="XMLID_197_" fill-rule="evenodd" clip-rule="evenodd" fill="#E0D4D1" d="M24.65,24.68c0.04,0.04,0.08,0.07,0.12,0.1
		c-0.15,0.05-0.28-0.02-0.41-0.09c-0.14-0.09-0.29-0.18-0.43-0.26c0,0,0-0.03,0-0.03c-0.02-0.08,0.01-0.12,0.09-0.11
		C24.23,24.42,24.44,24.55,24.65,24.68z"/>
	<path id="XMLID_196_" fill-rule="evenodd" clip-rule="evenodd" fill="#E0D4D1" d="M27.25,26.54c-0.02-0.07-0.04-0.14-0.06-0.21
		c0.22,0.15,0.51,0.21,0.58,0.52C27.6,26.75,27.42,26.65,27.25,26.54z"/>
	<path id="XMLID_195_" fill-rule="evenodd" clip-rule="evenodd" fill="#C89158" d="M11,3.52c0-0.08,0-0.16,0-0.24l0.03-0.05
		c0.1-0.07,0.2-0.15,0.3-0.22c0.27,0.17,0.11,0.33-0.01,0.5C11.22,3.58,11.11,3.63,11,3.52z"/>
	<path id="XMLID_194_" fill-rule="evenodd" clip-rule="evenodd" fill="#BFA7A0" d="M16.64,17.22c0.32-0.1,0.32-0.1,0.32,0.15
		c0,0.08-0.01,0.15-0.02,0.23c-0.05,0.03-0.08,0.02-0.11,0c-0.03-0.03-0.03-0.05-0.03-0.06c-0.02-0.04-0.05-0.07-0.09-0.09
		C16.68,17.37,16.61,17.31,16.64,17.22z"/>
	<path id="XMLID_193_" fill-rule="evenodd" clip-rule="evenodd" fill="#BFA7A0" d="M17.01,16.71c-0.24-0.14-0.54-0.21-0.62-0.53
		l0.03-0.01c0.17,0.01,0.3,0.08,0.37,0.24c0.08,0.06,0.16,0.11,0.23,0.17C17.06,16.63,17.06,16.67,17.01,16.71z"/>
	<path id="XMLID_192_" fill-rule="evenodd" clip-rule="evenodd" fill="#C7B1AA" d="M17.89,17.51c0.09,0.05,0.18,0.09,0.27,0.14
		c0.07,0.05,0.15,0.11,0.22,0.17c0.06,0.06,0.04,0.11-0.04,0.13c0,0-0.04,0.01-0.04,0.01C18.16,17.81,17.92,17.76,17.89,17.51z"/>
	<path id="XMLID_191_" fill-rule="evenodd" clip-rule="evenodd" fill="#E0D4D1" d="M22.95,23.97c-0.26,0.09-0.41-0.11-0.6-0.22
		c-0.02-0.08,0.01-0.11,0.09-0.11c0.09,0.05,0.17,0.1,0.26,0.15C22.83,23.79,22.92,23.84,22.95,23.97z"/>
	<path id="XMLID_190_" fill-rule="evenodd" clip-rule="evenodd" fill="#E0D4D1" d="M22.62,24.47c0.03-0.04,0.06-0.08,0.08-0.12
		c0.19,0,0.31,0.09,0.39,0.26c0.02,0.08-0.01,0.11-0.09,0.11c-0.09-0.05-0.17-0.1-0.26-0.15c-0.05,0.01-0.09,0-0.11-0.03
		C22.62,24.51,22.62,24.48,22.62,24.47z"/>
	<path id="XMLID_189_" fill-rule="evenodd" clip-rule="evenodd" fill="#D3A87D" d="M16.42,5.19c0.05-0.09,0.1-0.18,0.14-0.27
		c0.04-0.02,0.07-0.04,0.09-0.08c0.07-0.05,0.12-0.03,0.17,0.03c0.01,0.07,0.01,0.14-0.02,0.21c-0.05,0.1-0.12,0.17-0.22,0.22
		C16.5,5.3,16.45,5.26,16.42,5.19z"/>
	<path id="XMLID_188_" fill-rule="evenodd" clip-rule="evenodd" fill="#DACCC8" d="M30.58,19.66c-0.11-0.06-0.18-0.15-0.19-0.29
		l0.03-0.01c0.04-0.01,0.07,0,0.1,0.02c0.02,0.02,0.03,0.04,0.02,0.05c0.03,0.03,0.07,0.06,0.11,0.09
		C30.67,19.59,30.65,19.64,30.58,19.66z"/>
	<path id="XMLID_187_" fill-rule="evenodd" clip-rule="evenodd" fill="#C08951" d="M16.21,32.85c0.04,0,0.09,0,0.13,0.01
		c-0.01,0.2-0.06,0.34-0.29,0.19c0.02-0.05,0.04-0.09,0.07-0.14C16.16,32.92,16.19,32.9,16.21,32.85z"/>
	<path id="XMLID_186_" fill-rule="evenodd" clip-rule="evenodd" fill="#D1C0BA" d="M20.22,24.03c-0.03,0.04-0.06,0.07-0.1,0.1
		c-0.04-0.02-0.08-0.04-0.12-0.06c-0.04-0.01-0.08-0.01-0.12-0.02c0-0.04-0.01-0.08-0.01-0.12C20.03,23.77,20.14,23.84,20.22,24.03z
		"/>
	<path id="XMLID_185_" fill-rule="evenodd" clip-rule="evenodd" fill="#CFBEB8" d="M20.91,19.58c-0.11-0.06-0.2-0.15-0.19-0.29
		c0.05-0.02,0.08-0.02,0.11,0.01c0.03,0.03,0.03,0.05,0.03,0.06c0.03,0.03,0.06,0.06,0.1,0.09C20.98,19.51,20.96,19.55,20.91,19.58z
		"/>
	<path id="XMLID_184_" fill-rule="evenodd" clip-rule="evenodd" fill="#D1A271" d="M10.49,4.84c-0.02-0.04-0.05-0.07-0.07-0.11
		c0.03-0.03,0.04-0.07,0.04-0.12c0.04-0.04,0.07-0.08,0.11-0.11c0.18,0.09,0.12,0.2,0.02,0.31C10.55,4.82,10.52,4.83,10.49,4.84z"/>
	<path id="XMLID_183_" fill-rule="evenodd" clip-rule="evenodd" fill="#D2C1BC" d="M15.24,23.34c0.11-0.06,0.22-0.03,0.33,0
		l0.01,0.05c0,0.07-0.03,0.1-0.1,0.1c-0.04-0.02-0.08-0.04-0.12-0.05c-0.05,0.01-0.09,0-0.1-0.03
		C15.23,23.38,15.23,23.35,15.24,23.34z"/>
	<path id="XMLID_182_" fill-rule="evenodd" clip-rule="evenodd" fill="#CFBEB8" d="M18.43,16.4c-0.03-0.04-0.06-0.06-0.1-0.09
		c-0.01-0.03-0.02-0.06-0.03-0.1c0.05-0.05,0.11-0.07,0.18-0.06c0.13,0.07,0.23,0.15,0.1,0.31l-0.03,0.01
		c-0.04,0.01-0.07,0-0.1-0.02C18.43,16.43,18.42,16.41,18.43,16.4z"/>
	<path id="XMLID_181_" fill-rule="evenodd" clip-rule="evenodd" fill="#CFBEB8" d="M18.26,16.1c-0.03-0.03-0.06-0.06-0.1-0.08
		c-0.05-0.09-0.02-0.14,0.07-0.16c0.17,0.04,0.29,0.11,0.17,0.32l-0.02,0.01c-0.05,0.01-0.08,0.01-0.1-0.02
		C18.26,16.13,18.25,16.11,18.26,16.1z"/>
	<path id="XMLID_180_" fill-rule="evenodd" clip-rule="evenodd" fill="#C1A9A2" d="M13.33,22.66c0.04,0.03,0.08,0.07,0.12,0.1
		c-0.11,0.06-0.22,0.02-0.33-0.02c0,0,0-0.03,0-0.03c-0.02-0.09,0.02-0.12,0.1-0.09C13.26,22.64,13.29,22.66,13.33,22.66z"/>
	<path id="XMLID_179_" fill-rule="evenodd" clip-rule="evenodd" fill="#C0AAA3" d="M32.78,25.21c0.02,0.06,0.04,0.12,0.06,0.19
		c-0.03-0.01-0.07-0.03-0.1-0.04C32.69,25.29,32.71,25.24,32.78,25.21z"/>
	<path id="XMLID_178_" fill-rule="evenodd" clip-rule="evenodd" fill="#D1C0BA" d="M19.78,24.09c-0.04-0.03-0.08-0.04-0.13-0.04
		L19.7,24c0.04-0.07,0.1-0.08,0.17-0.04l0,0.03C19.88,24.06,19.85,24.09,19.78,24.09z"/>
	<path id="XMLID_177_" fill-rule="evenodd" clip-rule="evenodd" fill="#987B70" d="M37.95,34.08c0.04,0.02,0.07,0.05,0.09,0.08
		c0,0.11,0.06,0.18,0.16,0.22c0.16,0.06,0.32,0.13,0.47,0.21c0.2,0.11,0.26,0.28,0.23,0.5l-0.01,0c-0.07,0.01-0.14,0.01-0.21,0.01
		c-0.21-0.13-0.42-0.27-0.62-0.4c-0.27-0.25-0.54-0.49-0.91-0.55c-0.04-0.02-0.09-0.05-0.12-0.08c0.04-0.21-0.47-0.18-0.22-0.49
		c0.04,0.02,0.08,0.04,0.12,0.07C37.34,33.63,37.68,33.78,37.95,34.08z"/>
	<path id="XMLID_176_" fill-rule="evenodd" clip-rule="evenodd" fill="#B8A097" d="M32.44,33.64c-0.08-0.04-0.17-0.08-0.25-0.13
		c-0.16-0.15-0.38-0.18-0.56-0.19c-0.55-0.02-1.07-0.27-1.63-0.23c-0.06,0-0.1-0.04-0.08-0.1c0.01-0.04,0.07-0.08,0.11-0.08
		c0.87,0.03,1.74,0.09,2.54,0.49c0.05,0.02,0.05,0.13,0.07,0.2C32.57,33.61,32.5,33.63,32.44,33.64z"/>
	<path id="XMLID_175_" fill-rule="evenodd" clip-rule="evenodd" fill="#AF968C" d="M36.82,33.57c-0.03,0.21,0.25,0.28,0.22,0.49
		c-0.13-0.08-0.26-0.15-0.39-0.23c-0.08-0.08-0.22-0.16-0.09-0.29C36.62,33.46,36.73,33.52,36.82,33.57z"/>
	<path id="XMLID_174_" fill-rule="evenodd" clip-rule="evenodd" fill="#AF968C" d="M37.16,34.14c0.44,0.05,0.61,0.15,0.91,0.55
		C37.77,34.51,37.46,34.33,37.16,34.14z"/>
	<path id="XMLID_173_" fill-rule="evenodd" clip-rule="evenodd" fill="#B69C93" d="M38.69,35.1c0.07,0,0.14-0.01,0.21-0.01
		C38.83,35.13,38.76,35.14,38.69,35.1z"/>
	<path id="XMLID_172_" fill-rule="evenodd" clip-rule="evenodd" fill="#DFD3CF" d="M24.96,34.61c-0.04-0.03-0.08-0.05-0.12-0.09
		c0.07-0.01,0.14-0.02,0.2-0.04L25,34.55L24.96,34.61z"/>
	<path id="XMLID_171_" fill-rule="evenodd" clip-rule="evenodd" fill="#AF9086" d="M49.32,41.91c0.63,0.41,1.26,0.82,1.89,1.23
		c0.04,0.12,0.06,0.23-0.02,0.34c-0.07,0.02-0.14,0.03-0.22,0.05c-0.69-0.44-1.38-0.89-2.06-1.33c-0.12-0.08-0.1-0.25,0.02-0.38
		c0.07-0.07,0.13-0.05,0.2-0.01C49.19,41.85,49.25,41.88,49.32,41.91z"/>
	<path id="XMLID_170_" fill-rule="evenodd" clip-rule="evenodd" fill="#C3ADA6" d="M42.74,38.09c-0.46-0.31-0.93-0.62-1.39-0.93
		c0.1-0.21,0.23-0.28,0.46-0.15c0.1,0.06,0.24,0.06,0.36,0c0.09,0.06,0.17,0.12,0.26,0.17c-0.01,0.15-0.01,0.36,0.16,0.38
		c0.3,0.03,0.38,0.3,0.58,0.43C43.02,38.02,42.88,38.05,42.74,38.09z"/>
	<path id="XMLID_169_" fill-rule="evenodd" clip-rule="evenodd" fill="#C3ADA6" d="M44.54,38.67c-0.4,0.14-0.78,0.16-1.11-0.18
		c-0.05-0.06-0.07-0.15-0.02-0.2c0.04-0.05,0.15-0.09,0.19-0.07C43.92,38.36,44.23,38.52,44.54,38.67L44.54,38.67z"/>
	<polygon id="XMLID_168_" fill-rule="evenodd" clip-rule="evenodd" fill="#C3ADA6" points="43.16,37.99 43.23,37.95 43.24,37.99 	
		"/>
	<path id="XMLID_167_" fill-rule="evenodd" clip-rule="evenodd" fill="#BE854A" d="M5.67,16.31c-0.07,0.02-0.14,0.04-0.21,0.05
		c-0.27-0.06-0.53-0.11-0.8-0.17c-0.5-0.32-1.03-0.58-1.48-0.97c0.02-0.08,0-0.14-0.06-0.2c0-0.22,0.01-0.44,0.01-0.66
		c0.08-0.1,0.15-0.19,0.22-0.29c0.11-0.14,0.24-0.14,0.38-0.07c0.29,0.09,0.34,0.32,0.34,0.59c0,0.52,0.47,0.67,0.79,0.91
		c0.19,0.14,0.42-0.04,0.46-0.32c0.01-0.07,0.03-0.13,0.07-0.19c0.34-0.19,0.08-0.6,0.32-0.83C6.03,14,6.2,14.22,6.38,14.42
		c0.15,0.14,0.06,0.35,0.17,0.5c-0.04,0.23-0.13,0.44-0.08,0.67c-0.16,0.18-0.33,0.37-0.49,0.55C5.83,16.13,5.75,16.21,5.67,16.31z"
		/>
	<path id="XMLID_166_" fill-rule="evenodd" clip-rule="evenodd" fill="#C0A9A2" d="M9.98,18.56c-0.12-0.1-0.25-0.2-0.38-0.32
		c-0.03-0.03-0.05-0.1-0.03-0.14c0.04-0.08,0.12-0.07,0.16,0c0.2,0.34,0.56,0.39,0.87,0.52c0.07,0.03,0.09,0.11,0.05,0.18
		c-0.02,0.03-0.09,0.06-0.12,0.05C10.35,18.76,10.18,18.66,9.98,18.56z"/>
	<path id="XMLID_165_" fill-rule="evenodd" clip-rule="evenodd" fill="#BDA7A0" d="M21.36,24.21c-0.07,0-0.14,0.01-0.21,0.01
		c-0.11-0.05-0.22-0.08-0.33-0.02c-0.08-0.04-0.16-0.07-0.24-0.11c-0.07-0.01-0.15-0.01-0.22-0.01c-0.05-0.01-0.09-0.03-0.13-0.06
		c-0.1-0.08-0.22-0.11-0.34-0.07c-0.06,0.01-0.11,0.02-0.17,0.04c-0.06-0.02-0.11-0.03-0.17-0.05c0.02-0.11,0.03-0.22,0.04-0.32
		c0.04,0.02,0.08,0.04,0.12,0.06c0.07-0.02,0.14-0.02,0.21-0.02c0.04,0.02,0.08,0.04,0.13,0.06c0.07-0.02,0.14-0.03,0.21-0.03
		c0.04,0.02,0.08,0.04,0.12,0.06c0.48-0.08,0.95,0.03,1.43,0.02c0,0.13,0.07,0.22,0.17,0.28c0.1,0.07,0.18,0.15,0.18,0.28
		c-0.11-0.04-0.22-0.09-0.34-0.03C21.68,24.23,21.53,24.14,21.36,24.21z"/>
	<path id="XMLID_164_" fill-rule="evenodd" clip-rule="evenodd" fill="#D1C0BA" d="M19.92,23.66c-0.07,0.01-0.14,0.02-0.21,0.02
		C19.78,23.68,19.85,23.67,19.92,23.66z"/>
	<path id="XMLID_163_" fill-rule="evenodd" clip-rule="evenodd" fill="#D1C0BA" d="M20.26,23.69c-0.07,0.01-0.14,0.02-0.21,0.03
		C20.11,23.71,20.18,23.7,20.26,23.69z"/>
	<path id="XMLID_162_" fill-rule="evenodd" clip-rule="evenodd" fill="#C8AC96" d="M21.78,31.12c0.04,0.03,0.08,0.06,0.11,0.09
		c0.06,0.06,0.2,0.09,0.1,0.22c-0.02,0.03-0.09,0.04-0.13,0.04c-0.12-0.01-0.16-0.1-0.13-0.21C21.74,31.21,21.76,31.17,21.78,31.12
		L21.78,31.12z"/>
	<path id="XMLID_161_" fill-rule="evenodd" clip-rule="evenodd" fill="#C1AAA3" d="M26.1,24.71c0.04,0.02,0.08,0.05,0.11,0.08
		c-0.12,0.23-0.04,0.36,0.19,0.43c0.17,0.05,0.14,0.16,0.08,0.28c0.03,0.08,0,0.13-0.09,0.13c-0.18-0.11-0.35-0.21-0.53-0.32
		c-0.3-0.28-0.61-0.55-0.91-0.82c0.09-0.09,0.21-0.18,0.31-0.09C25.51,24.61,25.81,24.62,26.1,24.71z"/>
	<path id="XMLID_160_" fill-rule="evenodd" clip-rule="evenodd" fill="#B2948A" d="M31.39,29.57c-0.15-0.11-0.3-0.22-0.46-0.33
		c0.25-0.32,0.25-0.32,0.61-0.11c0.02,0.07,0.04,0.14,0.07,0.2c0.04,0.09,0.12,0.18,0.04,0.26C31.57,29.68,31.48,29.6,31.39,29.57z"
		/>
	<path id="XMLID_159_" fill-rule="evenodd" clip-rule="evenodd" fill="#B4978E" d="M35.12,32.5c-0.11-0.09-0.23-0.17-0.34-0.26
		c0.25-0.31,0.25-0.31,0.66-0.12c0.04,0.02,0.07,0.04,0.1,0.07c-0.06,0.06-0.18,0.13-0.18,0.19C35.39,32.66,35.23,32.53,35.12,32.5z
		"/>
	<path id="XMLID_158_" fill-rule="evenodd" clip-rule="evenodd" fill="#AF968C" d="M37.95,34.08c-0.34-0.15-0.68-0.3-1.02-0.45
		c0-0.05-0.01-0.1-0.01-0.15c-0.01-0.1-0.02-0.21,0.13-0.13c0.19,0.11,0.38,0.23,0.56,0.35C37.76,33.81,37.92,33.89,37.95,34.08z"/>
	<path id="XMLID_157_" fill-rule="evenodd" clip-rule="evenodd" fill="#B2948A" d="M32.3,29.78c0.02,0.04,0.08,0.1,0.07,0.12
		c-0.03,0.08-0.12,0.1-0.19,0.05c-0.07-0.05-0.08-0.14-0.02-0.2C32.18,29.74,32.25,29.77,32.3,29.78z"/>
	<path id="XMLID_156_" fill-rule="evenodd" clip-rule="evenodd" fill="#C5AFA8" d="M18.81,15.76c0.03,0.07,0.05,0.13,0.08,0.2
		c0.01,0.07,0.03,0.14,0.04,0.21c0.02,0.07,0.04,0.13,0.05,0.2l0,0c-0.12,0.08-0.26,0.13-0.41,0.08c0-0.13-0.08-0.21-0.17-0.29
		c0-0.13-0.08-0.22-0.18-0.28c-0.04-0.03-0.08-0.06-0.12-0.09c0.01-0.14-0.06-0.22-0.16-0.29c0.02-0.04,0.04-0.08,0.05-0.12
		c0.03-0.07,0.08-0.13,0.09-0.2c0.07-0.36,0.06-0.37-0.36-0.38c-0.02,0-0.05-0.01-0.07-0.01c-0.04-0.03-0.08-0.06-0.12-0.09
		c0.01-0.13-0.06-0.22-0.15-0.3c-0.02-0.07-0.04-0.14-0.06-0.2c0.01-0.13-0.07-0.22-0.16-0.3c-0.02-0.07-0.04-0.13-0.06-0.2
		c-0.02-0.07-0.04-0.14-0.06-0.21c0.01-0.13-0.05-0.22-0.14-0.3c-0.02-0.07-0.04-0.14-0.06-0.2c-0.02-0.07-0.04-0.14-0.06-0.21
		c-0.02-0.07-0.03-0.14-0.05-0.21c0.01-0.2-0.05-0.37-0.19-0.51c-0.02-0.07-0.05-0.14-0.07-0.2c-0.02-0.07-0.04-0.14-0.06-0.2
		c0.01-0.13-0.06-0.22-0.15-0.3c-0.02-0.07-0.05-0.14-0.07-0.2c0.02-0.04,0.03-0.08,0.04-0.13c0.1,0.03,0.22,0.01,0.3,0.14
		c0.15,0.24,0.16,0.23,0.36,0.01c0.01-0.02,0.02-0.04,0.04-0.06c0.05,0.02,0.09,0.04,0.13,0.07c0.02,0.07,0.05,0.13,0.07,0.2
		c0,0.13,0.06,0.22,0.15,0.3c0.02,0.07,0.04,0.14,0.07,0.2c0,0.13,0.06,0.22,0.15,0.3c0.02,0.07,0.04,0.14,0.05,0.21
		c0.02,0.07,0.04,0.14,0.06,0.21c0.02,0.07,0.03,0.14,0.05,0.21c0.01,0.07,0.02,0.14,0.04,0.21c0.1,0.13,0.19,0.27,0.33,0.37
		c0.05,0.16,0.08,0.33,0.16,0.48c0.1,0.19,0.18,0.05,0.26-0.03c0.03,0.03,0.07,0.06,0.1,0.09c-0.05,0.11-0.07,0.22-0.01,0.33
		c0.01,0.07,0.03,0.14,0.04,0.21c0.01,0.07,0.03,0.14,0.04,0.21c0.01,0.07,0.02,0.14,0.03,0.21C18.49,15.24,18.57,15.51,18.81,15.76
		z"/>
	<path id="XMLID_155_" fill-rule="evenodd" clip-rule="evenodd" fill="#AC8463" d="M13.24,6.71c-0.04-0.02-0.07-0.03-0.11-0.04
		c-0.02-0.07-0.01-0.13,0.02-0.2c0.04-0.06,0.08-0.11,0.13-0.15c0.19-0.15,0.29-0.37,0.43-0.56c0.07-0.09,0.15-0.15,0.26-0.19
		c0.08,0,0.13,0.04,0.16,0.11v0c0.06,0.76,0.73,1.27,0.86,2.01c-0.2,0.3-0.2,0.3-0.51,0.22c-0.31-0.34-0.61-0.67-0.92-1.01
		C13.52,6.72,13.44,6.62,13.24,6.71z"/>
	<path id="XMLID_154_" fill-rule="evenodd" clip-rule="evenodd" fill="#DEC5AB" d="M14.98,7.7c-0.35-0.39-0.58-0.86-0.83-1.31
		c-0.13-0.22-0.19-0.46-0.03-0.7c0.08,0.06,0.15,0.11,0.23,0.17c0,0.13,0.08,0.22,0.19,0.29c0,0.13,0.07,0.22,0.18,0.29
		c0,0.13,0.08,0.22,0.18,0.29c-0.02,0.2,0.04,0.38,0.21,0.51c0,0.13,0.07,0.22,0.18,0.29c-0.04,0.09,0.04,0.25-0.14,0.27
		C15.08,7.76,15.03,7.73,14.98,7.7z"/>
	<path id="XMLID_153_" fill-rule="evenodd" clip-rule="evenodd" fill="#C38C53" d="M7.81,11.03c0.04-0.07,0.05-0.14,0-0.22
		c0.01-0.22,0.03-0.45,0.04-0.67c0.04-0.08,0.03-0.15-0.02-0.21c0.11-0.41,0.38-0.68,0.75-0.87c0.2,0.1,0.34-0.15,0.54-0.1
		C9.01,9.58,8.5,10.1,8.65,10.83c0.1-0.71,0.67-1.1,0.98-1.64c0.03-0.06,0.08-0.11,0.14-0.15c0.11-0.02,0.2,0.03,0.29,0.09
		c0.05,0.14,0.16,0.17,0.3,0.14c0.44,0.13,0.91,0.21,1.23,0.6c0.04,0.23,0.11,0.45,0.03,0.68c-0.03,0.01-0.07,0.02-0.1,0.02
		c-0.25-0.04-0.3-0.57-0.69-0.28c-0.36-0.01-0.7-0.59-1.06-0.1c-0.31,0.42-0.13,0.85,0.17,1.22c0.11,0.25-0.07,0.63,0.32,0.76
		c0.01,0.03,0.02,0.07,0.03,0.1c-0.03,0.04-0.05,0.08-0.07,0.13c-0.04,0-0.08,0.02-0.11,0.06c-0.31-0.14-0.58-0.41-0.97-0.32
		C8.59,11.89,8,11.7,7.81,11.03z"/>
	<path id="XMLID_152_" fill-rule="evenodd" clip-rule="evenodd" fill="#B18255" d="M12.41,12.34c0.05,0.09,0.11,0.19,0.16,0.28
		c-0.08,0.29-0.01,0.57,0.14,0.85c-0.38,0.02-0.47-0.2-0.59-0.39c-0.37-0.23-0.77-0.45-0.86-0.93c-0.05-0.03-0.09-0.05-0.14-0.08
		c-0.09-0.09-0.12-0.2-0.08-0.33c0.12-0.21,0.3-0.26,0.53-0.23c0.29,0.09,0.47,0.32,0.67,0.53l-0.01-0.02
		C12.21,12.17,12.36,12.22,12.41,12.34z"/>
	<path id="XMLID_151_" fill-rule="evenodd" clip-rule="evenodd" fill="#C38C53" d="M11.26,12.15c0.33,0.27,0.62,0.58,0.86,0.93
		c-0.39,0.03-0.63-0.23-0.88-0.47C11.1,12.48,11.14,12.3,11.26,12.15z"/>
	<path id="XMLID_150_" fill-rule="evenodd" clip-rule="evenodd" fill="#C38C53" d="M11.07,11.86c0.02,0.07,0.04,0.14,0.05,0.21
		c-0.12,0.17-0.29,0.23-0.49,0.21c-0.12-0.01-0.23-0.01-0.35-0.01l-0.01-0.03C10.37,11.76,10.71,11.8,11.07,11.86z"/>
	<path id="XMLID_149_" fill-rule="evenodd" clip-rule="evenodd" fill="#D4AC83" d="M19.75,33.13c-0.02,0.04-0.02,0.08-0.01,0.13
		l-0.04,0.05l-0.03,0.06c-0.06,0.04-0.12,0.05-0.18,0.03c-0.23-0.14-0.49,0.1-0.72-0.07c-0.05-0.04-0.09-0.09-0.13-0.15
		c-0.02-0.06-0.03-0.13-0.04-0.2c0-0.15-0.07-0.29-0.1-0.44c-0.1-0.42,0.14-0.4,0.42-0.33C19.38,32.36,19.53,32.78,19.75,33.13z"/>
	<path id="XMLID_148_" fill-rule="evenodd" clip-rule="evenodd" fill="#C7AA93" d="M20.23,34.09c-0.14-0.09-0.29-0.18-0.47-0.12
		c-0.11,0-0.18,0.05-0.24,0.14c-0.1,0.14-0.2,0.27-0.31,0.41c-0.2,0.02-0.25,0.23-0.38,0.33c-0.29-0.61,0.24-0.83,0.54-1.17
		c0.07-0.05,0.14-0.08,0.22-0.1c0.04,0,0.08,0,0.12,0.01c0.16,0.14,0.36,0.17,0.56,0.19c0.13,0.09,0.3,0.16,0.3,0.35
		C20.46,34.12,20.35,34.11,20.23,34.09z"/>
	<path id="XMLID_147_" fill-rule="evenodd" clip-rule="evenodd" fill="#D4AC83" d="M19.68,33.36c0.01,0.08,0.02,0.15,0.03,0.23
		l-0.06-0.02c-0.1-0.05-0.12-0.11-0.04-0.19L19.68,33.36z"/>
	<path id="XMLID_146_" fill-rule="evenodd" clip-rule="evenodd" fill="#9B7B70" d="M39.89,35.56c0.32,0.21,0.65,0.41,0.97,0.62
		C40.45,36.13,40.15,35.87,39.89,35.56z"/>
	<path id="XMLID_145_" fill-rule="evenodd" clip-rule="evenodd" fill="#C0884E" d="M27.9,13.99c0.04,0.04,0.08,0.06,0.13,0.08
		c0.27,0.17,0.58,0.3,0.67,0.66c0.02,0.07,0.07,0.14,0.13,0.18c0.4,0.23,0.54,0.63,0.7,1.02c0.01,0.04,0,0.08-0.02,0.11
		c-0.02,0.03-0.05,0.05-0.07,0.08c-0.36,0.39-0.76,0.66-1.31,0.34c-0.03-0.17,0.03-0.31,0.18-0.37c0.33-0.13,0.53-0.31,0.32-0.68
		c-0.19-0.34-0.46-0.52-0.87-0.42c-0.37,0.09-0.63,0.29-0.71,0.69c-0.11,0.52,0.1,0.74,0.68,0.69c0.16,0.1,0.21,0.27,0.24,0.44
		c0.08,0.34-0.22,0.42-0.4,0.59c-0.07,0.01-0.13,0.01-0.2,0c-0.37-0.11-0.58-0.43-0.84-0.68c-0.1-0.11-0.2-0.23-0.34-0.31
		c-0.06-0.03-0.11-0.06-0.16-0.1c-0.15-0.12-0.32-0.21-0.42-0.37c-0.02-0.07-0.04-0.14-0.06-0.22c0.05-0.09,0.09-0.17,0.14-0.25
		c0.06,0.05,0.12,0.09,0.17,0.15c0.09,0.12,0.17,0.25,0.35,0.21c0.2-0.04,0.36-0.19,0.34-0.35c-0.05-0.54,0.35-0.66,0.7-0.83
		c0.18-0.09,0.36-0.16,0.55-0.24c0.26-0.11,0.08-0.21-0.01-0.32C27.83,14.04,27.87,14.02,27.9,13.99z"/>
	<path id="XMLID_144_" fill-rule="evenodd" clip-rule="evenodd" fill="#AA8A7F" d="M20.32,20.46c-0.08-0.05-0.16-0.11-0.25-0.16
		c-0.2-0.25-0.17-0.65-0.54-0.81c-0.08-0.03-0.23-0.29,0.04-0.39c0.13-0.02,0.21,0.05,0.28,0.15c0.07,0.05,0.15,0.09,0.22,0.14
		c0.13,0.01,0.22,0.07,0.26,0.2c0.02,0.12,0,0.25,0.05,0.34C20.5,20.14,20.45,20.3,20.32,20.46z"/>
	<path id="XMLID_143_" fill-rule="evenodd" clip-rule="evenodd" fill="#CFBEB8" d="M20.43,18.91c0.08,0.06,0.16,0.11,0.24,0.17
		c-0.02,0.04-0.04,0.08-0.05,0.13C20.49,19.15,20.4,19.07,20.43,18.91z"/>
	<path id="XMLID_142_" fill-rule="evenodd" clip-rule="evenodd" fill="#CFBEB8" d="M20.35,19.59c-0.09-0.07-0.18-0.13-0.26-0.2
		c0.03-0.03,0.05-0.06,0.08-0.09C20.28,19.37,20.35,19.45,20.35,19.59z"/>
	<path id="XMLID_141_" fill-rule="evenodd" clip-rule="evenodd" fill="#CFBEB8" d="M20,19.01c-0.06-0.05-0.09-0.12-0.07-0.2
		C19.96,18.87,19.98,18.94,20,19.01z"/>
	<path id="XMLID_140_" fill-rule="evenodd" clip-rule="evenodd" fill="#CFBEB8" d="M20.16,19.31c-0.02-0.07-0.05-0.14-0.07-0.21
		C20.16,19.15,20.18,19.22,20.16,19.31z"/>
	<path id="XMLID_139_" fill-rule="evenodd" clip-rule="evenodd" fill="#A08277" d="M18.98,9.9c0,0.07-0.01,0.15-0.01,0.22
		c-0.04,0.11-0.07,0.22-0.03,0.33c-0.06,0.12-0.11,0.25-0.17,0.37c-0.18,0.12-0.37,0.15-0.57,0.02c-0.02-0.07-0.03-0.14-0.05-0.21
		c0.07-0.11,0.07-0.22,0.03-0.34c0.06-0.11,0.08-0.22,0.03-0.34c0.06-0.11,0.1-0.21,0.05-0.34c0.06-0.11,0.09-0.22,0.04-0.34
		c0.06-0.11,0.07-0.22,0.02-0.34c-0.01-0.07-0.03-0.14-0.05-0.21c-0.02-0.07-0.03-0.14-0.05-0.21c0.01-0.05,0.03-0.09,0.05-0.13
		c0.09-0.09,0.17-0.19,0.32-0.18c0.03,0.03,0.07,0.06,0.09,0.09c0.01,0.07,0.03,0.14,0.04,0.21c0.02,0.07,0.04,0.14,0.05,0.21
		c0.01,0.07,0.03,0.14,0.04,0.21c0.01,0.07,0.03,0.14,0.04,0.21c0.02,0.07,0.03,0.14,0.05,0.21C18.89,9.54,18.91,9.72,18.98,9.9z"/>
	<path id="XMLID_138_" fill-rule="evenodd" clip-rule="evenodd" fill="#E9E0DD" d="M18.02,13.41c-0.29,0.03-0.3,0.01-0.33-0.37
		c0.08-0.02,0.16-0.04,0.24-0.06C17.96,13.12,17.99,13.27,18.02,13.41z"/>
	<path id="XMLID_137_" fill-rule="evenodd" clip-rule="evenodd" fill="#CFBEB8" d="M19.86,19.25c-0.09-0.05-0.19-0.1-0.28-0.15
		c0.02-0.04,0.04-0.07,0.06-0.11C19.76,19.04,19.84,19.12,19.86,19.25z"/>
	<path id="XMLID_136_" fill-rule="evenodd" clip-rule="evenodd" fill="#CA9C6C" d="M4.72,21.81c0.04-0.08,0.09-0.16,0.13-0.24
		c0.04,0.06,0.07,0.13,0.12,0.19c0.05,0.06,0.11,0.14,0.16,0.14c0.18-0.02,0.04-0.14,0.06-0.22c0.02-0.12,0.02-0.25,0.06-0.37
		c0.02-0.05,0.12-0.06,0.18-0.1c0.12-0.02,0.17-0.15,0.29-0.17l0,0c0.13-0.09,0.28-0.08,0.42-0.09v0c0.22-0.15,0.43-0.3,0.71-0.26
		c0.04,0.03,0.08,0.05,0.13,0.08c0.03,0.18,0.27,0.19,0.3,0.37c-0.02,0.04-0.05,0.09-0.08,0.13C7,21.59,7.52,21.52,7.47,21.75
		c-0.06,0.96-0.4,1.24-1.28,1.01c-0.23-0.06-0.45-0.04-0.67-0.02C5.26,22.43,4.99,22.12,4.72,21.81z"/>
	<path id="XMLID_135_" fill-rule="evenodd" clip-rule="evenodd" fill="#C89967" d="M7.74,20.38c-0.02,0.08-0.01,0.15,0.05,0.21
		c0.02,0.34,0.22,0.61,0.31,0.92l-0.05,0.06l-0.02,0.07l-0.05,0.06l-0.04,0.06c-0.16-0.02-0.23-0.13-0.29-0.26c0-0.03,0-0.07,0-0.1
		c-0.04-0.31-0.26-0.53-0.4-0.79c-0.05-0.19-0.33-0.28-0.23-0.54C7.33,20.06,7.52,20.25,7.74,20.38z"/>
	<path id="XMLID_134_" fill-rule="evenodd" clip-rule="evenodd" fill="#BD8245" d="M7.04,20.05c0.07,0.18,0.24,0.32,0.23,0.54
		c-0.27-0.26-0.6-0.25-0.94-0.23c-0.05,0.03-0.09,0.02-0.11-0.01c-0.02-0.03-0.02-0.05-0.01-0.07c-0.02-0.07-0.03-0.15-0.05-0.22
		c-0.02-0.14,0.04-0.22,0.17-0.26c0.03-0.03,0.06-0.06,0.09-0.09c0.12,0.07,0.25,0.14,0.37,0.21c0.08-0.01,0.14,0.02,0.18,0.09
		C7,20.01,7.03,20.02,7.04,20.05z"/>
	<path id="XMLID_133_" fill-rule="evenodd" clip-rule="evenodd" fill="#C89967" d="M7.42,21.77c-0.13-0.08-0.25-0.16-0.37-0.24
		c-0.05-0.04-0.16-0.07-0.1-0.15c0.03-0.05,0.12-0.05,0.19-0.08c0.02-0.01,0.04-0.02,0.07-0.03c0.16,0.03,0.32,0.02,0.46,0.12l0,0
		C7.62,21.54,7.52,21.66,7.42,21.77z"/>
	<path id="XMLID_132_" fill-rule="evenodd" clip-rule="evenodd" fill="#C89967" d="M6.33,19.81c-0.06,0.09-0.11,0.17-0.17,0.26
		c-0.18,0.01-0.36,0.01-0.54,0.02c0.08-0.11,0.17-0.23,0.25-0.34C6.03,19.76,6.18,19.79,6.33,19.81z"/>
	<path id="XMLID_131_" fill-rule="evenodd" clip-rule="evenodd" fill="#C89967" d="M6.85,20.69c-0.24,0.09-0.47,0.17-0.71,0.26
		C6.44,20.57,6.44,20.57,6.85,20.69z"/>
	<path id="XMLID_130_" fill-rule="evenodd" clip-rule="evenodd" fill="#C89967" d="M6.14,20.95c-0.13,0.09-0.27,0.12-0.42,0.09
		C5.82,20.76,5.82,20.76,6.14,20.95z"/>
	<path id="XMLID_129_" fill-rule="evenodd" clip-rule="evenodd" fill="#C89967" d="M7.28,21.14c-0.14-0.09-0.31-0.16-0.3-0.37
		C7.12,20.86,7.29,20.93,7.28,21.14z"/>
	<path id="XMLID_128_" fill-rule="evenodd" clip-rule="evenodd" fill="#C89967" d="M6.21,20.29c0.04,0.02,0.08,0.05,0.12,0.08
		c-0.04,0.06-0.07,0.13-0.16,0.12C6.18,20.42,6.2,20.35,6.21,20.29z"/>
	<path id="XMLID_127_" fill-rule="evenodd" clip-rule="evenodd" fill="#C89967" d="M5.72,21.04c-0.07,0.1-0.15,0.18-0.29,0.17
		C5.5,21.11,5.58,21.03,5.72,21.04z"/>
	<path id="XMLID_126_" fill-rule="evenodd" clip-rule="evenodd" fill="#AC6A25" d="M18.24,29.06c0.1,0.13,0.2,0.25,0.3,0.38
		c-0.05,0.09-0.11,0.17-0.16,0.26c-0.38,0.15-0.68,0.46-1.08,0.57l0.01,0.01c-0.07,0-0.15,0.01-0.22,0.03h0
		c-0.02-0.07-0.04-0.14-0.05-0.21c-0.13-0.34-0.94-0.42-0.41-1.02c0.11-0.11,0.24-0.19,0.39-0.23c0.35,0.12,0.67,0.55,1.08,0.1
		C18.19,28.95,18.23,28.98,18.24,29.06z"/>
	<path id="XMLID_125_" fill-rule="evenodd" clip-rule="evenodd" fill="#C48C52" d="M17.3,30.27c0.12-0.19,0.2-0.41,0.47-0.44
		c0.21-0.02,0.36-0.32,0.61-0.13c-0.1,0.17-0.21,0.35-0.32,0.52C17.82,30.35,17.56,30.38,17.3,30.27z"/>
	<path id="XMLID_124_" fill-rule="evenodd" clip-rule="evenodd" fill="#C0AAA3" d="M33.44,25.29c-0.05,0.08-0.09,0.17-0.14,0.25
		c-0.06-0.1-0.12-0.2-0.18-0.29C33.24,25.18,33.34,25.22,33.44,25.29z"/>
	<path id="XMLID_123_" fill-rule="evenodd" clip-rule="evenodd" fill="#C7B3AD" d="M33.84,26.09c0.04,0.02,0.09,0.05,0.13,0.07
		c-0.02,0.04-0.03,0.09-0.04,0.13C33.9,26.22,33.87,26.16,33.84,26.09z"/>
	<path id="XMLID_122_" fill-rule="evenodd" clip-rule="evenodd" fill="#C7B3AD" d="M33.31,26.64c-0.06-0.06-0.07-0.13-0.05-0.21
		C33.27,26.5,33.29,26.57,33.31,26.64z"/>
	<path id="XMLID_121_" fill-rule="evenodd" clip-rule="evenodd" fill="#C7B3AD" d="M33.26,26.43c-0.02-0.07-0.03-0.14-0.04-0.22
		C33.23,26.29,33.24,26.36,33.26,26.43z"/>
	<path id="XMLID_120_" fill-rule="evenodd" clip-rule="evenodd" fill="#C0AAA3" d="M33.35,25.75c0.01,0.07,0.03,0.14,0.04,0.21
		C33.38,25.89,33.36,25.82,33.35,25.75z"/>
	<path id="XMLID_119_" fill-rule="evenodd" clip-rule="evenodd" fill="#C7B3AD" d="M33.21,26.22c-0.03-0.07-0.05-0.15-0.08-0.22
		C33.21,26.06,33.23,26.13,33.21,26.22z"/>
	<path id="XMLID_118_" fill-rule="evenodd" clip-rule="evenodd" fill="#C7B3AD" d="M32.93,25.84c0.02-0.04,0.03-0.08,0.05-0.12
		c0.02,0.07,0.05,0.13,0.07,0.2C33.01,25.89,32.97,25.87,32.93,25.84z"/>
	<path id="XMLID_117_" fill-rule="evenodd" clip-rule="evenodd" fill="#C0AAA3" d="M32.87,25.63c0.02-0.04,0.03-0.09,0.03-0.14
		c0.07,0.06,0.1,0.14,0.08,0.23C32.95,25.69,32.91,25.66,32.87,25.63z"/>
	<path id="XMLID_116_" fill-rule="evenodd" clip-rule="evenodd" fill="#C0AAA3" d="M32.67,25.13c0.02-0.04,0.04-0.08,0.05-0.13
		c0.02,0.07,0.04,0.14,0.06,0.21C32.75,25.18,32.71,25.16,32.67,25.13z"/>
	<path id="XMLID_115_" fill-rule="evenodd" clip-rule="evenodd" fill="#C6B0A9" d="M51.19,43.49c-0.07-0.12-0.03-0.23,0.02-0.34
		c0.25,0.16,0.51,0.33,0.76,0.5c-0.01,0.07-0.04,0.14-0.03,0.21c0.01,0.06,0.09,0.13,0.08,0.17c-0.03,0.07-0.12,0.07-0.19,0.03
		C51.56,43.93,51.32,43.76,51.19,43.49z"/>
	<path id="XMLID_114_" fill-rule="evenodd" clip-rule="evenodd" fill="#C6B0A9" d="M54.32,45.34c0.05,0.01,0.09,0.03,0.13,0.07
		c0.01,0.13,0.1,0.22,0.2,0.3c0.18,0.14,0.31,0.32,0.33,0.55c-0.3-0.19-0.59-0.38-0.89-0.56C54.17,45.58,54.25,45.46,54.32,45.34z"
		/>
	<path id="XMLID_113_" fill-rule="evenodd" clip-rule="evenodd" fill="#C79764" d="M6.38,14.42c-0.08-0.05-0.17-0.09-0.25-0.15
		c-0.17-0.11-0.32-0.09-0.44,0.07c0,0.28-0.28,0.45-0.28,0.72l0,0c-0.14,0.37-0.44,0.18-0.69,0.19c-0.07-0.01-0.13-0.02-0.2-0.04
		c-0.52-0.25-0.54-0.64-0.31-1.1c0.12-0.18,0.3-0.21,0.51-0.22c0.33-0.02,0.69,0.1,0.99-0.12c0.15,0.1,0.3,0.19,0.44,0.29
		C6.27,14.15,6.39,14.25,6.38,14.42z"/>
	<path id="XMLID_112_" fill-rule="evenodd" clip-rule="evenodd" fill="#C28E58" d="M4.2,14.12c0.02,0.29-0.02,0.58,0.13,0.85
		c0.08,0.13,0.19,0.13,0.31,0.16h0c0.09-0.04,0.18-0.04,0.28,0c0.17,0.07,0.33,0.05,0.48-0.05c0.05,0.09,0.11,0.17,0.14,0.26
		c0.08,0.2,0.04,0.27-0.16,0.32c-0.02,0.01-0.05,0-0.07,0.01c-0.32,0.09-0.65,0.26-0.82-0.23c-0.04-0.12-0.22-0.2-0.35-0.27
		c-0.25-0.14-0.37-0.31-0.23-0.61c0.1-0.21-0.08-0.38-0.17-0.55C3.93,13.92,4.06,14.05,4.2,14.12z"/>
	<path id="XMLID_111_" fill-rule="evenodd" clip-rule="evenodd" fill="#CE9C67" d="M3.89,13.22c0.11-0.09,0.22-0.18,0.33-0.27
		c0.08-0.07,0.16-0.1,0.26-0.08c0.12,0.08,0.25,0.16,0.4,0.26c-0.17,0.34-0.41,0.5-0.76,0.51C3.92,13.64,3.86,13.52,3.89,13.22z"/>
	<path id="XMLID_110_" fill-rule="evenodd" clip-rule="evenodd" fill="#E0D3CE" d="M31.16,21.83c-0.04-0.03-0.08-0.05-0.13-0.08
		c0.02-0.04,0.05-0.08,0.08-0.12C31.39,21.63,31.16,21.76,31.16,21.83z"/>
	<path id="XMLID_109_" fill-rule="evenodd" clip-rule="evenodd" fill="#DACCC8" d="M30.08,19.87c0.02-0.04,0.05-0.08,0.07-0.13
		c0.02,0.07,0.04,0.13,0.06,0.2C30.17,19.93,30.12,19.9,30.08,19.87z"/>
	<path id="XMLID_108_" fill-rule="evenodd" clip-rule="evenodd" fill="#D2C2BC" d="M31.1,21.96c0.02-0.04,0.05-0.08,0.07-0.12
		c0.02,0.06,0.03,0.13,0.05,0.19C31.18,22.01,31.14,21.99,31.1,21.96z"/>
	<path id="XMLID_107_" fill-rule="evenodd" clip-rule="evenodd" fill="#E0D3CE" d="M30.86,21.46c0.02-0.04,0.04-0.08,0.06-0.13
		c0.03,0.07,0.05,0.13,0.08,0.2C30.95,21.51,30.91,21.49,30.86,21.46z"/>
	<path id="XMLID_106_" fill-rule="evenodd" clip-rule="evenodd" fill="#D2C1BC" d="M15.44,22.76c0.04,0.03,0.08,0.06,0.13,0.09
		c-0.07,0.04-0.15,0.04-0.22,0C15.38,22.82,15.41,22.79,15.44,22.76z"/>
	<path id="XMLID_105_" fill-rule="evenodd" clip-rule="evenodd" fill="#BF874B" d="M15.27,27.49c0.02-0.05,0.05-0.08,0.09-0.09
		c0.11-0.05,0.21,0.07,0.32,0.03c0.04,0.03,0.09,0.05,0.13,0.08c0.07,0.24-0.18,0.4-0.16,0.62c-0.02,0.06-0.05,0.12-0.09,0.17
		c-0.32,0.46-0.14,0.85,0.18,1.22c0.08,0.16,0.11,0.32,0.11,0.49c-0.01,0.08-0.05,0.12-0.12,0.13c-0.15-0.09-0.29-0.19-0.45-0.27
		c-0.38-0.18-0.47-0.56-0.61-0.9c-0.05-0.12,0.02-0.24,0.05-0.36C14.85,28.22,15.07,27.86,15.27,27.49z"/>
	<path id="XMLID_104_" fill-rule="evenodd" clip-rule="evenodd" fill="#B37533" d="M15.82,30.03c-0.17-0.11-0.19-0.24-0.09-0.41
		c0.12-0.06,0.29-0.1,0.13-0.3c-0.15-0.18-0.37-0.34-0.29-0.63c0.43-0.19,0.86,0.09,1.29-0.01c0.07,0.03,0.11,0.08,0.14,0.15
		c-0.03,0.11-0.08,0.19-0.19,0.22c-0.05,0.09-0.11,0.17-0.16,0.26c-0.09,0.15-0.07,0.29,0.07,0.4c0.14,0.11,0.31,0.18,0.31,0.4
		c-0.24-0.2-0.49-0.32-0.79-0.13c-0.05,0.03-0.14,0.01-0.21,0.01C15.96,30,15.91,30.07,15.82,30.03z"/>
	<path id="XMLID_103_" fill-rule="evenodd" clip-rule="evenodd" fill="#C18B52" d="M15.82,30.03c0.07-0.02,0.14-0.03,0.21-0.04
		c-0.07,0.1-0.15,0.19-0.29,0.16C15.77,30.11,15.8,30.07,15.82,30.03z"/>
	<path id="XMLID_102_" fill-rule="evenodd" clip-rule="evenodd" fill="#C4ADA6" d="M26.39,25.62c0.03-0.04,0.06-0.08,0.09-0.13
		c0.13,0.11,0.3,0.09,0.46,0.12l0,0c0.03-0.04,0.05-0.08,0.08-0.12c0.08,0.05,0.16,0.11,0.24,0.16c-0.11,0.16-0.21,0.32-0.32,0.49
		C26.76,25.97,26.58,25.79,26.39,25.62z"/>
	<path id="XMLID_101_" fill-rule="evenodd" clip-rule="evenodd" fill="#C28C54" d="M16.4,27.16c0.01-0.11,0.03-0.22,0.04-0.33
		c0.05-0.02,0.09-0.01,0.11,0.02c0.02,0.03,0.03,0.05,0.02,0.06c0.09,0.12,0.18,0.2,0.35,0.21c0.46,0.04,0.84,0.25,1.05,0.69
		c0.03,0.28,0.06,0.57-0.29,0.68c-0.07,0.01-0.14,0.01-0.21,0c-0.14-0.05-0.24-0.13-0.29-0.28c0.02-0.45-0.4-0.55-0.64-0.79
		C16.46,27.35,16.4,27.27,16.4,27.16z"/>
	<path id="XMLID_100_" fill-rule="evenodd" clip-rule="evenodd" fill="#AD6F2E" d="M17.56,28.44c0.21-0.1,0.36-0.23,0.28-0.5
		c-0.02-0.08,0.03-0.13,0.12-0.13c0.03,0.03,0.07,0.06,0.1,0.08c0.05,0.11,0.19,0.15,0.2,0.28l0,0c0.03,0.06,0.04,0.13,0.03,0.2
		c-0.02,0.15-0.04,0.31-0.06,0.46c-0.03,0.02-0.06,0.04-0.09,0.06C17.76,28.99,17.6,28.79,17.56,28.44z"/>
	<path id="XMLID_99_" fill-rule="evenodd" clip-rule="evenodd" fill="#C18B52" d="M16.4,27.16c0.09,0.06,0.17,0.11,0.26,0.17
		c0.06,0.52-0.57,0.31-0.68,0.64c-0.09,0.11-0.21,0.17-0.36,0.13c-0.11-0.09-0.17-0.17-0.04-0.3c0.09-0.08,0.16-0.19,0.24-0.29
		C15.95,27.29,16.1,27.11,16.4,27.16z"/>
	<path id="XMLID_98_" fill-rule="evenodd" clip-rule="evenodd" fill="#C28C54" d="M18.27,28.18c-0.12-0.06-0.17-0.16-0.2-0.28
		c0.05,0.02,0.1,0.05,0.15,0.07c0.04,0.03,0.08,0.06,0.12,0.09l-0.03,0.06L18.27,28.18z"/>
	<path id="XMLID_97_" fill-rule="evenodd" clip-rule="evenodd" fill="#C18B52" d="M16.57,26.9c-0.04-0.03-0.08-0.05-0.13-0.08
		c-0.02-0.07-0.03-0.14,0.08-0.09C16.55,26.75,16.55,26.85,16.57,26.9z"/>
	<path id="XMLID_96_" fill-rule="evenodd" clip-rule="evenodd" fill="#C18B52" d="M15.69,27.43c-0.12,0.06-0.22,0.03-0.32-0.03
		c0.03-0.04,0.07-0.07,0.1-0.11C15.54,27.34,15.61,27.38,15.69,27.43z"/>
	<path id="XMLID_95_" fill-rule="evenodd" clip-rule="evenodd" fill="#CCB39F" d="M29.41,17.49c-0.02,0.04-0.03,0.08-0.03,0.12
		c-0.06,0.15-0.01,0.29,0.06,0.42c0.05,0.09-0.01,0.13-0.09,0.15c-0.13-0.25-0.37-0.32-0.61-0.4c-0.02-0.07-0.01-0.13,0.02-0.19
		c0.1-0.13,0.21-0.25,0.28-0.4c0.04-0.06,0.1-0.08,0.16-0.04c0.05,0.05,0.11,0.1,0.16,0.15C29.37,17.36,29.39,17.43,29.41,17.49z"/>
	<path id="XMLID_94_" fill-rule="evenodd" clip-rule="evenodd" fill="#BF884F" d="M7.42,21.77c0.01-0.18,0.09-0.3,0.25-0.38
		c0.1,0.12,0.19,0.24,0.29,0.37c0.06,0.13,0.03,0.23-0.09,0.31c-0.14,0.1-0.28,0.21-0.18,0.41C7.76,22.71,7.6,22.85,7.47,23
		c-0.12,0.13-0.31,0.18-0.36,0.36c-0.07,0.02-0.13,0.04-0.2,0.07c-0.07,0.01-0.14,0.02-0.21,0.03c-0.11-0.06-0.21-0.1-0.34-0.07
		c-0.22-0.14-0.44-0.29-0.66-0.43c-0.09-0.05-0.14-0.12-0.16-0.22c0.14-0.33,0.18-0.36,0.4-0.29c0.12,0.04,0.24,0.08,0.35,0.13
		c0.5,0.22,0.82,0.11,1-0.38C7.34,22.06,7.37,21.91,7.42,21.77z"/>
	<path id="XMLID_93_" fill-rule="evenodd" clip-rule="evenodd" fill="#C28C54" d="M18.3,28.38c-0.06-0.06-0.07-0.12-0.03-0.2
		c0.04,0.02,0.08,0.05,0.12,0.08l-0.04,0.06L18.3,28.38z"/>
	<path id="XMLID_92_" fill-rule="evenodd" clip-rule="evenodd" fill="#AD6F2E" d="M18.24,29.06c-0.04-0.02-0.09-0.05-0.13-0.08
		l-0.03-0.07l0.06-0.04c0.03-0.01,0.07-0.02,0.1-0.03C18.24,28.91,18.24,28.99,18.24,29.06z"/>
	<path id="XMLID_91_" fill-rule="evenodd" clip-rule="evenodd" fill="#CC9964" d="M28.81,17.62c-0.03,0.05-0.05,0.1-0.08,0.15
		l-0.06,0.04l-0.03,0.06c-0.22,0.04-0.31,0.24-0.46,0.36c-0.35,0.26-0.72,0.31-1.12,0.13c-0.27-0.13-0.53-0.26-0.8-0.4
		c-0.07-0.22-0.29-0.3-0.41-0.46c-0.02-0.07-0.04-0.14-0.06-0.2c0.03-0.08,0.03-0.15-0.02-0.22c-0.01-0.13-0.09-0.22-0.19-0.29
		c-0.02-0.07-0.05-0.13-0.07-0.2c0.03-0.08,0.03-0.15-0.02-0.21c0.05-0.11,0.06-0.22,0.02-0.34c0.03-0.04,0.07-0.08,0.1-0.12
		c0.31-0.02,0.49,0.15,0.61,0.41c0.28,0.42,0.45,0.95,1.03,1.07c0.07,0.01,0.25,0.36,0.29-0.03l0.01-0.03
		c0.21-0.05,0.37,0.07,0.54,0.13c0.06,0.01,0.12,0.02,0.17,0.03c0.06,0,0.12-0.01,0.17-0.01c0.03,0,0.06-0.01,0.09-0.01
		c0.06-0.01,0.12,0,0.18,0.01C28.77,17.51,28.8,17.56,28.81,17.62z"/>
	<path id="XMLID_90_" fill-rule="evenodd" clip-rule="evenodd" fill="#C08951" d="M19.57,33.7c-0.27,0.25-0.52,0.53-0.68,0.86
		c-0.04,0.08-0.04,0.19-0.06,0.28c-0.32,0.34-0.68,0.58-1.14,0.67c-0.14-0.11-0.29-0.18-0.46-0.1c-0.28-0.11-0.51-0.33-0.82-0.36
		c-0.09-0.18-0.28-0.25-0.42-0.38c-0.14-0.12-0.32-0.22-0.34-0.44c0.25-0.03,0.43-0.2,0.61-0.35c0.21,0,0.3,0.15,0.37,0.31
		c0.08,0.33,0.33,0.4,0.62,0.41c0.46,0.09,0.85,0.03,1.08-0.44c0-0.16,0.01-0.32-0.02-0.47c-0.03-0.16-0.14-0.27-0.23-0.4
		c-0.03-0.1-0.01-0.19,0.05-0.28c0.05-0.05,0.11-0.08,0.17-0.1c0.18-0.02,0.35-0.01,0.41,0.21c0.04,0.03,0.08,0.06,0.11,0.09
		C18.95,33.58,19.51,33.25,19.57,33.7z"/>
	<path id="XMLID_89_" fill-rule="evenodd" clip-rule="evenodd" fill="#B87833" d="M16.24,33.9c0.01,0.65-0.14,0.6-0.59,0.35
		c-0.2-0.51,0.08-0.85,0.4-1.19c0.15,0.01,0.25-0.05,0.29-0.19l0,0c0.11,0,0.17,0.07,0.22,0.16c0.03,0.06,0.05,0.12,0.06,0.18
		c0.01,0.06,0.01,0.13,0,0.19c-0.01,0.03-0.02,0.06-0.03,0.09c-0.08,0.12-0.18,0.24-0.28,0.35C16.28,33.85,16.26,33.88,16.24,33.9z"
		/>
	<path id="XMLID_88_" fill-rule="evenodd" clip-rule="evenodd" fill="#C5935E" d="M18.15,8.1c-0.53,0.1-0.92-0.2-1.31-0.48
		c-0.31-0.38-0.6-0.77-0.3-1.29c0.11-0.1,0.2-0.22,0.3-0.33c0.5-0.63,1.05-0.79,1.55-0.47c0.47,0.31,0.52,0.75,0.16,1.52
		c-0.6-0.24-0.43,0.55-0.81,0.61c0.05,0.12,0.17,0.03,0.25,0.08C18.12,7.83,18.34,7.87,18.15,8.1z"/>
	<path id="XMLID_87_" fill-rule="evenodd" clip-rule="evenodd" fill="#AE763C" d="M18.15,8.1c0.01-0.11-0.04-0.2-0.14-0.22
		c-0.19-0.04-0.39-0.06-0.58-0.1c-0.04-0.01-0.08-0.06-0.09-0.1c-0.01-0.03,0.04-0.1,0.06-0.1c0.39,0.04,0.53-0.18,0.54-0.53
		c0-0.07,0.05-0.14,0.07-0.21c0.2-0.03,0.32,0.13,0.47,0.2c0.22-0.06,0.2-0.25,0.23-0.42c0.04-0.21,0.12-0.38,0.38-0.35
		c0.41,0.24,0.24,0.58,0.16,0.91c-0.05,0.21-0.14,0.38-0.3,0.52c-0.32,0.03-0.33,0.26-0.34,0.5l0,0.01
		c-0.09,0.09-0.17,0.19-0.32,0.18C18.24,8.3,18.19,8.2,18.15,8.1z"/>
	<path id="XMLID_86_" fill-rule="evenodd" clip-rule="evenodd" fill="#D3A87D" d="M16.55,6.36c0.02,0.07,0.06,0.15,0.05,0.21
		c-0.05,0.38,0.12,0.7,0.24,1.04c-0.16-0.11-0.33-0.22-0.49-0.34c-0.04-0.17-0.17-0.27-0.31-0.37C16,6.7,15.96,6.5,15.91,6.29
		c0.07-0.13,0.14-0.25,0.22-0.38C16.63,5.73,16.53,6.1,16.55,6.36z"/>
	<path id="XMLID_85_" fill-rule="evenodd" clip-rule="evenodd" fill="#D7B28C" d="M11.58,9.86c-0.46-0.2-0.97-0.28-1.4-0.56
		c-0.05,0.01-0.08,0.01-0.11-0.02c-0.02-0.03-0.03-0.05-0.02-0.06c-0.09-0.05-0.17-0.1-0.26-0.15c-0.08,0-0.12-0.05-0.13-0.13
		c0.03-0.03,0.06-0.06,0.09-0.09c0.1,0.07,0.21,0.11,0.34,0.07c0.11,0.06,0.22,0.09,0.34,0.04c0.19,0.06,0.36,0.24,0.59,0.18
		c0.28,0.13,0.41,0.42,0.64,0.61l-0.03,0.06L11.58,9.86z"/>
	<path id="XMLID_84_" fill-rule="evenodd" clip-rule="evenodd" fill="#C5935E" d="M12.24,12.04c-0.27-0.16-0.53-0.33-0.8-0.49
		c-0.03-0.02-0.06-0.05-0.09-0.07c-0.06-0.05-0.1-0.12-0.13-0.19c-0.1-0.34-0.05-0.62,0.32-0.77c0,0,0.07,0.01,0.07,0.01
		c0.03,0.12,0.09,0.24,0.08,0.36c-0.04,0.35,0.13,0.57,0.41,0.73C12.14,11.77,12.19,11.9,12.24,12.04z"/>
	<path id="XMLID_83_" fill-rule="evenodd" clip-rule="evenodd" fill="#CC9B67" d="M19.25,7.18c-0.03-0.28,0.01-0.57-0.16-0.83
		c-0.05-0.09-0.12-0.18-0.1-0.29c0.24-0.42-0.44-0.66-0.2-1.08c0.21-0.38-0.3-0.51-0.29-0.82c0.15-0.08,0.29-0.04,0.42,0.05
		c0.18,0.13,0.35,0.28,0.52,0.42c0.03,0.07,0.06,0.13,0.08,0.2c-0.01,0.14,0.08,0.22,0.18,0.29c0.03,0.14,0.05,0.28,0.08,0.42
		c-0.03,0.08-0.02,0.15,0.03,0.21c-0.01,0.11-0.02,0.22-0.03,0.33c-0.07,0.11-0.09,0.22-0.02,0.34C19.6,6.7,19.51,7,19.25,7.18z"/>
	<path id="XMLID_82_" fill-rule="evenodd" clip-rule="evenodd" fill="#C78E52" d="M18.49,4.17c0.17,0.13,0.36,0.24,0.52,0.38
		c0.15,0.14,0.1,0.28-0.11,0.42c-0.06,0.02-0.12,0.01-0.17-0.02c-0.14-0.13-0.3-0.2-0.48-0.23c-0.21-0.08-0.47-0.06-0.56-0.34
		c0.02-0.05,0.04-0.09,0.07-0.13C18,4.28,18.23,4.1,18.49,4.17z"/>
	<path id="XMLID_81_" fill-rule="evenodd" clip-rule="evenodd" fill="#C5894A" d="M11.21,3.48c0.08-0.15,0.21-0.28,0.12-0.47
		c0.03-0.04,0.06-0.08,0.09-0.12c0.25-0.27,0.58-0.3,0.91-0.34c0.24-0.06,0.39,0.12,0.58,0.21c0.17,0.12,0.33,0.24,0.5,0.36
		c0.06,0.6-0.3,0.34-0.53,0.25c-0.41-0.16-0.8-0.3-1.13,0.14c-0.02,0.07-0.04,0.13-0.08,0.19c-0.05,0.05-0.12,0.07-0.19,0.07
		C11.34,3.72,11.24,3.64,11.21,3.48z"/>
	<path id="XMLID_80_" fill-rule="evenodd" clip-rule="evenodd" fill="#C89158" d="M12.33,2.54c-0.3,0.11-0.61,0.23-0.91,0.34
		C11.62,2.5,11.94,2.44,12.33,2.54z"/>
	<path id="XMLID_79_" fill-rule="evenodd" clip-rule="evenodd" fill="#C49A6E" d="M18.61,8.21c-0.04-0.09-0.09-0.18-0.11-0.27
		c-0.02-0.11-0.08-0.25,0.05-0.34c0.12-0.08,0.23,0.02,0.33,0.07c0.02,0.01,0.04,0.02,0.06,0.04C18.83,7.87,18.72,8.04,18.61,8.21z"
		/>
	<path id="XMLID_78_" fill-rule="evenodd" clip-rule="evenodd" fill="#C79057" d="M11.06,6.47c-0.41-0.25-0.54-0.64-0.56-1.1
		c0.03-0.02,0.06-0.04,0.09-0.06c0.9,0.2,1.02,0.4,0.67,1.09C11.2,6.45,11.13,6.47,11.06,6.47z"/>
	<path id="XMLID_77_" fill-rule="evenodd" clip-rule="evenodd" fill="#D1A271" d="M10.4,5.08c0.03-0.08,0.06-0.16,0.09-0.24
		c0.03-0.01,0.06-0.01,0.08-0.02c0.03,0.01,0.06,0.03,0.09,0.04c0.02,0.03,0.04,0.05,0.05,0.08c0.06,0.17,0.02,0.32-0.13,0.44
		c-0.03,0.01-0.06,0-0.08-0.01C10.47,5.28,10.43,5.18,10.4,5.08z"/>
	<path id="XMLID_76_" fill-rule="evenodd" clip-rule="evenodd" fill="#C79057" d="M11.23,6.57c-0.03,0.03-0.06,0.05-0.1,0.08
		c-0.02-0.06-0.05-0.11-0.08-0.17l0.07-0.02C11.19,6.47,11.23,6.5,11.23,6.57z"/>
	<path id="XMLID_75_" fill-rule="evenodd" clip-rule="evenodd" fill="#C5935E" d="M12.41,12.34c-0.12-0.07-0.22-0.15-0.18-0.31
		C12.35,12.09,12.41,12.2,12.41,12.34z"/>
	<path id="XMLID_74_" fill-rule="evenodd" clip-rule="evenodd" fill="#C2905C" d="M14.25,4.56c0.01,0.07,0.02,0.14,0.03,0.21
		c-0.03,0.08-0.06,0.17-0.09,0.25c-0.11,0.08-0.34-0.42-0.37,0.09c-0.01,0.15-0.18,0.22-0.33,0.24c-0.07,0-0.14,0-0.21-0.02
		c-0.17-0.05-0.33-0.12-0.49-0.19c-0.29-0.2-0.47-0.57-0.92-0.52c-0.15,0.02-0.21-0.18-0.19-0.34c0.08-0.22,0.27-0.35,0.46-0.26
		c0.3,0.15,0.26-0.18,0.41-0.22c0.28-0.11,0.53,0,0.79,0.11c0.11,0.05,0.19,0.15,0.32,0.17c-0.1-0.13-0.14-0.26-0.08-0.42
		c0.03-0.02,0.05-0.05,0.08-0.07c0.15,0.04,0.3,0.07,0.44,0.11c0.06,0.1,0.11,0.21,0.17,0.31c0.01,0.07,0.01,0.14,0.02,0.21
		C14.24,4.33,14.2,4.44,14.25,4.56z"/>
	<path id="XMLID_73_" fill-rule="evenodd" clip-rule="evenodd" fill="#C89158" d="M11.55,3.51c-0.05-0.1-0.04-0.19,0.05-0.26
		c0.22-0.18,0.47-0.22,0.76-0.22c0.26,0,0.49,0,0.65,0.24c0.03,0.05,0.13,0.06,0.2,0.07c0.18,0.04,0.19-0.1,0.2-0.23
		c0.2,0.1,0.27,0.27,0.23,0.48l0,0c-0.17,0.15-0.37,0.31-0.59,0.15C12.59,3.42,12.06,3.51,11.55,3.51z"/>
	<path id="XMLID_72_" fill-rule="evenodd" clip-rule="evenodd" fill="#D9B590" d="M18.94,32.21c-0.02,0.01-0.04,0.02-0.07,0.03
		c-0.3,0.1-0.33,0.12-0.19,0.31c0.11,0.15,0.22,0.27,0.1,0.46c-0.19,0.01-0.37-0.12-0.56,0l0,0c-0.07,0.02-0.13,0.02-0.2,0
		c-0.06-0.03-0.11-0.07-0.16-0.11c-0.2-0.33-0.73-0.08-0.88-0.5c0.12-0.17,0.3-0.22,0.5-0.22c0.13,0.01,0.22-0.05,0.31-0.15
		c0.13,0.01,0.22-0.06,0.3-0.15c0.22,0.05,0.44,0.12,0.67,0.07c0.03,0.02,0.06,0.05,0.1,0.06C18.89,32.07,18.91,32.14,18.94,32.21z"
		/>
	<path id="XMLID_71_" fill-rule="evenodd" clip-rule="evenodd" fill="#C89967" d="M6.97,20.01c-0.06-0.03-0.12-0.06-0.18-0.09
		C6.89,19.87,6.95,19.91,6.97,20.01z"/>
	<path id="XMLID_70_" fill-rule="evenodd" clip-rule="evenodd" fill="#B36E26" d="M11.21,3.48c0.13,0.07,0.26,0.15,0.39,0.23
		c0.33,0.63-0.39,0.66-0.6,0.97c-0.14,0.2-0.26-0.18-0.38-0.31v0c-0.01-0.12,0.09-0.21,0.07-0.34C10.67,3.8,10.86,3.67,11,3.52
		C11.07,3.51,11.14,3.49,11.21,3.48z"/>
	<path id="XMLID_69_" fill-rule="evenodd" clip-rule="evenodd" fill="#BD8245" d="M10.68,4.04c0.06,0.13,0.02,0.24-0.07,0.34
		c-0.04-0.02-0.07-0.05-0.1-0.09C10.57,4.2,10.63,4.12,10.68,4.04z"/>
	<path id="XMLID_68_" fill-rule="evenodd" clip-rule="evenodd" fill="#C08951" d="M17,32.39c0.15,0.13,0.32,0.1,0.5,0.1
		c0.24,0,0.45,0.08,0.48,0.36c0.02,0.07,0.01,0.12-0.05,0.16c-0.12,0.04-0.24,0.04-0.37,0.06c-0.09,0.02-0.18,0.05-0.27,0.08
		c-0.26,0.11-0.51,0.2-0.78,0.03c-0.06-0.1-0.12-0.21-0.18-0.31c0.06-0.31,0.38-0.32,0.55-0.5C16.92,32.38,16.96,32.39,17,32.39z"/>
	<path id="XMLID_67_" fill-rule="evenodd" clip-rule="evenodd" fill="#CC9D6B" d="M17.09,30.31c0.06-0.07,0.14-0.07,0.22-0.03
		l-0.04,0.06l-0.05,0.05C17.18,30.36,17.13,30.33,17.09,30.31z"/>
	<path id="XMLID_66_" fill-rule="evenodd" clip-rule="evenodd" fill="#B97A37" d="M9.71,9.18c0.1,0.36,0.1,0.36-0.11,0.47
		C9.56,9.67,9.48,9.66,9.46,9.69c-0.21,0.4-0.66,0.67-0.65,1.2c0.01,0.29-0.06,0.31-0.38,0.21c-0.21-0.06-0.23-0.08-0.08-0.23
		c0.13-0.13,0.18-0.22,0.04-0.36c-0.06-0.07-0.03-0.13,0.05-0.16c0.08-0.03,0.12-0.09,0.1-0.17c-0.08-0.48,0.16-0.8,0.5-1.08
		C9.08,9.06,9.1,9,9.12,8.96C9.19,8.9,9.26,8.9,9.33,8.94C9.51,8.93,9.64,9.02,9.71,9.18z"/>
	<path id="XMLID_65_" fill-rule="evenodd" clip-rule="evenodd" fill="#C5935E" d="M9.71,9.18C9.58,9.1,9.46,9.02,9.33,8.94
		c0.03-0.03,0.06-0.06,0.09-0.09C9.5,8.88,9.58,8.91,9.65,8.94C9.7,8.98,9.75,9.02,9.79,9.07C9.76,9.1,9.74,9.14,9.71,9.18z"/>
	<path id="XMLID_64_" fill-rule="evenodd" clip-rule="evenodd" fill="#C0884E" d="M19.04,6.14c0.02,0.07,0.03,0.14,0.05,0.21
		c-0.14,0.01-0.21,0.09-0.23,0.23c-0.04,0.22-0.11,0.43-0.39,0.46c0.16-0.3,0.02-0.64,0.14-0.95c0.02-0.05-0.02-0.16-0.07-0.2
		c-0.28-0.29-0.64-0.55-1.05-0.24c-0.08,0.06-0.17,0.11-0.26,0.15c-0.23,0.11-0.32,0.28-0.31,0.54c0.01,0.21-0.14,0.15-0.25,0.09
		c-0.04-0.02-0.09-0.05-0.13-0.07c-0.05-0.07-0.14-0.14-0.15-0.22c-0.01-0.19-0.13-0.22-0.27-0.24l0,0
		c-0.04-0.12,0.07-0.22,0.06-0.33c0.08-0.13,0.15-0.25,0.23-0.38c0.04,0.02,0.08,0.04,0.12,0.05c0.29,0.31,0.38-0.09,0.56-0.16
		c0.41-0.2,0.87-0.22,1.31-0.28c0.07,0.01,0.13,0.04,0.19,0.08C18.83,5.27,18.93,5.71,19.04,6.14z"/>
	<path id="XMLID_63_" fill-rule="evenodd" clip-rule="evenodd" fill="#D3A87D" d="M16.19,5.58c0.06,0.13,0.03,0.23-0.06,0.33
		c-0.04-0.02-0.08-0.05-0.11-0.08C16.07,5.74,16.13,5.66,16.19,5.58z"/>
	<path id="XMLID_62_" fill-rule="evenodd" clip-rule="evenodd" fill="#C0884E" d="M29.47,16.37c0.02,0.03,0.05,0.07,0.07,0.11
		c-0.14,0.21-0.28,0.41-0.34,0.66c-0.03-0.02-0.05-0.03-0.08-0.05c-0.15-0.08-0.13-0.2-0.1-0.33
		C29.11,16.56,29.22,16.38,29.47,16.37z"/>
	<path id="XMLID_61_" fill-rule="evenodd" clip-rule="evenodd" fill="#BD8245" d="M10.61,4.37c0.1,0.08,0.2,0.15,0.3,0.23
		c0.18-0.06,0.1-0.26,0.19-0.38c0.11-0.14,0.28-0.09,0.41-0.18c0.12-0.09,0.13-0.21,0.08-0.33c0.03-0.04,0.05-0.07,0.07-0.11
		c0.08-0.05,0.16-0.04,0.25-0.02c0.06,0.01,0.11,0.02,0.17,0.03c0.06,0,0.11,0.01,0.17,0.02c0.09,0.01,0.17,0.03,0.25,0.06
		c0.05,0.03,0.09,0.08,0.1,0.14c-0.1,0.16-0.08,0.47-0.44,0.31c-0.17-0.08-0.33,0.05-0.44,0.2c-0.09,0.27-0.05,0.55-0.03,0.82
		c0.02,0.29,0.19,0.53,0.49,0.6c0.33,0.08,0.43-0.18,0.52-0.42c0.03-0.06,0.06-0.12,0.1-0.18c0.02-0.03,0.04-0.05,0.06-0.08
		c0.19-0.09,0.32,0.03,0.46,0.13c-0.11,0.41-0.03,0.83-0.04,1.24c-0.03,0.04-0.06,0.07-0.1,0.1c-0.18,0.05-0.2,0.28-0.37,0.34h0
		c-0.37-0.08-0.79,0.02-1.09-0.35c-0.11-0.14-0.26,0.05-0.39,0.09c-0.05,0-0.09-0.02-0.12-0.05c-0.03-0.04-0.07-0.08-0.1-0.11
		c0.05-0.09,0.1-0.18,0.13-0.27c0.13-0.33,0.12-0.37-0.24-0.54c-0.15-0.08-0.23-0.27-0.44-0.26c0.02-0.16,0.04-0.31,0.06-0.47
		l0,0.01c-0.03-0.03-0.06-0.06-0.07-0.09c0.03-0.11,0.07-0.22,0-0.32C10.56,4.45,10.57,4.41,10.61,4.37z"/>
	<path id="XMLID_60_" fill-rule="evenodd" clip-rule="evenodd" fill="#C79057" d="M11.35,6.62c0-0.25,0.08-0.43,0.36-0.46
		c0.13-0.01,0.23,0,0.27,0.16c0.1,0.4,0.12,0.43,0.51,0.38c0.2-0.03,0.26,0.06,0.34,0.18C12.77,6.94,12.71,7,12.65,7.05
		C12.5,7,12.36,6.93,12.2,6.98c-0.14-0.08-0.29-0.14-0.46-0.11C11.6,6.78,11.48,6.7,11.35,6.62z"/>
	<path id="XMLID_59_" fill-rule="evenodd" clip-rule="evenodd" fill="#B67530" d="M18.43,4.85c-0.06,0.05-0.11,0.13-0.17,0.14
		c-0.36,0.06-0.73,0.09-1.1,0.14c-0.08,0.02-0.15,0-0.21-0.06c-0.09-0.16-0.08-0.29,0.12-0.36c0.1-0.13,0.3-0.12,0.37-0.29
		c0.08-0.01,0.15-0.03,0.22-0.04c0.23,0.11,0.51,0.08,0.71,0.26C18.54,4.68,18.53,4.76,18.43,4.85z"/>
	<path id="XMLID_58_" fill-rule="evenodd" clip-rule="evenodd" fill="#C0884E" d="M17.08,4.71c-0.04,0.11-0.1,0.22-0.03,0.34
		c-0.11,0.24-0.22,0.13-0.32-0.01c0.02-0.05,0.04-0.11,0.06-0.16c0.06-0.07,0.12-0.14,0.18-0.2C17,4.69,17.04,4.7,17.08,4.71z"/>
	<path id="XMLID_57_" fill-rule="evenodd" clip-rule="evenodd" fill="#C0884E" d="M29.59,16.14c-0.03,0.04-0.06,0.08-0.09,0.13
		c-0.13-0.02-0.14-0.09-0.07-0.19c0.03-0.01,0.06-0.03,0.08-0.04C29.53,16.07,29.56,16.1,29.59,16.14z"/>
	<path id="XMLID_56_" fill-rule="evenodd" clip-rule="evenodd" fill="#B87631" d="M16.72,5.04c0.11,0.04,0.21,0.07,0.32,0.01
		c0.04,0.03,0.08,0.05,0.13,0.08c-0.07,0.11-0.13,0.22-0.21,0.32c-0.1,0.13-0.15,0.4-0.37,0.29c-0.16-0.08-0.06-0.32-0.06-0.49
		C16.6,5.18,16.66,5.11,16.72,5.04z"/>
	<path id="XMLID_55_" fill-rule="evenodd" clip-rule="evenodd" fill="#DEC5AB" d="M14.12,5.69c-0.04-0.02-0.08-0.05-0.11-0.08
		c-0.03-0.13,0.02-0.21,0.15-0.25c0.03,0.03,0.06,0.06,0.09,0.09C14.2,5.52,14.16,5.61,14.12,5.69z"/>
	<path id="XMLID_54_" fill-rule="evenodd" clip-rule="evenodd" fill="#B27433" d="M29.42,16.08c0.03,0.06,0.05,0.13,0.07,0.19
		c0.01,0.04,0.01,0.08-0.03,0.11c-0.12,0.18-0.25,0.35-0.38,0.53c-0.38,0.02-0.76-0.06-1.14-0.02c-0.03-0.01-0.07-0.03-0.1-0.04
		c-0.09-0.13-0.11-0.27-0.08-0.42c0.03-0.01,0.05-0.02,0.08-0.03c0.06,0,0.12,0,0.18,0.02c0.02,0.02,0.05,0.03,0.08,0.05
		c0.12-0.02,0.26-0.1,0.36-0.07c0.26,0.09,0.43-0.05,0.61-0.19C29.18,16.14,29.28,16.06,29.42,16.08z"/>
	<path id="XMLID_43_" fill-rule="evenodd" clip-rule="evenodd" fill="#D1C0BA" d="M20.35,24.08c0.07-0.04,0.15-0.04,0.22,0.01
		c-0.03,0.03-0.07,0.06-0.1,0.09C20.43,24.15,20.39,24.12,20.35,24.08z"/>
	<path id="XMLID_38_" fill-rule="evenodd" clip-rule="evenodd" fill="#CFBEB8" d="M18.98,16.38c-0.02-0.07-0.03-0.14-0.05-0.2
		c0.04,0.03,0.08,0.05,0.12,0.08C19.03,16.29,19.01,16.34,18.98,16.38z"/>
	<path id="XMLID_37_" fill-rule="evenodd" clip-rule="evenodd" fill="#BF874C" d="M14.16,5.35c-0.05,0.08-0.1,0.17-0.15,0.25
		c-0.07,0.09-0.14,0.17-0.21,0.26c-0.26-0.11-0.32-0.33-0.33-0.58c0.13-0.1,0.34-0.16,0.24-0.4c-0.02-0.04-0.03-0.1-0.03-0.14
		c0-0.1-0.01-0.23,0.09-0.26c0.15-0.04,0.21,0.09,0.27,0.2c0.05,0.11,0.1,0.22,0.16,0.33c0.03,0.03,0.06,0.05,0.09,0.08
		C14.24,5.19,14.2,5.27,14.16,5.35z"/>
	<path id="XMLID_36_" fill-rule="evenodd" clip-rule="evenodd" fill="#C79057" d="M12.83,6.88c0.07-0.17,0.16-0.32,0.37-0.34
		c-0.02,0.05-0.05,0.09-0.07,0.13c-0.06,0.08-0.12,0.17-0.17,0.25C12.91,6.91,12.87,6.9,12.83,6.88z"/>
	<path id="XMLID_35_" fill-rule="evenodd" clip-rule="evenodd" fill="#C28E58" d="M5.4,15.07c-0.15-0.23-0.13-0.42,0.13-0.56
		c0.06-0.03,0.1-0.11,0.15-0.16c0.04,0.21,0.1,0.42,0.21,0.6C5.75,15.11,5.55,14.96,5.4,15.07z"/>
	<path id="XMLID_34_" fill-rule="evenodd" clip-rule="evenodd" fill="#A0672D" d="M13.47,5.28c0.23,0.13,0.22,0.39,0.33,0.58
		c-0.05,0.11-0.11,0.21-0.14,0.33c-0.05,0.21-0.18,0.26-0.37,0.25c-0.3-0.29-0.18-0.67-0.21-1.01c-0.01-0.07,0.17-0.15,0.26-0.23
		C13.38,5.23,13.43,5.26,13.47,5.28z"/>
	<path id="XMLID_33_" fill-rule="evenodd" clip-rule="evenodd" fill="#C5935E" d="M9.88,11.45c-0.12-0.03-0.25-0.03-0.32-0.16
		c-0.17-0.3-0.13-0.63-0.15-0.94c-0.01-0.23,0.43-0.6,0.67-0.62c0.07-0.01,0.18,0.01,0.2,0.05c0.12,0.24,0.44,0.23,0.55,0.48
		c0.41,0.07,0.32,0.33,0.22,0.59c-0.1,0.09-0.21,0.07-0.32,0.05c-0.35-0.08-0.06,0.13-0.09,0.2c0.05,0.13,0.06,0.26,0,0.39
		c-0.04,0.06-0.09,0.1-0.16,0.13c-0.06,0.02-0.13,0.03-0.2,0.03c-0.1,0-0.2-0.02-0.3-0.05C9.93,11.57,9.89,11.52,9.88,11.45z"/>
	<path id="XMLID_32_" fill-rule="evenodd" clip-rule="evenodd" fill="#C0874B" d="M9.88,11.45c0.04,0.03,0.08,0.05,0.13,0.08
		c0.12-0.01,0.21,0.13,0.34,0.04v0c0.07-0.01,0.14-0.03,0.21-0.05c0.01-0.11,0.02-0.22,0.03-0.33c0.07-0.17,0.19-0.27,0.38-0.3
		c0.01-0.22,0.11-0.46-0.14-0.63c0.03-0.07,0.06-0.14,0.09-0.2c0.08-0.15,0.18-0.19,0.26-0.09c0.13,0.18,0.24,0.37,0.35,0.56
		c-0.12,0.26-0.36,0.49-0.14,0.81c0.01,0.07,0.03,0.14,0.05,0.21l0,0c-0.13,0.09-0.29,0.15-0.37,0.31
		c-0.14,0.05-0.28,0.11-0.42,0.14c-0.15,0.04-0.28,0.11-0.37,0.24c-0.14-0.03-0.29-0.05-0.42-0.1c-0.12-0.04-0.23-0.14-0.1-0.27
		C9.86,11.74,9.85,11.59,9.88,11.45z"/>
	<path id="XMLID_30_" fill-rule="evenodd" clip-rule="evenodd" fill="#C5935E" d="M10.05,9.22c0.04,0.03,0.08,0.06,0.13,0.08
		C10.08,9.36,10.04,9.33,10.05,9.22z"/>
	<path id="XMLID_29_" fill-rule="evenodd" clip-rule="evenodd" fill="#C6945F" d="M19.57,33.7c-0.14-0.11-0.3-0.16-0.47-0.19
		c-0.16-0.02-0.27-0.12-0.28-0.29c0.07,0.01,0.16,0.06,0.2,0.03c0.3-0.19,0.3-0.2,0.49,0.02c0.03,0.04,0.07,0.07,0.1,0.1
		c0.01,0.06,0.02,0.13,0.04,0.19C19.63,33.61,19.6,33.66,19.57,33.7z"/>
	<path id="XMLID_28_" fill-rule="evenodd" clip-rule="evenodd" fill="#C6945F" d="M18.23,33.01c0.18-0.25,0.37-0.12,0.56,0
		c-0.03,0.04-0.05,0.09-0.08,0.13C18.55,33.09,18.39,33.05,18.23,33.01z"/>
	<path id="XMLID_27_" fill-rule="evenodd" clip-rule="evenodd" fill="#C89865" d="M27.78,16.43c-0.12-0.01-0.17,0.06-0.23,0.15
		c-0.13,0.17-0.41,0.2-0.48,0.04c-0.11-0.26-0.4-0.47-0.25-0.81c0.06-0.14,0.05-0.3,0.11-0.43c0.09-0.24,0.23-0.44,0.51-0.49
		c0.17-0.03,0.34-0.1,0.51-0.13c0.09-0.02,0.2-0.02,0.29,0.01c0.42,0.15,0.77,0.78,0.67,1.21c-0.03,0.16-0.13,0.29-0.31,0.24
		c-0.26-0.07-0.37,0.08-0.48,0.26v0C28,16.49,27.9,16.39,27.78,16.43z"/>
	<path id="XMLID_26_" fill-rule="evenodd" clip-rule="evenodd" fill="#D0A476" d="M27.54,17.37c0.05,0.11,0.1,0.22,0.17,0.39
		c-0.26-0.04-0.43-0.26-0.7-0.2c-0.15,0.03-0.27-0.32-0.54-0.26c-0.04,0.01-0.05-0.12-0.03-0.2c0.04-0.1,0.04-0.22-0.07-0.26
		c-0.29-0.11-0.16-0.33-0.16-0.51v0c0.13-0.02,0.22,0.03,0.26,0.16C26.89,16.72,27.12,17.16,27.54,17.37z"/>
	<path id="XMLID_25_" fill-rule="evenodd" clip-rule="evenodd" fill="#B27433" d="M28.26,17.62c-0.32,0.12-0.49-0.15-0.71-0.27
		c0.03-0.09-0.01-0.23,0.13-0.24c0.19-0.01,0.16-0.15,0.19-0.26c0,0,0.03,0,0.03,0C28.34,16.95,28.41,17.23,28.26,17.62z"/>
	<path id="XMLID_24_" fill-rule="evenodd" clip-rule="evenodd" fill="#CC9964" d="M26.48,16.49c-0.09-0.05-0.17-0.1-0.26-0.16
		C26.39,16.25,26.47,16.31,26.48,16.49z"/>
	<path id="XMLID_23_" fill-rule="evenodd" clip-rule="evenodd" fill="#935717" d="M18.14,28.87c-0.01,0.04-0.02,0.07-0.03,0.11
		c-0.1,0.44-0.14,0.47-0.51,0.39c-0.02-0.01-0.05-0.02-0.07-0.02c-0.32,0-0.38-0.23-0.43-0.47c-0.06,0.02-0.1,0.02-0.11-0.01
		c-0.02-0.03-0.02-0.06-0.01-0.07l0,0c-0.05-0.12-0.22-0.19-0.18-0.35c0.03-0.07,0.09-0.1,0.16-0.11c0.21,0.01,0.38,0.17,0.6,0.11h0
		C17.75,28.59,17.85,28.87,18.14,28.87z"/>
	<path id="XMLID_22_" fill-rule="evenodd" clip-rule="evenodd" fill="#AD6F2E" d="M16.98,28.79c0.04,0.03,0.08,0.05,0.12,0.08
		c-0.07,0.1-0.15,0.18-0.29,0.17C16.87,28.96,16.93,28.88,16.98,28.79z"/>
	<path id="XMLID_21_" fill-rule="evenodd" clip-rule="evenodd" fill="#C79764" d="M4.64,15.13c0.01,0.02,0.04,0.06,0.03,0.06
		C4.64,15.23,4.63,15.2,4.64,15.13L4.64,15.13z"/>
	<path id="XMLID_20_" fill-rule="evenodd" clip-rule="evenodd" fill="#C18B52" d="M15.63,28.65c0.1,0.35,0.38,0.56,0.62,0.8
		c0.07,0.07,0.1,0.18,0.02,0.26c-0.04,0.04-0.14,0.07-0.2,0.06c-0.12-0.03-0.22-0.09-0.33-0.14c-0.08-0.05-0.16-0.11-0.25-0.16
		c-0.21-0.12-0.35-0.26-0.25-0.54c0.04-0.13-0.01-0.29-0.03-0.44c-0.04-0.28,0.14-0.27,0.33-0.26c0.04,0.03,0.07,0.07,0.1,0.12
		c0.01,0.02,0.01,0.05,0.02,0.07c0.01,0.05,0.01,0.1,0.01,0.16C15.65,28.6,15.64,28.62,15.63,28.65z"/>
	<path id="XMLID_19_" fill-rule="evenodd" clip-rule="evenodd" fill="#B37533" d="M15.58,28.44c-0.01-0.07-0.03-0.14-0.04-0.21
		c0.03-0.04,0.06-0.08,0.08-0.13c0.1-0.06,0.2-0.11,0.29-0.16c0.37-0.06,0.66,0.07,0.87,0.37C16.47,29.16,16,28.56,15.58,28.44z"/>
	<path id="XMLID_18_" fill-rule="evenodd" clip-rule="evenodd" fill="#AD6F2E" d="M15.58,28.44c0.15-0.07,0.28,0.01,0.41,0.07
		c0.42,0.19,0.42,0.18,0.77-0.22c0.04-0.01,0.07,0,0.09,0.02c0.02,0.02,0.04,0.04,0.03,0.04c0.03,0.15,0.06,0.29,0.1,0.44
		c-0.02,0-0.05-0.01-0.07-0.01c-0.23,0.04-0.5,0.18-0.69,0.1c-0.19-0.08-0.42-0.11-0.59-0.23l0,0
		C15.62,28.58,15.61,28.51,15.58,28.44L15.58,28.44z"/>
	<path id="XMLID_17_" fill-rule="evenodd" clip-rule="evenodd" fill="#C1AAA3" d="M26.94,25.62c0.01,0.02,0.04,0.06,0.03,0.06
		C26.93,25.72,26.92,25.69,26.94,25.62L26.94,25.62z"/>
	<path id="XMLID_16_" fill-rule="evenodd" clip-rule="evenodd" fill="#C99763" d="M16.88,28.35c-0.04-0.03-0.08-0.05-0.12-0.06
		c-0.33,0-0.58-0.2-0.85-0.35c0.02-0.4,0.06-0.48,0.37-0.39c0.26,0.07,0.27-0.11,0.38-0.22c0.3,0.17,0.56,0.37,0.78,0.64
		c-0.03,0.14-0.17,0.15-0.26,0.24l-0.04,0.06c-0.03,0.04-0.07,0.06-0.12,0.08C16.98,28.35,16.93,28.36,16.88,28.35L16.88,28.35z"/>
	<path id="XMLID_15_" fill-rule="evenodd" clip-rule="evenodd" fill="#AD6F2E" d="M16.88,28.35c0.03-0.04,0.05-0.08,0.09-0.12
		c0.07,0.01,0.14-0.02,0.21-0.03v0c0.13,0.08,0.26,0.16,0.38,0.24C17.31,28.62,17.09,28.53,16.88,28.35z"/>
	<path id="XMLID_14_" fill-rule="evenodd" clip-rule="evenodd" fill="#955819" d="M28.26,17.62c-0.06-0.29-0.12-0.57-0.37-0.77
		c0.41-0.22,0.82-0.28,1.2,0.06c0.01,0.06,0.02,0.13,0.02,0.19c0,0.05-0.01,0.09,0,0.14c0.03,0.31,0.03,0.31-0.3,0.38
		c-0.04-0.03-0.08-0.04-0.13-0.06c-0.07,0-0.14,0.01-0.21,0.04l0,0C28.4,17.61,28.34,17.61,28.26,17.62L28.26,17.62z"/>
	<path id="XMLID_13_" fill-rule="evenodd" clip-rule="evenodd" fill="#B27433" d="M28.26,17.62c0.07-0.01,0.14-0.02,0.21-0.02
		C28.41,17.65,28.34,17.66,28.26,17.62z"/>
	<path id="XMLID_12_" fill-rule="evenodd" clip-rule="evenodd" fill="#B27433" d="M28.47,17.6c0.06-0.05,0.14-0.06,0.21-0.04
		C28.62,17.57,28.55,17.59,28.47,17.6z"/>
	<path id="XMLID_11_" fill-rule="evenodd" clip-rule="evenodd" fill="#C6945F" d="M16.51,33.18c0.28-0.06,0.56-0.12,0.84-0.18
		c0.31,0.08,0.67,0.23,0.13,0.44c-0.44,0.17-0.55,0.55-0.85,0.81c-0.03,0.01-0.07,0.02-0.11,0.03c-0.1-0.13-0.19-0.25-0.29-0.37
		c0,0,0,0,0,0c-0.09-0.29,0.34-0.26,0.31-0.51l0,0C16.54,33.32,16.54,33.25,16.51,33.18L16.51,33.18z"/>
	<path id="XMLID_10_" fill-rule="evenodd" clip-rule="evenodd" fill="#C6945F" d="M18.39,34.2c0.08,0.06,0.16,0.14,0.09,0.24
		c-0.21,0.27-0.55,0.31-0.84,0.44c-0.16,0.07-0.31-0.12-0.46-0.2c0.01-0.03,0.02-0.06,0.03-0.1c0.35-0.17,0.69-0.36,1.08-0.41
		C18.32,34.18,18.35,34.19,18.39,34.2z"/>
	<path id="XMLID_9_" fill-rule="evenodd" clip-rule="evenodd" fill="#C6945F" d="M17.17,34.68c-0.5,0.15-0.56,0.11-0.64-0.41l0.01,0
		C17.09,33.87,17.16,34.23,17.17,34.68L17.17,34.68z"/>
	<path id="XMLID_8_" fill-rule="evenodd" clip-rule="evenodd" fill="#C6945F" d="M17.56,32.95c0.12-0.07,0.23-0.03,0.34,0.04
		c0.07-0.03,0.14-0.03,0.21-0.04c0.04,0.02,0.08,0.04,0.13,0.07c-0.05,0.09-0.11,0.18-0.16,0.27c-0.04,0.01-0.07,0.01-0.11,0.02
		C17.78,33.23,17.64,33.13,17.56,32.95z"/>
	<path id="XMLID_905_" fill-rule="evenodd" clip-rule="evenodd" fill="#C6945F" d="M18.08,33.27c0.38,0.07,0.38,0.07,0.3,0.37
		c-0.04,0.01-0.07,0.01-0.11,0.02C18.09,33.59,17.91,33.52,18.08,33.27L18.08,33.27z"/>
	<path id="XMLID_904_" fill-rule="evenodd" clip-rule="evenodd" fill="#C6945F" d="M18.38,33.65c0.18,0.23,0.18,0.23,0.01,0.55l0,0
		C18.1,34.02,18.08,33.83,18.38,33.65L18.38,33.65z"/>
	<path id="XMLID_903_" fill-rule="evenodd" clip-rule="evenodd" fill="#C08951" d="M16.55,33.39c0.07,0.14,0.01,0.23-0.1,0.31
		c-0.08,0.05-0.14,0.13-0.21,0.2C16.1,33.58,16.39,33.52,16.55,33.39z"/>
	<path id="XMLID_902_" fill-rule="evenodd" clip-rule="evenodd" fill="#C08951" d="M16.51,33.18c0.01,0.07,0.03,0.14,0.04,0.21
		C16.54,33.32,16.53,33.25,16.51,33.18z"/>
	<path id="XMLID_7_" fill-rule="evenodd" clip-rule="evenodd" fill="#B18255" d="M11.44,11.55c-0.01-0.07-0.03-0.14-0.05-0.21
		C11.41,11.41,11.42,11.48,11.44,11.55z"/>
	<path id="XMLID_6_" fill-rule="evenodd" clip-rule="evenodd" fill="#D0A477" d="M19.04,6.14c-0.13-0.08-0.2-0.21-0.24-0.36
		c-0.08-0.29-0.17-0.57-0.25-0.85c0.05-0.14,0.12-0.18,0.22-0.05c0.04,0.03,0.08,0.06,0.12,0.08c0,0.07-0.01,0.15,0,0.22
		c0.07,0.32,0.07,0.32,0.47,0.45C19.25,5.81,19.15,5.98,19.04,6.14z"/>
	<path id="XMLID_5_" fill-rule="evenodd" clip-rule="evenodd" fill="#CC9B67" d="M18.77,4.89c-0.08,0.02-0.15,0.03-0.22,0.05
		c-0.04-0.03-0.08-0.05-0.11-0.08c-0.01-0.07-0.03-0.14-0.04-0.21C18.68,4.6,18.68,4.61,18.77,4.89z"/>
	<path id="XMLID_4_" fill-rule="evenodd" clip-rule="evenodd" fill="#D2A87B" d="M11.92,3.74c-0.09-0.05-0.17-0.1-0.26-0.14
		c-0.04-0.03-0.08-0.06-0.12-0.09c0.07-0.03,0.13-0.07,0.2-0.1c0.42-0.21,0.82-0.22,1.2,0.09c0.22,0.18,0.46,0.15,0.71,0.09
		c0.01,0.12,0.03,0.24,0.05,0.36c0.01,0.07,0.03,0.17,0,0.19c-0.05,0.04-0.15,0.05-0.21,0.03c-0.3-0.11-0.59-0.23-0.89-0.35
		c-0.04-0.03-0.08-0.05-0.13-0.07c-0.11,0.02-0.22-0.08-0.33-0.04h0C12.06,3.72,11.99,3.73,11.92,3.74z"/>
	<path id="XMLID_3_" fill-rule="evenodd" clip-rule="evenodd" fill="#C79662" d="M12.92,5.29c-0.03,0.09-0.06,0.19-0.1,0.28
		c-0.15,0.47-0.62,0.61-0.97,0.27c-0.12-0.12-0.23-0.26-0.33-0.4c-0.05-0.08-0.09-0.18-0.08-0.28c0.01-0.24,0.05-0.48,0.09-0.72
		c0.01-0.04,0.12-0.07,0.18-0.1c0.08,0.08,0.11,0.19,0.28,0.16c0.44-0.09,0.45-0.08,0.65,0.3c0.06,0.11,0.12,0.21,0.22,0.28l0,0.01
		C12.89,5.15,12.9,5.22,12.92,5.29z"/>
	<path id="XMLID_2_" fill-rule="evenodd" clip-rule="evenodd" fill="#CB9E6E" d="M18.11,32.94c-0.07,0.02-0.14,0.03-0.21,0.04
		c0.03-0.04,0.06-0.09,0.08-0.13C18.03,32.88,18.07,32.91,18.11,32.94z"/>
	<path id="XMLID_1_" fill-rule="evenodd" clip-rule="evenodd" fill="#CB9E6E" d="M18.37,33.65c-0.12,0.18-0.11,0.37,0.01,0.55
		c-0.38,0.21-0.74,0.48-1.21,0.48c-0.05-0.07-0.15-0.14-0.16-0.22c-0.04-0.22-0.13-0.29-0.34-0.2c-0.04,0.02-0.09,0.01-0.14,0.02
		c0.03-0.04,0.06-0.08,0.07-0.13c0.28-0.74,0.28-0.74,0.98-0.88c-0.01-0.15-0.15-0.19-0.25-0.26c0.07-0.02,0.14-0.03,0.21-0.05
		c0.17,0.11,0.34,0.22,0.51,0.33C18.07,33.48,18.24,33.55,18.37,33.65z"/>
	<path id="XMLID_894_" fill-rule="evenodd" clip-rule="evenodd" fill="#C2905C" d="M12.14,3.72c0.12-0.08,0.23-0.04,0.33,0.04
		C12.35,3.81,12.24,3.78,12.14,3.72z"/>
	<path id="XMLID_893_" fill-rule="evenodd" clip-rule="evenodd" fill="#D1A271" d="M10.64,4.92c0.02-0.01,0.06-0.04,0.06-0.04
		C10.74,4.92,10.72,4.93,10.64,4.92L10.64,4.92z"/>
	<path id="XMLID_892_" fill-rule="evenodd" clip-rule="evenodd" fill="#C2905C" d="M11.92,3.74c0.07-0.01,0.14-0.02,0.21-0.02
		C12.06,3.72,11.99,3.73,11.92,3.74z"/>
	<path id="XMLID_891_" fill-rule="evenodd" clip-rule="evenodd" fill="#C2905C" d="M12.92,5.29c-0.01-0.07-0.03-0.14-0.04-0.2
		C12.89,5.15,12.91,5.22,12.92,5.29z"/>
	<path id="XMLID_890_" fill-rule="evenodd" clip-rule="evenodd" fill="#C0884E" d="M27.78,16.43c0.12-0.07,0.23-0.03,0.34,0.04
		C28,16.53,27.88,16.49,27.78,16.43z"/>
	<path id="XMLID_889_" fill-rule="evenodd" clip-rule="evenodd" fill="#B18255" d="M10.96,10.89c-0.09,0.14-0.17,0.31-0.38,0.3
		c-0.02-0.02-0.04-0.03-0.06-0.05c-0.13-0.19-0.38-0.33-0.26-0.62c0.24,0,0.38,0.19,0.57,0.29C10.88,10.83,10.92,10.86,10.96,10.89z
		"/>
	<path id="XMLID_888_" fill-rule="evenodd" clip-rule="evenodd" fill="#C38C53" d="M10.35,11.57c-0.02,0.07-0.02,0.14-0.05,0.21
		c-0.02,0.04-0.07,0.07-0.11,0.08c-0.08,0.01-0.12-0.04-0.13-0.12c-0.01-0.07-0.03-0.14-0.05-0.21
		C10.13,11.47,10.24,11.51,10.35,11.57z"/>
	<path id="XMLID_887_" fill-rule="evenodd" clip-rule="evenodd" fill="#C38C53" d="M10.55,11.52c-0.07,0.02-0.14,0.03-0.21,0.05
		C10.42,11.56,10.48,11.54,10.55,11.52z"/>
	<path id="XMLID_886_" fill-rule="evenodd" clip-rule="evenodd" fill="#B37533" d="M15.58,28.44c0.02,0.07,0.03,0.14,0.05,0.21
		C15.61,28.58,15.59,28.51,15.58,28.44z"/>
	<path id="XMLID_885_" fill-rule="evenodd" clip-rule="evenodd" fill="#C28C54" d="M17.18,28.2c-0.07,0.01-0.14,0.02-0.21,0.03
		C17.04,28.22,17.11,28.21,17.18,28.2z"/>
</g>
</svg>
